  0
SECTION
  2
HEADER
  9
$ACADVER
  1
AC1014
  9
$DWGCODEPAGE
  3
ANSI_1251
  9
$INSBASE
 10
0
 20
0
 30
0
  9
$EXTMIN
 10
28.5001375
 20
10.304186111
 30
0
  9
$EXTMAX
 10
278.5001375
 20
209.694186111
 30
0
  9
$LIMMIN
 10
0
 20
0
  9
$LIMMAX
 10
210.058
 20
296.926
  9
$ORTHOMODE
 70
     0
  9
$REGENMODE
 70
     1
  9
$FILLMODE
 70
     1
  9
$QTEXTMODE
 70
     0
  9
$MIRRTEXT
 70
     1
  9
$LTSCALE
 40
1
  9
$ATTMODE
 70
     1
  9
$TEXTSIZE
 40
0
  9
$TRACEWID
 40
0.05
  9
$TEXTSTYLE
  7
STANDARD
  9
$CLAYER
  8
FACA_PONTES
  9
$CELTYPE
  6
CONTINUOUS
  9
$CECOLOR
 62
     0
  9
$CELTSCALE
 40
1
  9
$DISPSILH
 70
     0
  9
$DIMSCALE
 40
1
  9
$DIMASZ
 40
2
  9
$DIMEXO
 40
1
  9
$DIMDLI
 40
1
  9
$DIMRND
 40
0
  9
$DIMDLE
 40
0
  9
$DIMEXE
 40
0
  9
$DIMTP
 40
0
  9
$DIMTM
 40
0
  9
$DIMTXT
 40
4.233333333
  9
$DIMCEN
 40
1
  9
$DIMTSZ
 40
0
  9
$DIMTOL
 70
     0
  9
$DIMLIM
 70
     0
  9
$DIMTIH
 70
     0
  9
$DIMTOH
 70
     0
  9
$DIMSE1
 70
     0
  9
$DIMSE2
 70
     0
  9
$DIMTAD
 70
     1
  9
$DIMZIN
 70
     0
  9
$DIMBLK
  1

  9
$DIMASO
 70
     1
  9
$DIMSHO
 70
     1
  9
$DIMPOST
  1

  9
$DIMAPOST
  1

  9
$DIMALT
 70
     0
  9
$DIMALTD
 70
     2
  9
$DIMALTF
 40
25.4
  9
$DIMLFAC
 40
1
  9
$DIMTOFL
 70
     0
  9
$DIMTVP
 40
0
  9
$DIMTIX
 70
     0
  9
$DIMSOXD
 70
     0
  9
$DIMSAH
 70
     0
  9
$DIMBLK1
  1

  9
$DIMBLK2
  1

  9
$DIMSTYLE
  2
Standard
  9
$DIMCLRD
 70
     0
  9
$DIMCLRE
 70
     0
  9
$DIMCLRT
 70
     0
  9
$DIMTFAC
 40
1
  9
$DIMGAP
 40
2
  9
$DIMJUST
 70
     0
  9
$DIMSD1
 70
     0
  9
$DIMSD2
 70
     0
  9
$DIMTOLJ
 70
     1
  9
$DIMTZIN
 70
     0
  9
$DIMALTZ
 70
     0
  9
$DIMALTTZ
 70
     0
  9
$DIMUPT
 70
     0
  9
$DIMDEC
 70
     4
  9
$DIMTDEC
 70
     4
  9
$DIMALTU
 70
     2
  9
$DIMALTTD
 70
     2
  9
$DIMTXSTY
  7
STANDARD
  9
$DIMAUNIT
 70
     0
  9
$DIMADEC
 70
     0
  9
$DIMALTRND
 40
0
  9
$DIMAZIN
 70
     0
  9
$DIMDSEP
 70
    46
  9
$DIMATFIT
 70
     3
  9
$DIMFRAC
 70
     0
  9
$DIMLDRBLK
  1

  9
$DIMLUNIT
 70
     2
  9
$DIMLWD
 70
    -2
  9
$DIMLWE
 70
    -2
  9
$DIMTMOVE
 70
     0
  9
$LUNITS
 70
     2
  9
$LUPREC
 70
     2
  9
$MEASUREMENT
 70
     1
  9
$AUNITS
 70
     0
  9
$AUPREC
 70
     2
  9
$LIMCHECK
 70
     0
  9
$ANGBASE
 50
     0
  9
$ANGDIR
 70
     0
  9
$COORDS
 70
     1
  9
$HANDSEED
  5
35B
  0
ENDSEC
  0
SECTION
  2
CLASSES
  0
ENDSEC
  0
SECTION
  2
TABLES
  0
TABLE
  2
VPORT
  5
64
100
AcDbSymbolTable
 70
     2
  0
VPORT
  5
65
100
AcDbSymbolTableRecord
100
AcDbViewportTableRecord
  2
*ACTIVE
 70
     0
 10
0
 20
0
 11
1
 21
1
 12
125
 22
99.695
 13
0
 23
0
 14
0.5
 24
0.5
 15
0.5
 25
0.5
 16
0
 26
0
 36
1
 17
0
 27
0
 37
0
 40
296.926
 41
1
 42
50
 43
0
 44
0
 50
0
 51
0
 71
     0
 72
   100
 73
     1
 74
     1
 75
     0
 76
     0
 77
     0
 78
     0
  0
ENDTAB
  0
TABLE
  2
LTYPE
  5
66
100
AcDbSymbolTable
 70
     1
  0
LTYPE
  5
67
100
AcDbSymbolTableRecord
100
AcDbLinetypeTableRecord
  2
BYBLOCK
 70
     0
  3

 72
    65
 73
     0
 40
0
  0
LTYPE
  5
68
100
AcDbSymbolTableRecord
100
AcDbLinetypeTableRecord
  2
BYLAYER
 70
     0
  3

 72
    65
 73
     0
 40
0
  0
LTYPE
  5
69
100
AcDbSymbolTableRecord
100
AcDbLinetypeTableRecord
  2
CONTINUOUS
 70
     0
  3
Solid line
 72
    65
 73
     0
 40
0
  0
ENDTAB
  0
TABLE
  2
LAYER
  5
6A
100
AcDbSymbolTable
 70
     2
  0
LAYER
  5
6B
100
AcDbSymbolTableRecord
100
AcDbLayerTableRecord
  2
0
 70
     0
 62
   254
  6
CONTINUOUS
  0
LAYER
  5
6C
100
AcDbSymbolTableRecord
100
AcDbLayerTableRecord
  2
FACA_PONTES
 70
     0
 62
     4
  6
CONTINUOUS
  0
ENDTAB
  0
TABLE
  2
STYLE
  5
6D
100
AcDbSymbolTable
 70
     1
  0
STYLE
  5
6E
100
AcDbSymbolTableRecord
100
AcDbTextStyleTableRecord
  2
STANDARD
 70
     0
 40
0
 41
1
 50
0
 71
     0
 42
0
  3
txt
  0
STYLE
  5
6F
100
AcDbSymbolTableRecord
100
AcDbTextStyleTableRecord
  2
NORMAL
 70
     0
 40
0
 41
1
 50
0
 71
     0
 42
0
  3
ROMANS
  0
STYLE
  5
70
100
AcDbSymbolTableRecord
100
AcDbTextStyleTableRecord
  2
BOLD
 70
     0
 40
0
 41
1
 50
0
 71
     0
 42
0
  3
ROMANS
  0
STYLE
  5
71
100
AcDbSymbolTableRecord
100
AcDbTextStyleTableRecord
  2
ITALIC
 70
     0
 40
0
 41
1
 50
0
 71
     0
 42
0
  3
ITALICC
  0
STYLE
  5
72
100
AcDbSymbolTableRecord
100
AcDbTextStyleTableRecord
  2
ITALICBOLD
 70
     0
 40
0
 41
1
 50
0
 71
     0
 42
0
  3
ITALICC
  0
ENDTAB
  0
TABLE
  2
VIEW
  5
73
100
AcDbSymbolTable
 70
     0
  0
ENDTAB
  0
TABLE
  2
UCS
  5
74
100
AcDbSymbolTable
 70
     0
  0
ENDTAB
  0
TABLE
  2
APPID
  5
75
100
AcDbSymbolTable
 70
     1
  0
APPID
  5
76
100
AcDbSymbolTableRecord
100
AcDbRegAppTableRecord
  2
ACAD
 70
     0
  0
ENDTAB
  0
TABLE
  2
DIMSTYLE
  5
77
100
AcDbSymbolTable
  0
ENDTAB
  0
TABLE
  2
BLOCK_RECORD
  5
78
100
AcDbSymbolTable
 70
     0
  0
BLOCK_RECORD
  5
79
100
AcDbSymbolTableRecord
100
AcDbBlockTableRecord
  2
*MODEL_SPACE
  0
BLOCK_RECORD
  5
7A
100
AcDbSymbolTableRecord
100
AcDbBlockTableRecord
  2
*PAPER_SPACE
  0
ENDTAB
  0
ENDSEC
  0
SECTION
  2
BLOCKS
  0
BLOCK
  5
7B
100
AcDbEntity
  8
0
100
AcDbBlockBegin
  2
*MODEL_SPACE
 70
     0
 10
0
 20
0
 30
0
  3
*MODEL_SPACE
  1

  0
ENDBLK
  5
7C
100
AcDbEntity
  8
0
100
AcDbBlockEnd
  0
BLOCK
  5
7D
100
AcDbEntity
  8
0
100
AcDbBlockBegin
  2
*PAPER_SPACE
 70
     0
 10
0
 20
0
 30
0
  3
*PAPER_SPACE
  1

  0
ENDBLK
  5
7E
100
AcDbEntity
  8
0
100
AcDbBlockEnd
  0
ENDSEC
  0
SECTION
  2
ENTITIES
  0
LINE
  5
7F
100
AcDbEntity
  8
FACA_Pontes
  6
CONTINUOUS
 62
   254
420
16777215
 39
0.705555556
 60
     0
100
AcDbLine
 10
78.500111111
 20
60.304186111
 30
0
 11
114.000124313
 21
60.304186111
 31
0
  0
LINE
  5
80
100
AcDbEntity
  8
FACA_Pontes
  6
CONTINUOUS
 62
   254
420
16777215
 39
0.705555556
 60
     0
100
AcDbLine
 10
118.000124298
 20
60.304186111
 30
0
 11
189.000150702
 21
60.304186111
 31
0
  0
LINE
  5
81
100
AcDbEntity
  8
FACA_Pontes
  6
CONTINUOUS
 62
   254
420
16777215
 39
0.705555556
 60
     0
100
AcDbLine
 10
193.000150687
 20
60.304186111
 30
0
 11
228.500163889
 21
60.304186111
 31
0
  0
LINE
  5
82
100
AcDbEntity
  8
FACA_Pontes
  6
CONTINUOUS
 62
   254
420
16777215
 39
0.705555556
 60
     0
100
AcDbLine
 10
228.500163889
 20
60.304186111
 30
0
 11
228.500163889
 21
108.000168063
 31
0
  0
LINE
  5
83
100
AcDbEntity
  8
FACA_Pontes
  6
CONTINUOUS
 62
   254
420
16777215
 39
0.705555556
 60
     0
100
AcDbLine
 10
228.500163889
 20
112.000168048
 30
0
 11
228.500163889
 21
159.69615
 31
0
  0
LINE
  5
84
100
AcDbEntity
  8
FACA_Pontes
  6
CONTINUOUS
 62
   254
420
16777215
 39
0.705555556
 60
     0
100
AcDbLine
 10
228.500163889
 20
159.69615
 30
0
 11
193.000150687
 21
159.69615
 31
0
  0
LINE
  5
85
100
AcDbEntity
  8
FACA_Pontes
  6
CONTINUOUS
 62
   254
420
16777215
 39
0.705555556
 60
     0
100
AcDbLine
 10
189.000150702
 20
159.69615
 30
0
 11
118.000124298
 21
159.69615
 31
0
  0
LINE
  5
86
100
AcDbEntity
  8
FACA_Pontes
  6
CONTINUOUS
 62
   254
420
16777215
 39
0.705555556
 60
     0
100
AcDbLine
 10
114.000124313
 20
159.69615
 30
0
 11
78.500111111
 21
159.69615
 31
0
  0
LINE
  5
87
100
AcDbEntity
  8
FACA_Pontes
  6
CONTINUOUS
 62
   254
420
16777215
 39
0.705555556
 60
     0
100
AcDbLine
 10
78.500111111
 20
159.69615
 30
0
 11
78.500111111
 21
112.000168048
 31
0
  0
LINE
  5
88
100
AcDbEntity
  8
FACA_Pontes
  6
CONTINUOUS
 62
   254
420
16777215
 39
0.705555556
 60
     0
100
AcDbLine
 10
78.500111111
 20
108.000168063
 30
0
 11
78.500111111
 21
60.304186111
 31
0
  0
LINE
  5
89
100
AcDbEntity
  8
FACA_Pontes
  6
CONTINUOUS
 62
    16
420
8388608
 39
0.705555556
 60
     0
100
AcDbLine
 10
0
 20
0
 30
0
 11
0
 21
0
 31
0
  0
LINE
  5
8A
100
AcDbEntity
  8
FACA_Pontes
  6
CONTINUOUS
 62
    16
420
8388608
 39
0.705555556
 60
     0
100
AcDbLine
 10
0
 20
0
 30
0
 11
0
 21
0
 31
0
  0
LINE
  5
8B
100
AcDbEntity
  8
FACA_Pontes
  6
CONTINUOUS
 62
    16
420
8388608
 39
0.705555556
 60
     0
100
AcDbLine
 10
33.5001375
 20
10.304186111
 30
0
 11
153.000137502
 21
10.304186111
 31
0
  0
LINE
  5
8C
100
AcDbEntity
  8
FACA_Pontes
  6
CONTINUOUS
 62
    16
420
8388608
 39
0.705555556
 60
     0
100
AcDbLine
 10
154.000137498
 20
10.304186111
 30
0
 11
273.5001375
 21
10.304186111
 31
0
  0
LINE
  5
8D
100
AcDbEntity
  8
FACA_Pontes
  6
CONTINUOUS
 62
    16
420
8388608
 39
0.705555556
 60
     0
100
AcDbLine
 10
0
 20
0
 30
0
 11
0
 21
0
 31
0
  0
LINE
  5
8E
100
AcDbEntity
  8
FACA_Pontes
  6
CONTINUOUS
 62
    16
420
8388608
 39
0.705555556
 60
     0
100
AcDbLine
 10
0
 20
0
 30
0
 11
0
 21
0
 31
0
  0
LINE
  5
8F
100
AcDbEntity
  8
FACA_Pontes
  6
CONTINUOUS
 62
    16
420
8388608
 39
0.705555556
 60
     0
100
AcDbLine
 10
278.5001375
 20
15.304186111
 30
0
 11
278.5001375
 21
109.499186113
 31
0
  0
LINE
  5
90
100
AcDbEntity
  8
FACA_Pontes
  6
CONTINUOUS
 62
    16
420
8388608
 39
0.705555556
 60
     0
100
AcDbLine
 10
278.5001375
 20
110.499186109
 30
0
 11
278.5001375
 21
204.694186111
 31
0
  0
LINE
  5
91
100
AcDbEntity
  8
FACA_Pontes
  6
CONTINUOUS
 62
    16
420
8388608
 39
0.705555556
 60
     0
100
AcDbLine
 10
0
 20
0
 30
0
 11
0
 21
0
 31
0
  0
LINE
  5
92
100
AcDbEntity
  8
FACA_Pontes
  6
CONTINUOUS
 62
    16
420
8388608
 39
0.705555556
 60
     0
100
AcDbLine
 10
0
 20
0
 30
0
 11
0
 21
0
 31
0
  0
LINE
  5
93
100
AcDbEntity
  8
FACA_Pontes
  6
CONTINUOUS
 62
    16
420
8388608
 39
0.705555556
 60
     0
100
AcDbLine
 10
273.5001375
 20
209.694186111
 30
0
 11
154.000137498
 21
209.694186111
 31
0
  0
LINE
  5
94
100
AcDbEntity
  8
FACA_Pontes
  6
CONTINUOUS
 62
    16
420
8388608
 39
0.705555556
 60
     0
100
AcDbLine
 10
153.000137502
 20
209.694186111
 30
0
 11
33.5001375
 21
209.694186111
 31
0
  0
LINE
  5
95
100
AcDbEntity
  8
FACA_Pontes
  6
CONTINUOUS
 62
    16
420
8388608
 39
0.705555556
 60
     0
100
AcDbLine
 10
0
 20
0
 30
0
 11
0
 21
0
 31
0
  0
LINE
  5
96
100
AcDbEntity
  8
FACA_Pontes
  6
CONTINUOUS
 62
    16
420
8388608
 39
0.705555556
 60
     0
100
AcDbLine
 10
0
 20
0
 30
0
 11
0
 21
0
 31
0
  0
LINE
  5
97
100
AcDbEntity
  8
FACA_Pontes
  6
CONTINUOUS
 62
    16
420
8388608
 39
0.705555556
 60
     0
100
AcDbLine
 10
28.5001375
 20
204.694186111
 30
0
 11
28.5001375
 21
110.499186109
 31
0
  0
LINE
  5
98
100
AcDbEntity
  8
FACA_Pontes
  6
CONTINUOUS
 62
    16
420
8388608
 39
0.705555556
 60
     0
100
AcDbLine
 10
28.5001375
 20
109.499186113
 30
0
 11
28.5001375
 21
15.304186111
 31
0
  0
ARC
  5
99
100
AcDbEntity
  8
FACA_Pontes
  6
CONTINUOUS
 62
    16
420
8388608
 39
0.705555556
 60
     0
100
AcDbCircle
 10
33.5001375
 20
204.694186111
 30
0
 40
5
100
AcDbArc
 50
90
 51
180
  0
ARC
  5
9A
100
AcDbEntity
  8
FACA_Pontes
  6
CONTINUOUS
 62
    16
420
8388608
 39
0.705555556
 60
     0
100
AcDbCircle
 10
273.5001375
 20
204.694186111
 30
0
 40
5
100
AcDbArc
 50
0
 51
90
  0
ARC
  5
9B
100
AcDbEntity
  8
FACA_Pontes
  6
CONTINUOUS
 62
    16
420
8388608
 39
0.705555556
 60
     0
100
AcDbCircle
 10
273.5001375
 20
15.304186111
 30
0
 40
5
100
AcDbArc
 50
270
 51
0
  0
ARC
  5
9C
100
AcDbEntity
  8
FACA_Pontes
  6
CONTINUOUS
 62
    16
420
8388608
 39
0.705555556
 60
     0
100
AcDbCircle
 10
33.5001375
 20
15.304186111
 30
0
 40
5
100
AcDbArc
 50
180
 51
270
  0
LINE
  5
9D
100
AcDbEntity
  8
FACA_Pontes
  6
CONTINUOUS
 62
   254
420
16777215
 39
0.705555556
 60
     0
100
AcDbLine
 10
180.43678106
 20
168.814949632
 30
0
 11
180.43678106
 21
168.150995071
 31
0
  0
LINE
  5
9E
100
AcDbEntity
  8
FACA_Pontes
  6
CONTINUOUS
 62
   254
420
16777215
 39
0.705555556
 60
     0
100
AcDbLine
 10
180.43678106
 20
168.150995071
 30
0
 11
181.771199297
 21
166.816576833
 31
0
  0
LINE
  5
9F
100
AcDbEntity
  8
FACA_Pontes
  6
CONTINUOUS
 62
   254
420
16777215
 39
0.705555556
 60
     0
100
AcDbLine
 10
181.771199297
 20
166.816576833
 30
0
 11
183.105617535
 21
166.816576833
 31
0
  0
LINE
  5
A0
100
AcDbEntity
  8
FACA_Pontes
  6
CONTINUOUS
 62
   254
420
16777215
 39
0.705555556
 60
     0
100
AcDbLine
 10
183.105617535
 20
166.816576833
 30
0
 11
184.433526657
 21
168.150995071
 31
0
  0
LINE
  5
A1
100
AcDbEntity
  8
FACA_Pontes
  6
CONTINUOUS
 62
   254
420
16777215
 39
0.705555556
 60
     0
100
AcDbLine
 10
184.433526657
 20
168.150995071
 30
0
 11
184.433526657
 21
169.485413309
 31
0
  0
LINE
  5
A2
100
AcDbEntity
  8
FACA_Pontes
  6
CONTINUOUS
 62
   254
420
16777215
 39
0.705555556
 60
     0
100
AcDbLine
 10
184.433526657
 20
169.485413309
 30
0
 11
183.105617535
 21
170.813322431
 31
0
  0
LINE
  5
A3
100
AcDbEntity
  8
FACA_Pontes
  6
CONTINUOUS
 62
   254
420
16777215
 39
0.705555556
 60
     0
100
AcDbLine
 10
183.105617535
 20
170.813322431
 30
0
 11
181.771199297
 21
170.813322431
 31
0
  0
LINE
  5
A4
100
AcDbEntity
  8
FACA_Pontes
  6
CONTINUOUS
 62
   254
420
16777215
 39
0.705555556
 60
     0
100
AcDbLine
 10
181.771199297
 20
170.813322431
 30
0
 11
180.43678106
 21
172.147740565
 31
0
  0
LINE
  5
A5
100
AcDbEntity
  8
FACA_Pontes
  6
CONTINUOUS
 62
   254
420
16777215
 39
0.705555556
 60
     0
100
AcDbLine
 10
180.43678106
 20
172.147740565
 30
0
 11
180.43678106
 21
173.482158699
 31
0
  0
LINE
  5
A6
100
AcDbEntity
  8
FACA_Pontes
  6
CONTINUOUS
 62
   254
420
16777215
 39
0.705555556
 60
     0
100
AcDbLine
 10
180.43678106
 20
173.482158699
 30
0
 11
181.771199297
 21
174.816576833
 31
0
  0
LINE
  5
A7
100
AcDbEntity
  8
FACA_Pontes
  6
CONTINUOUS
 62
   254
420
16777215
 39
0.705555556
 60
     0
100
AcDbLine
 10
181.771199297
 20
174.816576833
 30
0
 11
183.105617535
 21
174.816576833
 31
0
  0
LINE
  5
A8
100
AcDbEntity
  8
FACA_Pontes
  6
CONTINUOUS
 62
   254
420
16777215
 39
0.705555556
 60
     0
100
AcDbLine
 10
183.105617535
 20
174.816576833
 30
0
 11
184.433526657
 21
173.482158699
 31
0
  0
LINE
  5
A9
100
AcDbEntity
  8
FACA_Pontes
  6
CONTINUOUS
 62
   254
420
16777215
 39
0.705555556
 60
     0
100
AcDbLine
 10
184.433526657
 20
173.482158699
 30
0
 11
184.433526657
 21
172.818204242
 31
0
  0
LINE
  5
AA
100
AcDbEntity
  8
FACA_Pontes
  6
CONTINUOUS
 62
   254
420
16777215
 39
0.705555556
 60
     0
100
AcDbLine
 10
189.100736191
 20
166.816576833
 30
0
 11
185.103990593
 21
166.816576833
 31
0
  0
LINE
  5
AB
100
AcDbEntity
  8
FACA_Pontes
  6
CONTINUOUS
 62
   254
420
16777215
 39
0.705555556
 60
     0
100
AcDbLine
 10
185.103990593
 20
174.816576833
 30
0
 11
189.100736191
 21
174.816576833
 31
0
  0
LINE
  5
AC
100
AcDbEntity
  8
FACA_Pontes
  6
CONTINUOUS
 62
   254
420
16777215
 39
0.705555556
 60
     0
100
AcDbLine
 10
185.103990593
 20
170.813322431
 30
0
 11
188.436781526
 21
170.813322431
 31
0
  0
LINE
  5
AD
100
AcDbEntity
  8
FACA_Pontes
  6
CONTINUOUS
 62
   254
420
16777215
 39
0.705555556
 60
     0
100
AcDbLine
 10
189.771200127
 20
166.816576833
 30
0
 11
189.771200127
 21
174.816576833
 31
0
  0
LINE
  5
AE
100
AcDbEntity
  8
FACA_Pontes
  6
CONTINUOUS
 62
   254
420
16777215
 39
0.705555556
 60
     0
100
AcDbLine
 10
189.771200127
 20
174.816576833
 30
0
 11
191.769572925
 21
172.147740565
 31
0
  0
LINE
  5
AF
100
AcDbEntity
  8
FACA_Pontes
  6
CONTINUOUS
 62
   254
420
16777215
 39
0.705555556
 60
     0
100
AcDbLine
 10
191.769572925
 20
172.147740565
 30
0
 11
193.767945724
 21
174.816576833
 31
0
  0
LINE
  5
B0
100
AcDbEntity
  8
FACA_Pontes
  6
CONTINUOUS
 62
   254
420
16777215
 39
0.705555556
 60
     0
100
AcDbLine
 10
193.767945724
 20
174.816576833
 30
0
 11
193.767945724
 21
166.816576833
 31
0
  0
LINE
  5
B1
100
AcDbEntity
  8
FACA_Pontes
  6
CONTINUOUS
 62
   254
420
16777215
 39
0.705555556
 60
     0
100
AcDbLine
 10
203.10236467
 20
169.218529724
 30
0
 11
203.10236467
 21
168.41787876
 31
0
  0
LINE
  5
B2
100
AcDbEntity
  8
FACA_Pontes
  6
CONTINUOUS
 62
   254
420
16777215
 39
0.705555556
 60
     0
100
AcDbLine
 10
203.10236467
 20
168.41787876
 30
0
 11
201.774455548
 21
166.816576833
 31
0
  0
LINE
  5
B3
100
AcDbEntity
  8
FACA_Pontes
  6
CONTINUOUS
 62
   254
420
16777215
 39
0.705555556
 60
     0
100
AcDbLine
 10
201.774455548
 20
166.816576833
 30
0
 11
199.105619073
 21
166.816576833
 31
0
  0
LINE
  5
B4
100
AcDbEntity
  8
FACA_Pontes
  6
CONTINUOUS
 62
   254
420
16777215
 39
0.705555556
 60
     0
100
AcDbLine
 10
199.105619073
 20
166.816576833
 30
0
 11
199.105619073
 21
174.816576833
 31
0
  0
LINE
  5
B5
100
AcDbEntity
  8
FACA_Pontes
  6
CONTINUOUS
 62
   254
420
16777215
 39
0.705555556
 60
     0
100
AcDbLine
 10
199.105619073
 20
174.816576833
 30
0
 11
201.774455548
 21
174.816576833
 31
0
  0
LINE
  5
B6
100
AcDbEntity
  8
FACA_Pontes
  6
CONTINUOUS
 62
   254
420
16777215
 39
0.705555556
 60
     0
100
AcDbLine
 10
201.774455548
 20
174.816576833
 30
0
 11
203.10236467
 21
173.215275321
 31
0
  0
LINE
  5
B7
100
AcDbEntity
  8
FACA_Pontes
  6
CONTINUOUS
 62
   254
420
16777215
 39
0.705555556
 60
     0
100
AcDbLine
 10
203.10236467
 20
173.215275321
 30
0
 11
203.10236467
 21
172.414624358
 31
0
  0
LINE
  5
B8
100
AcDbEntity
  8
FACA_Pontes
  6
CONTINUOUS
 62
   254
420
16777215
 39
0.705555556
 60
     0
100
AcDbLine
 10
203.10236467
 20
172.414624358
 30
0
 11
201.774455548
 21
170.813322431
 31
0
  0
LINE
  5
B9
100
AcDbEntity
  8
FACA_Pontes
  6
CONTINUOUS
 62
   254
420
16777215
 39
0.705555556
 60
     0
100
AcDbLine
 10
201.774455548
 20
170.813322431
 30
0
 11
199.105619073
 21
170.813322431
 31
0
  0
LINE
  5
BA
100
AcDbEntity
  8
FACA_Pontes
  6
CONTINUOUS
 62
   254
420
16777215
 39
0.705555556
 60
     0
100
AcDbLine
 10
201.774455548
 20
170.813322431
 30
0
 11
203.10236467
 21
169.218529724
 31
0
  0
LINE
  5
BB
100
AcDbEntity
  8
FACA_Pontes
  6
CONTINUOUS
 62
   254
420
16777215
 39
0.705555556
 60
     0
100
AcDbLine
 10
204.306595958
 20
168.150995071
 30
0
 11
204.306595958
 21
173.482158699
 31
0
  0
LINE
  5
BC
100
AcDbEntity
  8
FACA_Pontes
  6
CONTINUOUS
 62
   254
420
16777215
 39
0.705555556
 60
     0
100
AcDbLine
 10
204.306595958
 20
173.482158699
 30
0
 11
205.641014196
 21
174.816576833
 31
0
  0
LINE
  5
BD
100
AcDbEntity
  8
FACA_Pontes
  6
CONTINUOUS
 62
   254
420
16777215
 39
0.705555556
 60
     0
100
AcDbLine
 10
205.641014196
 20
174.816576833
 30
0
 11
206.975432434
 21
174.816576833
 31
0
  0
LINE
  5
BE
100
AcDbEntity
  8
FACA_Pontes
  6
CONTINUOUS
 62
   254
420
16777215
 39
0.705555556
 60
     0
100
AcDbLine
 10
206.975432434
 20
174.816576833
 30
0
 11
208.303341556
 21
173.482158699
 31
0
  0
LINE
  5
BF
100
AcDbEntity
  8
FACA_Pontes
  6
CONTINUOUS
 62
   254
420
16777215
 39
0.705555556
 60
     0
100
AcDbLine
 10
208.303341556
 20
173.482158699
 30
0
 11
208.303341556
 21
168.150995071
 31
0
  0
LINE
  5
C0
100
AcDbEntity
  8
FACA_Pontes
  6
CONTINUOUS
 62
   254
420
16777215
 39
0.705555556
 60
     0
100
AcDbLine
 10
208.303341556
 20
168.150995071
 30
0
 11
206.975432434
 21
166.816576833
 31
0
  0
LINE
  5
C1
100
AcDbEntity
  8
FACA_Pontes
  6
CONTINUOUS
 62
   254
420
16777215
 39
0.705555556
 60
     0
100
AcDbLine
 10
206.975432434
 20
166.816576833
 30
0
 11
205.641014196
 21
166.816576833
 31
0
  0
LINE
  5
C2
100
AcDbEntity
  8
FACA_Pontes
  6
CONTINUOUS
 62
   254
420
16777215
 39
0.705555556
 60
     0
100
AcDbLine
 10
205.641014196
 20
166.816576833
 30
0
 11
204.306595958
 21
168.150995071
 31
0
  0
LINE
  5
C3
100
AcDbEntity
  8
FACA_Pontes
  6
CONTINUOUS
 62
   254
420
16777215
 39
0.705555556
 60
     0
100
AcDbLine
 10
208.973805492
 20
174.816576833
 30
0
 11
211.642641967
 21
174.816576833
 31
0
  0
LINE
  5
C4
100
AcDbEntity
  8
FACA_Pontes
  6
CONTINUOUS
 62
   254
420
16777215
 39
0.705555556
 60
     0
100
AcDbLine
 10
211.642641967
 20
174.816576833
 30
0
 11
212.970551089
 21
173.482158699
 31
0
  0
LINE
  5
C5
100
AcDbEntity
  8
FACA_Pontes
  6
CONTINUOUS
 62
   254
420
16777215
 39
0.705555556
 60
     0
100
AcDbLine
 10
212.970551089
 20
173.482158699
 30
0
 11
212.970551089
 21
172.147740565
 31
0
  0
LINE
  5
C6
100
AcDbEntity
  8
FACA_Pontes
  6
CONTINUOUS
 62
   254
420
16777215
 39
0.705555556
 60
     0
100
AcDbLine
 10
212.970551089
 20
172.147740565
 30
0
 11
211.642641967
 21
170.813322431
 31
0
  0
LINE
  5
C7
100
AcDbEntity
  8
FACA_Pontes
  6
CONTINUOUS
 62
   254
420
16777215
 39
0.705555556
 60
     0
100
AcDbLine
 10
211.642641967
 20
170.813322431
 30
0
 11
208.973805492
 21
170.813322431
 31
0
  0
LINE
  5
C8
100
AcDbEntity
  8
FACA_Pontes
  6
CONTINUOUS
 62
   254
420
16777215
 39
0.705555556
 60
     0
100
AcDbLine
 10
210.308223729
 20
170.813322431
 30
0
 11
212.970551089
 21
166.816576833
 31
0
  0
LINE
  5
C9
100
AcDbEntity
  8
FACA_Pontes
  6
CONTINUOUS
 62
   254
420
16777215
 39
0.705555556
 60
     0
100
AcDbLine
 10
213.641015025
 20
174.816576833
 30
0
 11
216.309851501
 21
174.816576833
 31
0
  0
LINE
  5
CA
100
AcDbEntity
  8
FACA_Pontes
  6
CONTINUOUS
 62
   254
420
16777215
 39
0.705555556
 60
     0
100
AcDbLine
 10
216.309851501
 20
174.816576833
 30
0
 11
217.637760623
 21
173.482158699
 31
0
  0
LINE
  5
CB
100
AcDbEntity
  8
FACA_Pontes
  6
CONTINUOUS
 62
   254
420
16777215
 39
0.705555556
 60
     0
100
AcDbLine
 10
217.637760623
 20
173.482158699
 30
0
 11
217.637760623
 21
172.147740565
 31
0
  0
LINE
  5
CC
100
AcDbEntity
  8
FACA_Pontes
  6
CONTINUOUS
 62
   254
420
16777215
 39
0.705555556
 60
     0
100
AcDbLine
 10
217.637760623
 20
172.147740565
 30
0
 11
216.309851501
 21
170.813322431
 31
0
  0
LINE
  5
CD
100
AcDbEntity
  8
FACA_Pontes
  6
CONTINUOUS
 62
   254
420
16777215
 39
0.705555556
 60
     0
100
AcDbLine
 10
216.309851501
 20
170.813322431
 30
0
 11
213.641015025
 21
170.813322431
 31
0
  0
LINE
  5
CE
100
AcDbEntity
  8
FACA_Pontes
  6
CONTINUOUS
 62
   254
420
16777215
 39
0.705555556
 60
     0
100
AcDbLine
 10
214.975433263
 20
170.813322431
 30
0
 11
217.637760623
 21
166.816576833
 31
0
  0
LINE
  5
CF
100
AcDbEntity
  8
FACA_Pontes
  6
CONTINUOUS
 62
   254
420
16777215
 39
0.705555556
 60
     0
100
AcDbLine
 10
218.308224559
 20
166.816576833
 30
0
 11
218.308224559
 21
172.147740565
 31
0
  0
LINE
  5
D0
100
AcDbEntity
  8
FACA_Pontes
  6
CONTINUOUS
 62
   254
420
16777215
 39
0.705555556
 60
     0
100
AcDbLine
 10
218.308224559
 20
172.147740565
 30
0
 11
220.306597357
 21
174.816576833
 31
0
  0
LINE
  5
D1
100
AcDbEntity
  8
FACA_Pontes
  6
CONTINUOUS
 62
   254
420
16777215
 39
0.705555556
 60
     0
100
AcDbLine
 10
220.306597357
 20
174.816576833
 30
0
 11
222.304970156
 21
172.147740565
 31
0
  0
LINE
  5
D2
100
AcDbEntity
  8
FACA_Pontes
  6
CONTINUOUS
 62
   254
420
16777215
 39
0.705555556
 60
     0
100
AcDbLine
 10
222.304970156
 20
172.147740565
 30
0
 11
222.304970156
 21
166.816576833
 31
0
  0
LINE
  5
D3
100
AcDbEntity
  8
FACA_Pontes
  6
CONTINUOUS
 62
   254
420
16777215
 39
0.705555556
 60
     0
100
AcDbLine
 10
218.308224559
 20
170.813322431
 30
0
 11
222.304970156
 21
170.813322431
 31
0
  0
LINE
  5
D4
100
AcDbEntity
  8
FACA_Pontes
  6
CONTINUOUS
 62
   254
420
16777215
 39
0.705555556
 60
     0
100
AcDbLine
 10
227.505947042
 20
169.485413309
 30
0
 11
227.505947042
 21
168.150995071
 31
0
  0
LINE
  5
D5
100
AcDbEntity
  8
FACA_Pontes
  6
CONTINUOUS
 62
   254
420
16777215
 39
0.705555556
 60
     0
100
AcDbLine
 10
227.505947042
 20
168.150995071
 30
0
 11
226.575108792
 21
166.816576833
 31
0
  0
LINE
  5
D6
100
AcDbEntity
  8
FACA_Pontes
  6
CONTINUOUS
 62
   254
420
16777215
 39
0.705555556
 60
     0
100
AcDbLine
 10
226.575108792
 20
166.816576833
 30
0
 11
224.843619682
 21
166.816576833
 31
0
  0
LINE
  5
D7
100
AcDbEntity
  8
FACA_Pontes
  6
CONTINUOUS
 62
   254
420
16777215
 39
0.705555556
 60
     0
100
AcDbLine
 10
224.843619682
 20
166.816576833
 30
0
 11
223.509201444
 21
168.150995071
 31
0
  0
LINE
  5
D8
100
AcDbEntity
  8
FACA_Pontes
  6
CONTINUOUS
 62
   254
420
16777215
 39
0.705555556
 60
     0
100
AcDbLine
 10
223.509201444
 20
168.150995071
 30
0
 11
223.509201444
 21
173.482158699
 31
0
  0
LINE
  5
D9
100
AcDbEntity
  8
FACA_Pontes
  6
CONTINUOUS
 62
   254
420
16777215
 39
0.705555556
 60
     0
100
AcDbLine
 10
223.509201444
 20
173.482158699
 30
0
 11
224.843619682
 21
174.816576833
 31
0
  0
LINE
  5
DA
100
AcDbEntity
  8
FACA_Pontes
  6
CONTINUOUS
 62
   254
420
16777215
 39
0.705555556
 60
     0
100
AcDbLine
 10
224.843619682
 20
174.816576833
 30
0
 11
226.575108792
 21
174.816576833
 31
0
  0
LINE
  5
DB
100
AcDbEntity
  8
FACA_Pontes
  6
CONTINUOUS
 62
   254
420
16777215
 39
0.705555556
 60
     0
100
AcDbLine
 10
226.575108792
 20
174.816576833
 30
0
 11
227.505947042
 21
173.482158699
 31
0
  0
LINE
  5
DC
100
AcDbEntity
  8
FACA_Pontes
  6
CONTINUOUS
 62
   254
420
16777215
 39
0.705555556
 60
     0
100
AcDbLine
 10
227.505947042
 20
173.482158699
 30
0
 11
227.505947042
 21
172.160759418
 31
0
  0
LINE
  5
DD
100
AcDbEntity
  8
FACA_Pontes
  6
CONTINUOUS
 62
   254
420
16777215
 39
0.705555556
 60
     0
100
AcDbLine
 10
228.176410978
 20
166.816576833
 30
0
 11
228.176410978
 21
174.816576833
 31
0
  0
LINE
  5
DE
100
AcDbEntity
  8
FACA_Pontes
  6
CONTINUOUS
 62
   254
420
16777215
 39
0.705555556
 60
     0
100
AcDbLine
 10
232.173156575
 20
166.816576833
 30
0
 11
232.173156575
 21
174.816576833
 31
0
  0
LINE
  5
DF
100
AcDbEntity
  8
FACA_Pontes
  6
CONTINUOUS
 62
   254
420
16777215
 39
0.705555556
 60
     0
100
AcDbLine
 10
228.176410978
 20
170.813322431
 30
0
 11
232.173156575
 21
170.813322431
 31
0
  0
LINE
  5
E0
100
AcDbEntity
  8
FACA_Pontes
  6
CONTINUOUS
 62
   254
420
16777215
 39
0.705555556
 60
     0
100
AcDbLine
 10
233.377387863
 20
166.816576833
 30
0
 11
233.377387863
 21
172.147740565
 31
0
  0
LINE
  5
E1
100
AcDbEntity
  8
FACA_Pontes
  6
CONTINUOUS
 62
   254
420
16777215
 39
0.705555556
 60
     0
100
AcDbLine
 10
233.377387863
 20
172.147740565
 30
0
 11
235.375760662
 21
174.816576833
 31
0
  0
LINE
  5
E2
100
AcDbEntity
  8
FACA_Pontes
  6
CONTINUOUS
 62
   254
420
16777215
 39
0.705555556
 60
     0
100
AcDbLine
 10
235.375760662
 20
174.816576833
 30
0
 11
237.374133461
 21
172.147740565
 31
0
  0
LINE
  5
E3
100
AcDbEntity
  8
FACA_Pontes
  6
CONTINUOUS
 62
   254
420
16777215
 39
0.705555556
 60
     0
100
AcDbLine
 10
237.374133461
 20
172.147740565
 30
0
 11
237.374133461
 21
166.816576833
 31
0
  0
LINE
  5
E4
100
AcDbEntity
  8
FACA_Pontes
  6
CONTINUOUS
 62
   254
420
16777215
 39
0.705555556
 60
     0
100
AcDbLine
 10
233.377387863
 20
170.813322431
 30
0
 11
237.374133461
 21
170.813322431
 31
0
  0
LINE
  5
E5
100
AcDbEntity
  8
FACA_Pontes
  6
CONTINUOUS
 62
   254
420
16777215
 39
0.705555556
 60
     0
100
AcDbLine
 10
180.43678106
 20
177.901729514
 30
0
 11
180.43678106
 21
183.232893246
 31
0
  0
LINE
  5
E6
100
AcDbEntity
  8
FACA_Pontes
  6
CONTINUOUS
 62
   254
420
16777215
 39
0.705555556
 60
     0
100
AcDbLine
 10
180.43678106
 20
183.232893246
 30
0
 11
182.435153859
 21
185.901729514
 31
0
  0
LINE
  5
E7
100
AcDbEntity
  8
FACA_Pontes
  6
CONTINUOUS
 62
   254
420
16777215
 39
0.705555556
 60
     0
100
AcDbLine
 10
182.435153859
 20
185.901729514
 30
0
 11
184.433526657
 21
183.232893246
 31
0
  0
LINE
  5
E8
100
AcDbEntity
  8
FACA_Pontes
  6
CONTINUOUS
 62
   254
420
16777215
 39
0.705555556
 60
     0
100
AcDbLine
 10
184.433526657
 20
183.232893246
 30
0
 11
184.433526657
 21
177.901729514
 31
0
  0
LINE
  5
E9
100
AcDbEntity
  8
FACA_Pontes
  6
CONTINUOUS
 62
   254
420
16777215
 39
0.705555556
 60
     0
100
AcDbLine
 10
180.43678106
 20
181.898475112
 30
0
 11
184.433526657
 21
181.898475112
 31
0
  0
LINE
  5
EA
100
AcDbEntity
  8
FACA_Pontes
  6
CONTINUOUS
 62
   254
420
16777215
 39
0.705555556
 60
     0
100
AcDbLine
 10
189.634503543
 20
180.57056599
 30
0
 11
189.634503543
 21
179.236147752
 31
0
  0
LINE
  5
EB
100
AcDbEntity
  8
FACA_Pontes
  6
CONTINUOUS
 62
   254
420
16777215
 39
0.705555556
 60
     0
100
AcDbLine
 10
189.634503543
 20
179.236147752
 30
0
 11
188.703665293
 21
177.901729514
 31
0
  0
LINE
  5
EC
100
AcDbEntity
  8
FACA_Pontes
  6
CONTINUOUS
 62
   254
420
16777215
 39
0.705555556
 60
     0
100
AcDbLine
 10
188.703665293
 20
177.901729514
 30
0
 11
186.972176183
 21
177.901729514
 31
0
  0
LINE
  5
ED
100
AcDbEntity
  8
FACA_Pontes
  6
CONTINUOUS
 62
   254
420
16777215
 39
0.705555556
 60
     0
100
AcDbLine
 10
186.972176183
 20
177.901729514
 30
0
 11
185.637757945
 21
179.236147752
 31
0
  0
LINE
  5
EE
100
AcDbEntity
  8
FACA_Pontes
  6
CONTINUOUS
 62
   254
420
16777215
 39
0.705555556
 60
     0
100
AcDbLine
 10
185.637757945
 20
179.236147752
 30
0
 11
185.637757945
 21
184.56731138
 31
0
  0
LINE
  5
EF
100
AcDbEntity
  8
FACA_Pontes
  6
CONTINUOUS
 62
   254
420
16777215
 39
0.705555556
 60
     0
100
AcDbLine
 10
185.637757945
 20
184.56731138
 30
0
 11
186.972176183
 21
185.901729514
 31
0
  0
LINE
  5
F0
100
AcDbEntity
  8
FACA_Pontes
  6
CONTINUOUS
 62
   254
420
16777215
 39
0.705555556
 60
     0
100
AcDbLine
 10
186.972176183
 20
185.901729514
 30
0
 11
188.703665293
 21
185.901729514
 31
0
  0
LINE
  5
F1
100
AcDbEntity
  8
FACA_Pontes
  6
CONTINUOUS
 62
   254
420
16777215
 39
0.705555556
 60
     0
100
AcDbLine
 10
188.703665293
 20
185.901729514
 30
0
 11
189.634503543
 21
184.56731138
 31
0
  0
LINE
  5
F2
100
AcDbEntity
  8
FACA_Pontes
  6
CONTINUOUS
 62
   254
420
16777215
 39
0.705555556
 60
     0
100
AcDbLine
 10
189.634503543
 20
184.56731138
 30
0
 11
189.634503543
 21
183.245912099
 31
0
  0
LINE
  5
F3
100
AcDbEntity
  8
FACA_Pontes
  6
CONTINUOUS
 62
   254
420
16777215
 39
0.705555556
 60
     0
100
AcDbLine
 10
187.636130744
 20
177.901729514
 30
0
 11
187.636130744
 21
177.237775057
 31
0
  0
LINE
  5
F4
100
AcDbEntity
  8
FACA_Pontes
  6
CONTINUOUS
 62
   254
420
16777215
 39
0.705555556
 60
     0
100
AcDbLine
 10
187.636130744
 20
177.237775057
 30
0
 11
188.306594421
 21
176.899288505
 31
0
  0
LINE
  5
F5
100
AcDbEntity
  8
FACA_Pontes
  6
CONTINUOUS
 62
   254
420
16777215
 39
0.705555556
 60
     0
100
AcDbLine
 10
188.306594421
 20
176.899288505
 30
0
 11
187.636130744
 21
176.567311276
 31
0
  0
LINE
  5
F6
100
AcDbEntity
  8
FACA_Pontes
  6
CONTINUOUS
 62
   254
420
16777215
 39
0.705555556
 60
     0
100
AcDbLine
 10
190.304967479
 20
179.236147752
 30
0
 11
190.304967479
 21
184.56731138
 31
0
  0
LINE
  5
F7
100
AcDbEntity
  8
FACA_Pontes
  6
CONTINUOUS
 62
   254
420
16777215
 39
0.705555556
 60
     0
100
AcDbLine
 10
190.304967479
 20
184.56731138
 30
0
 11
191.639385716
 21
185.901729514
 31
0
  0
LINE
  5
F8
100
AcDbEntity
  8
FACA_Pontes
  6
CONTINUOUS
 62
   254
420
16777215
 39
0.705555556
 60
     0
100
AcDbLine
 10
191.639385716
 20
185.901729514
 30
0
 11
192.973803954
 21
185.901729514
 31
0
  0
LINE
  5
F9
100
AcDbEntity
  8
FACA_Pontes
  6
CONTINUOUS
 62
   254
420
16777215
 39
0.705555556
 60
     0
100
AcDbLine
 10
192.973803954
 20
185.901729514
 30
0
 11
194.301713076
 21
184.56731138
 31
0
  0
LINE
  5
FA
100
AcDbEntity
  8
FACA_Pontes
  6
CONTINUOUS
 62
   254
420
16777215
 39
0.705555556
 60
     0
100
AcDbLine
 10
194.301713076
 20
184.56731138
 30
0
 11
194.301713076
 21
179.236147752
 31
0
  0
LINE
  5
FB
100
AcDbEntity
  8
FACA_Pontes
  6
CONTINUOUS
 62
   254
420
16777215
 39
0.705555556
 60
     0
100
AcDbLine
 10
194.301713076
 20
179.236147752
 30
0
 11
192.973803954
 21
177.901729514
 31
0
  0
LINE
  5
FC
100
AcDbEntity
  8
FACA_Pontes
  6
CONTINUOUS
 62
   254
420
16777215
 39
0.705555556
 60
     0
100
AcDbLine
 10
192.973803954
 20
177.901729514
 30
0
 11
191.639385716
 21
177.901729514
 31
0
  0
LINE
  5
FD
100
AcDbEntity
  8
FACA_Pontes
  6
CONTINUOUS
 62
   254
420
16777215
 39
0.705555556
 60
     0
100
AcDbLine
 10
191.639385716
 20
177.901729514
 30
0
 11
190.304967479
 21
179.236147752
 31
0
  0
LINE
  5
FE
100
AcDbEntity
  8
FACA_Pontes
  6
CONTINUOUS
 62
   254
420
16777215
 39
0.705555556
 60
     0
100
AcDbLine
 10
203.636132022
 20
180.57056599
 30
0
 11
203.636132022
 21
179.236147752
 31
0
  0
LINE
  5
FF
100
AcDbEntity
  8
FACA_Pontes
  6
CONTINUOUS
 62
   254
420
16777215
 39
0.705555556
 60
     0
100
AcDbLine
 10
203.636132022
 20
179.236147752
 30
0
 11
202.705293772
 21
177.901729514
 31
0
  0
LINE
  5
100
100
AcDbEntity
  8
FACA_Pontes
  6
CONTINUOUS
 62
   254
420
16777215
 39
0.705555556
 60
     0
100
AcDbLine
 10
202.705293772
 20
177.901729514
 30
0
 11
200.973804663
 21
177.901729514
 31
0
  0
LINE
  5
101
100
AcDbEntity
  8
FACA_Pontes
  6
CONTINUOUS
 62
   254
420
16777215
 39
0.705555556
 60
     0
100
AcDbLine
 10
200.973804663
 20
177.901729514
 30
0
 11
199.639386425
 21
179.236147752
 31
0
  0
LINE
  5
102
100
AcDbEntity
  8
FACA_Pontes
  6
CONTINUOUS
 62
   254
420
16777215
 39
0.705555556
 60
     0
100
AcDbLine
 10
199.639386425
 20
179.236147752
 30
0
 11
199.639386425
 21
184.56731138
 31
0
  0
LINE
  5
103
100
AcDbEntity
  8
FACA_Pontes
  6
CONTINUOUS
 62
   254
420
16777215
 39
0.705555556
 60
     0
100
AcDbLine
 10
199.639386425
 20
184.56731138
 30
0
 11
200.973804663
 21
185.901729514
 31
0
  0
LINE
  5
104
100
AcDbEntity
  8
FACA_Pontes
  6
CONTINUOUS
 62
   254
420
16777215
 39
0.705555556
 60
     0
100
AcDbLine
 10
200.973804663
 20
185.901729514
 30
0
 11
202.705293772
 21
185.901729514
 31
0
  0
LINE
  5
105
100
AcDbEntity
  8
FACA_Pontes
  6
CONTINUOUS
 62
   254
420
16777215
 39
0.705555556
 60
     0
100
AcDbLine
 10
202.705293772
 20
185.901729514
 30
0
 11
203.636132022
 21
184.56731138
 31
0
  0
LINE
  5
106
100
AcDbEntity
  8
FACA_Pontes
  6
CONTINUOUS
 62
   254
420
16777215
 39
0.705555556
 60
     0
100
AcDbLine
 10
203.636132022
 20
184.56731138
 30
0
 11
203.636132022
 21
183.245912099
 31
0
  0
LINE
  5
107
100
AcDbEntity
  8
FACA_Pontes
  6
CONTINUOUS
 62
   254
420
16777215
 39
0.705555556
 60
     0
100
AcDbLine
 10
204.306595958
 20
179.900102313
 30
0
 11
204.306595958
 21
179.236147752
 31
0
  0
LINE
  5
108
100
AcDbEntity
  8
FACA_Pontes
  6
CONTINUOUS
 62
   254
420
16777215
 39
0.705555556
 60
     0
100
AcDbLine
 10
204.306595958
 20
179.236147752
 30
0
 11
205.641014196
 21
177.901729514
 31
0
  0
LINE
  5
109
100
AcDbEntity
  8
FACA_Pontes
  6
CONTINUOUS
 62
   254
420
16777215
 39
0.705555556
 60
     0
100
AcDbLine
 10
205.641014196
 20
177.901729514
 30
0
 11
206.975432434
 21
177.901729514
 31
0
  0
LINE
  5
10A
100
AcDbEntity
  8
FACA_Pontes
  6
CONTINUOUS
 62
   254
420
16777215
 39
0.705555556
 60
     0
100
AcDbLine
 10
206.975432434
 20
177.901729514
 30
0
 11
208.303341556
 21
179.236147752
 31
0
  0
LINE
  5
10B
100
AcDbEntity
  8
FACA_Pontes
  6
CONTINUOUS
 62
   254
420
16777215
 39
0.705555556
 60
     0
100
AcDbLine
 10
208.303341556
 20
179.236147752
 30
0
 11
208.303341556
 21
180.57056599
 31
0
  0
LINE
  5
10C
100
AcDbEntity
  8
FACA_Pontes
  6
CONTINUOUS
 62
   254
420
16777215
 39
0.705555556
 60
     0
100
AcDbLine
 10
208.303341556
 20
180.57056599
 30
0
 11
206.975432434
 21
181.898475112
 31
0
  0
LINE
  5
10D
100
AcDbEntity
  8
FACA_Pontes
  6
CONTINUOUS
 62
   254
420
16777215
 39
0.705555556
 60
     0
100
AcDbLine
 10
206.975432434
 20
181.898475112
 30
0
 11
205.641014196
 21
181.898475112
 31
0
  0
LINE
  5
10E
100
AcDbEntity
  8
FACA_Pontes
  6
CONTINUOUS
 62
   254
420
16777215
 39
0.705555556
 60
     0
100
AcDbLine
 10
205.641014196
 20
181.898475112
 30
0
 11
204.306595958
 21
183.232893246
 31
0
  0
LINE
  5
10F
100
AcDbEntity
  8
FACA_Pontes
  6
CONTINUOUS
 62
   254
420
16777215
 39
0.705555556
 60
     0
100
AcDbLine
 10
204.306595958
 20
183.232893246
 30
0
 11
204.306595958
 21
184.56731138
 31
0
  0
LINE
  5
110
100
AcDbEntity
  8
FACA_Pontes
  6
CONTINUOUS
 62
   254
420
16777215
 39
0.705555556
 60
     0
100
AcDbLine
 10
204.306595958
 20
184.56731138
 30
0
 11
205.641014196
 21
185.901729514
 31
0
  0
LINE
  5
111
100
AcDbEntity
  8
FACA_Pontes
  6
CONTINUOUS
 62
   254
420
16777215
 39
0.705555556
 60
     0
100
AcDbLine
 10
205.641014196
 20
185.901729514
 30
0
 11
206.975432434
 21
185.901729514
 31
0
  0
LINE
  5
112
100
AcDbEntity
  8
FACA_Pontes
  6
CONTINUOUS
 62
   254
420
16777215
 39
0.705555556
 60
     0
100
AcDbLine
 10
206.975432434
 20
185.901729514
 30
0
 11
208.303341556
 21
184.56731138
 31
0
  0
LINE
  5
113
100
AcDbEntity
  8
FACA_Pontes
  6
CONTINUOUS
 62
   254
420
16777215
 39
0.705555556
 60
     0
100
AcDbLine
 10
208.303341556
 20
184.56731138
 30
0
 11
208.303341556
 21
183.903356923
 31
0
  0
LINE
  5
114
100
AcDbEntity
  8
FACA_Pontes
  6
CONTINUOUS
 62
   254
420
16777215
 39
0.705555556
 60
     0
100
AcDbLine
 10
184.433526657
 20
188.986882195
 30
0
 11
180.43678106
 21
188.986882195
 31
0
  0
LINE
  5
115
100
AcDbEntity
  8
FACA_Pontes
  6
CONTINUOUS
 62
   254
420
16777215
 39
0.705555556
 60
     0
100
AcDbLine
 10
180.43678106
 20
196.986882195
 30
0
 11
184.433526657
 21
196.986882195
 31
0
  0
LINE
  5
116
100
AcDbEntity
  8
FACA_Pontes
  6
CONTINUOUS
 62
   254
420
16777215
 39
0.705555556
 60
     0
100
AcDbLine
 10
180.43678106
 20
192.983627793
 30
0
 11
183.769571993
 21
192.983627793
 31
0
  0
LINE
  5
117
100
AcDbEntity
  8
FACA_Pontes
  6
CONTINUOUS
 62
   254
420
16777215
 39
0.705555556
 60
     0
100
AcDbLine
 10
185.103990593
 20
196.986882195
 30
0
 11
185.103990593
 21
190.321300433
 31
0
  0
LINE
  5
118
100
AcDbEntity
  8
FACA_Pontes
  6
CONTINUOUS
 62
   254
420
16777215
 39
0.705555556
 60
     0
100
AcDbLine
 10
185.103990593
 20
190.321300433
 30
0
 11
187.102363392
 21
188.986882195
 31
0
  0
LINE
  5
119
100
AcDbEntity
  8
FACA_Pontes
  6
CONTINUOUS
 62
   254
420
16777215
 39
0.705555556
 60
     0
100
AcDbLine
 10
187.102363392
 20
188.986882195
 30
0
 11
189.100736191
 21
190.321300433
 31
0
  0
LINE
  5
11A
100
AcDbEntity
  8
FACA_Pontes
  6
CONTINUOUS
 62
   254
420
16777215
 39
0.705555556
 60
     0
100
AcDbLine
 10
189.100736191
 20
190.321300433
 30
0
 11
189.100736191
 21
196.986882195
 31
0
  0
LINE
  5
11B
100
AcDbEntity
  8
FACA_Pontes
  6
CONTINUOUS
 62
   254
420
16777215
 39
0.705555556
 60
     0
100
AcDbLine
 10
189.771200127
 20
188.986882195
 30
0
 11
189.771200127
 21
194.318045927
 31
0
  0
LINE
  5
11C
100
AcDbEntity
  8
FACA_Pontes
  6
CONTINUOUS
 62
   254
420
16777215
 39
0.705555556
 60
     0
100
AcDbLine
 10
189.771200127
 20
194.318045927
 30
0
 11
191.769572925
 21
196.986882195
 31
0
  0
LINE
  5
11D
100
AcDbEntity
  8
FACA_Pontes
  6
CONTINUOUS
 62
   254
420
16777215
 39
0.705555556
 60
     0
100
AcDbLine
 10
191.769572925
 20
196.986882195
 30
0
 11
193.767945724
 21
194.318045927
 31
0
  0
LINE
  5
11E
100
AcDbEntity
  8
FACA_Pontes
  6
CONTINUOUS
 62
   254
420
16777215
 39
0.705555556
 60
     0
100
AcDbLine
 10
193.767945724
 20
194.318045927
 30
0
 11
193.767945724
 21
188.986882195
 31
0
  0
LINE
  5
11F
100
AcDbEntity
  8
FACA_Pontes
  6
CONTINUOUS
 62
   254
420
16777215
 39
0.705555556
 60
     0
100
AcDbLine
 10
189.771200127
 20
192.983627793
 30
0
 11
193.767945724
 21
192.983627793
 31
0
  0
LINE
  5
120
100
AcDbEntity
  8
FACA_Pontes
  6
CONTINUOUS
 62
   254
420
16777215
 39
0.705555556
 60
     0
100
AcDbLine
 10
199.76957353
 20
195.652464061
 30
0
 11
201.103991871
 21
196.986882195
 31
0
  0
LINE
  5
121
100
AcDbEntity
  8
FACA_Pontes
  6
CONTINUOUS
 62
   254
420
16777215
 39
0.705555556
 60
     0
100
AcDbLine
 10
201.103991871
 20
196.986882195
 30
0
 11
201.103991871
 21
188.986882195
 31
0
  0
LINE
  5
122
100
AcDbEntity
  8
FACA_Pontes
  6
CONTINUOUS
 62
   254
420
16777215
 39
0.705555556
 60
     0
100
AcDbLine
 10
202.438409954
 20
191.65571867
 30
0
 11
203.772828192
 21
191.65571867
 31
0
  0
LINE
  5
123
100
AcDbEntity
  8
FACA_Pontes
  6
CONTINUOUS
 62
   254
420
16777215
 39
0.705555556
 60
     0
100
AcDbLine
 10
203.772828192
 20
191.65571867
 30
0
 11
203.772828192
 21
190.321300433
 31
0
  0
LINE
  5
124
100
AcDbEntity
  8
FACA_Pontes
  6
CONTINUOUS
 62
   254
420
16777215
 39
0.705555556
 60
     0
100
AcDbLine
 10
203.772828192
 20
190.321300433
 30
0
 11
202.438409954
 21
190.321300433
 31
0
  0
LINE
  5
125
100
AcDbEntity
  8
FACA_Pontes
  6
CONTINUOUS
 62
   254
420
16777215
 39
0.705555556
 60
     0
100
AcDbLine
 10
202.438409954
 20
190.321300433
 30
0
 11
202.438409954
 21
191.65571867
 31
0
  0
LINE
  5
126
100
AcDbEntity
  8
FACA_Pontes
  6
CONTINUOUS
 62
   254
420
16777215
 39
0.705555556
 60
     0
100
AcDbLine
 10
202.438409954
 20
188.986882195
 30
0
 11
203.772828192
 21
190.321300433
 31
0
  0
LINE
  5
127
100
AcDbEntity
  8
FACA_Pontes
  6
CONTINUOUS
 62
   254
420
16777215
 39
0.705555556
 60
     0
100
AcDbLine
 10
208.433528169
 20
196.986882195
 30
0
 11
204.436782571
 21
196.986882195
 31
0
  0
LINE
  5
128
100
AcDbEntity
  8
FACA_Pontes
  6
CONTINUOUS
 62
   254
420
16777215
 39
0.705555556
 60
     0
100
AcDbLine
 10
204.436782571
 20
196.986882195
 30
0
 11
204.436782571
 21
192.983627793
 31
0
  0
LINE
  5
129
100
AcDbEntity
  8
FACA_Pontes
  6
CONTINUOUS
 62
   254
420
16777215
 39
0.705555556
 60
     0
100
AcDbLine
 10
204.436782571
 20
192.983627793
 30
0
 11
207.105619047
 21
192.983627793
 31
0
  0
LINE
  5
12A
100
AcDbEntity
  8
FACA_Pontes
  6
CONTINUOUS
 62
   254
420
16777215
 39
0.705555556
 60
     0
100
AcDbLine
 10
207.105619047
 20
192.983627793
 30
0
 11
208.433528169
 21
191.65571867
 31
0
  0
LINE
  5
12B
100
AcDbEntity
  8
FACA_Pontes
  6
CONTINUOUS
 62
   254
420
16777215
 39
0.705555556
 60
     0
100
AcDbLine
 10
208.433528169
 20
191.65571867
 30
0
 11
208.433528169
 21
190.321300433
 31
0
  0
LINE
  5
12C
100
AcDbEntity
  8
FACA_Pontes
  6
CONTINUOUS
 62
   254
420
16777215
 39
0.705555556
 60
     0
100
AcDbLine
 10
208.433528169
 20
190.321300433
 30
0
 11
207.105619047
 21
188.986882195
 31
0
  0
LINE
  5
12D
100
AcDbEntity
  8
FACA_Pontes
  6
CONTINUOUS
 62
   254
420
16777215
 39
0.705555556
 60
     0
100
AcDbLine
 10
207.105619047
 20
188.986882195
 30
0
 11
205.771200809
 21
188.986882195
 31
0
  0
LINE
  5
12E
100
AcDbEntity
  8
FACA_Pontes
  6
CONTINUOUS
 62
   254
420
16777215
 39
0.705555556
 60
     0
100
AcDbLine
 10
205.771200809
 20
188.986882195
 30
0
 11
204.436782571
 21
190.321300433
 31
0
  0
LINE
  5
12F
100
AcDbEntity
  8
FACA_Pontes
  6
CONTINUOUS
 62
     4
420
 65535
 39
0.105833333
 60
     0
100
AcDbLine
 10
104.784915224
 20
192.552121564
 30
0
 11
104.784915224
 21
182.552121564
 31
0
  0
LINE
  5
130
100
AcDbEntity
  8
FACA_Pontes
  6
CONTINUOUS
 62
     4
420
 65535
 39
0.105833333
 60
     0
100
AcDbLine
 10
109.780847221
 20
182.552121564
 30
0
 11
109.780847221
 21
192.552121564
 31
0
  0
LINE
  5
131
100
AcDbEntity
  8
FACA_Pontes
  6
CONTINUOUS
 62
     4
420
 65535
 39
0.105833333
 60
     0
100
AcDbLine
 10
109.780847221
 20
184.220144362
 30
0
 11
104.784915224
 21
190.884098897
 31
0
  0
LINE
  5
132
100
AcDbEntity
  8
FACA_Pontes
  6
CONTINUOUS
 62
     4
420
 65535
 39
0.105833333
 60
     0
100
AcDbLine
 10
111.286136331
 20
192.552121564
 30
0
 11
114.622181926
 21
192.552121564
 31
0
  0
LINE
  5
133
100
AcDbEntity
  8
FACA_Pontes
  6
CONTINUOUS
 62
     4
420
 65535
 39
0.105833333
 60
     0
100
AcDbLine
 10
114.622181926
 20
192.552121564
 30
0
 11
116.282068328
 21
190.884098897
 31
0
  0
LINE
  5
134
100
AcDbEntity
  8
FACA_Pontes
  6
CONTINUOUS
 62
     4
420
 65535
 39
0.105833333
 60
     0
100
AcDbLine
 10
116.282068328
 20
190.884098897
 30
0
 11
116.282068328
 21
189.216076229
 31
0
  0
LINE
  5
135
100
AcDbEntity
  8
FACA_Pontes
  6
CONTINUOUS
 62
     4
420
 65535
 39
0.105833333
 60
     0
100
AcDbLine
 10
116.282068328
 20
189.216076229
 30
0
 11
114.622181926
 21
187.548053562
 31
0
  0
LINE
  5
136
100
AcDbEntity
  8
FACA_Pontes
  6
CONTINUOUS
 62
     4
420
 65535
 39
0.105833333
 60
     0
100
AcDbLine
 10
114.622181926
 20
187.548053562
 30
0
 11
111.286136331
 21
187.548053562
 31
0
  0
LINE
  5
137
100
AcDbEntity
  8
FACA_Pontes
  6
CONTINUOUS
 62
     4
420
 65535
 39
0.105833333
 60
     0
100
AcDbLine
 10
112.954159128
 20
187.548053562
 30
0
 11
116.282068328
 21
182.552121564
 31
0
  0
LINE
  5
138
100
AcDbEntity
  8
FACA_Pontes
  6
CONTINUOUS
 62
     4
420
 65535
 39
0.105833333
 60
     0
100
AcDbLine
 10
127.950092011
 20
192.552121564
 30
0
 11
122.954160014
 21
192.552121564
 31
0
  0
LINE
  5
139
100
AcDbEntity
  8
FACA_Pontes
  6
CONTINUOUS
 62
     4
420
 65535
 39
0.105833333
 60
     0
100
AcDbLine
 10
122.954160014
 20
192.552121564
 30
0
 11
122.954160014
 21
187.548053562
 31
0
  0
LINE
  5
13A
100
AcDbEntity
  8
FACA_Pontes
  6
CONTINUOUS
 62
     4
420
 65535
 39
0.105833333
 60
     0
100
AcDbLine
 10
122.954160014
 20
187.548053562
 30
0
 11
126.290205608
 21
187.548053562
 31
0
  0
LINE
  5
13B
100
AcDbEntity
  8
FACA_Pontes
  6
CONTINUOUS
 62
     4
420
 65535
 39
0.105833333
 60
     0
100
AcDbLine
 10
126.290205608
 20
187.548053562
 30
0
 11
127.950092011
 21
185.888167159
 31
0
  0
LINE
  5
13C
100
AcDbEntity
  8
FACA_Pontes
  6
CONTINUOUS
 62
     4
420
 65535
 39
0.105833333
 60
     0
100
AcDbLine
 10
127.950092011
 20
185.888167159
 30
0
 11
127.950092011
 21
184.220144362
 31
0
  0
LINE
  5
13D
100
AcDbEntity
  8
FACA_Pontes
  6
CONTINUOUS
 62
     4
420
 65535
 39
0.105833333
 60
     0
100
AcDbLine
 10
127.950092011
 20
184.220144362
 30
0
 11
126.290205608
 21
182.552121564
 31
0
  0
LINE
  5
13E
100
AcDbEntity
  8
FACA_Pontes
  6
CONTINUOUS
 62
     4
420
 65535
 39
0.105833333
 60
     0
100
AcDbLine
 10
126.290205608
 20
182.552121564
 30
0
 11
124.622182811
 21
182.552121564
 31
0
  0
LINE
  5
13F
100
AcDbEntity
  8
FACA_Pontes
  6
CONTINUOUS
 62
     4
420
 65535
 39
0.105833333
 60
     0
100
AcDbLine
 10
124.622182811
 20
182.552121564
 30
0
 11
122.954160014
 21
184.220144362
 31
0
  0
LINE
  5
140
100
AcDbEntity
  8
FACA_Pontes
  6
CONTINUOUS
 62
     4
420
 65535
 39
0.105833333
 60
     0
100
AcDbLine
 10
129.618115002
 20
190.884098897
 30
0
 11
131.286137929
 21
192.552121564
 31
0
  0
LINE
  5
141
100
AcDbEntity
  8
FACA_Pontes
  6
CONTINUOUS
 62
     4
420
 65535
 39
0.105833333
 60
     0
100
AcDbLine
 10
131.286137929
 20
192.552121564
 30
0
 11
131.286137929
 21
182.552121564
 31
0
  0
LINE
  5
142
100
AcDbEntity
  8
FACA_Pontes
  6
CONTINUOUS
 62
     4
420
 65535
 39
0.105833333
 60
     0
100
AcDbLine
 10
137.950092529
 20
192.552121564
 30
0
 11
132.954160532
 21
192.552121564
 31
0
  0
LINE
  5
143
100
AcDbEntity
  8
FACA_Pontes
  6
CONTINUOUS
 62
     4
420
 65535
 39
0.105833333
 60
     0
100
AcDbLine
 10
132.954160532
 20
192.552121564
 30
0
 11
132.954160532
 21
187.548053562
 31
0
  0
LINE
  5
144
100
AcDbEntity
  8
FACA_Pontes
  6
CONTINUOUS
 62
     4
420
 65535
 39
0.105833333
 60
     0
100
AcDbLine
 10
132.954160532
 20
187.548053562
 30
0
 11
136.290206126
 21
187.548053562
 31
0
  0
LINE
  5
145
100
AcDbEntity
  8
FACA_Pontes
  6
CONTINUOUS
 62
     4
420
 65535
 39
0.105833333
 60
     0
100
AcDbLine
 10
136.290206126
 20
187.548053562
 30
0
 11
137.950092529
 21
185.888167159
 31
0
  0
LINE
  5
146
100
AcDbEntity
  8
FACA_Pontes
  6
CONTINUOUS
 62
     4
420
 65535
 39
0.105833333
 60
     0
100
AcDbLine
 10
137.950092529
 20
185.888167159
 30
0
 11
137.950092529
 21
184.220144362
 31
0
  0
LINE
  5
147
100
AcDbEntity
  8
FACA_Pontes
  6
CONTINUOUS
 62
     4
420
 65535
 39
0.105833333
 60
     0
100
AcDbLine
 10
137.950092529
 20
184.220144362
 30
0
 11
136.290206126
 21
182.552121564
 31
0
  0
LINE
  5
148
100
AcDbEntity
  8
FACA_Pontes
  6
CONTINUOUS
 62
     4
420
 65535
 39
0.105833333
 60
     0
100
AcDbLine
 10
136.290206126
 20
182.552121564
 30
0
 11
134.622183329
 21
182.552121564
 31
0
  0
LINE
  5
149
100
AcDbEntity
  8
FACA_Pontes
  6
CONTINUOUS
 62
     4
420
 65535
 39
0.105833333
 60
     0
100
AcDbLine
 10
134.622183329
 20
182.552121564
 30
0
 11
132.954160532
 21
184.220144362
 31
0
  0
LINE
  5
14A
100
AcDbEntity
  8
FACA_Pontes
  6
CONTINUOUS
 62
     4
420
 65535
 39
0.105833333
 60
     0
100
AcDbLine
 10
139.618115521
 20
190.884098897
 30
0
 11
141.286138447
 21
192.552121564
 31
0
  0
LINE
  5
14B
100
AcDbEntity
  8
FACA_Pontes
  6
CONTINUOUS
 62
     4
420
 65535
 39
0.105833333
 60
     0
100
AcDbLine
 10
141.286138447
 20
192.552121564
 30
0
 11
141.286138447
 21
182.552121564
 31
0
  0
LINE
  5
14C
100
AcDbEntity
  8
FACA_Pontes
  6
CONTINUOUS
 62
     4
420
 65535
 39
0.105833333
 60
     0
100
AcDbLine
 10
144.614047194
 20
182.552121564
 30
0
 11
146.282070121
 21
182.552121564
 31
0
  0
LINE
  5
14D
100
AcDbEntity
  8
FACA_Pontes
  6
CONTINUOUS
 62
     4
420
 65535
 39
0.105833333
 60
     0
100
AcDbLine
 10
146.282070121
 20
182.552121564
 30
0
 11
147.950093047
 21
184.220144362
 31
0
  0
LINE
  5
14E
100
AcDbEntity
  8
FACA_Pontes
  6
CONTINUOUS
 62
     4
420
 65535
 39
0.105833333
 60
     0
100
AcDbLine
 10
147.950093047
 20
184.220144362
 30
0
 11
147.950093047
 21
190.884098897
 31
0
  0
LINE
  5
14F
100
AcDbEntity
  8
FACA_Pontes
  6
CONTINUOUS
 62
     4
420
 65535
 39
0.105833333
 60
     0
100
AcDbLine
 10
147.950093047
 20
190.884098897
 30
0
 11
146.282070121
 21
192.552121564
 31
0
  0
LINE
  5
150
100
AcDbEntity
  8
FACA_Pontes
  6
CONTINUOUS
 62
     4
420
 65535
 39
0.105833333
 60
     0
100
AcDbLine
 10
146.282070121
 20
192.552121564
 30
0
 11
144.614047194
 21
192.552121564
 31
0
  0
LINE
  5
151
100
AcDbEntity
  8
FACA_Pontes
  6
CONTINUOUS
 62
     4
420
 65535
 39
0.105833333
 60
     0
100
AcDbLine
 10
144.614047194
 20
192.552121564
 30
0
 11
142.95416105
 21
190.884098897
 31
0
  0
LINE
  5
152
100
AcDbEntity
  8
FACA_Pontes
  6
CONTINUOUS
 62
     4
420
 65535
 39
0.105833333
 60
     0
100
AcDbLine
 10
142.95416105
 20
190.884098897
 30
0
 11
142.95416105
 21
189.216076229
 31
0
  0
LINE
  5
153
100
AcDbEntity
  8
FACA_Pontes
  6
CONTINUOUS
 62
     4
420
 65535
 39
0.105833333
 60
     0
100
AcDbLine
 10
142.95416105
 20
189.216076229
 30
0
 11
144.614047194
 21
187.556190086
 31
0
  0
LINE
  5
154
100
AcDbEntity
  8
FACA_Pontes
  6
CONTINUOUS
 62
     4
420
 65535
 39
0.105833333
 60
     0
100
AcDbLine
 10
144.614047194
 20
187.556190086
 30
0
 11
147.950093047
 21
187.556190086
 31
0
  0
LINE
  5
155
100
AcDbEntity
  8
FACA_Pontes
  6
CONTINUOUS
 62
     4
420
 65535
 39
0.105833333
 60
     0
100
AcDbLine
 10
150.456195764
 20
187.548053562
 30
0
 11
148.788172967
 21
189.216076229
 31
0
  0
LINE
  5
156
100
AcDbEntity
  8
FACA_Pontes
  6
CONTINUOUS
 62
     4
420
 65535
 39
0.105833333
 60
     0
100
AcDbLine
 10
148.788172967
 20
189.216076229
 30
0
 11
148.788172967
 21
190.884098897
 31
0
  0
LINE
  5
157
100
AcDbEntity
  8
FACA_Pontes
  6
CONTINUOUS
 62
     4
420
 65535
 39
0.105833333
 60
     0
100
AcDbLine
 10
148.788172967
 20
190.884098897
 30
0
 11
150.456195764
 21
192.552121564
 31
0
  0
LINE
  5
158
100
AcDbEntity
  8
FACA_Pontes
  6
CONTINUOUS
 62
     4
420
 65535
 39
0.105833333
 60
     0
100
AcDbLine
 10
150.456195764
 20
192.552121564
 30
0
 11
152.124218561
 21
192.552121564
 31
0
  0
LINE
  5
159
100
AcDbEntity
  8
FACA_Pontes
  6
CONTINUOUS
 62
     4
420
 65535
 39
0.105833333
 60
     0
100
AcDbLine
 10
152.124218561
 20
192.552121564
 30
0
 11
153.784104964
 21
190.884098897
 31
0
  0
LINE
  5
15A
100
AcDbEntity
  8
FACA_Pontes
  6
CONTINUOUS
 62
     4
420
 65535
 39
0.105833333
 60
     0
100
AcDbLine
 10
153.784104964
 20
190.884098897
 30
0
 11
153.784104964
 21
189.216076229
 31
0
  0
LINE
  5
15B
100
AcDbEntity
  8
FACA_Pontes
  6
CONTINUOUS
 62
     4
420
 65535
 39
0.105833333
 60
     0
100
AcDbLine
 10
153.784104964
 20
189.216076229
 30
0
 11
152.124218561
 21
187.548053562
 31
0
  0
LINE
  5
15C
100
AcDbEntity
  8
FACA_Pontes
  6
CONTINUOUS
 62
     4
420
 65535
 39
0.105833333
 60
     0
100
AcDbLine
 10
152.124218561
 20
187.548053562
 30
0
 11
153.784104964
 21
185.888167159
 31
0
  0
LINE
  5
15D
100
AcDbEntity
  8
FACA_Pontes
  6
CONTINUOUS
 62
     4
420
 65535
 39
0.105833333
 60
     0
100
AcDbLine
 10
153.784104964
 20
185.888167159
 30
0
 11
153.784104964
 21
184.220144362
 31
0
  0
LINE
  5
15E
100
AcDbEntity
  8
FACA_Pontes
  6
CONTINUOUS
 62
     4
420
 65535
 39
0.105833333
 60
     0
100
AcDbLine
 10
153.784104964
 20
184.220144362
 30
0
 11
152.124218561
 21
182.552121564
 31
0
  0
LINE
  5
15F
100
AcDbEntity
  8
FACA_Pontes
  6
CONTINUOUS
 62
     4
420
 65535
 39
0.105833333
 60
     0
100
AcDbLine
 10
152.124218561
 20
182.552121564
 30
0
 11
150.456195764
 21
182.552121564
 31
0
  0
LINE
  5
160
100
AcDbEntity
  8
FACA_Pontes
  6
CONTINUOUS
 62
     4
420
 65535
 39
0.105833333
 60
     0
100
AcDbLine
 10
150.456195764
 20
182.552121564
 30
0
 11
148.788172967
 21
184.220144362
 31
0
  0
LINE
  5
161
100
AcDbEntity
  8
FACA_Pontes
  6
CONTINUOUS
 62
     4
420
 65535
 39
0.105833333
 60
     0
100
AcDbLine
 10
148.788172967
 20
184.220144362
 30
0
 11
148.788172967
 21
185.888167159
 31
0
  0
LINE
  5
162
100
AcDbEntity
  8
FACA_Pontes
  6
CONTINUOUS
 62
     4
420
 65535
 39
0.105833333
 60
     0
100
AcDbLine
 10
148.788172967
 20
185.888167159
 30
0
 11
150.456195764
 21
187.548053562
 31
0
  0
LINE
  5
163
100
AcDbEntity
  8
FACA_Pontes
  6
CONTINUOUS
 62
     4
420
 65535
 39
0.105833333
 60
     0
100
AcDbLine
 10
150.456195764
 20
187.548053562
 30
0
 11
152.124218561
 21
187.548053562
 31
0
  0
LINE
  5
164
100
AcDbEntity
  8
FACA_Pontes
  6
CONTINUOUS
 62
     4
420
 65535
 39
0.105833333
 60
     0
100
AcDbLine
 10
46.945372196
 20
37.969203618
 30
0
 11
42.948627046
 21
37.969203618
 31
0
  0
LINE
  5
165
100
AcDbEntity
  8
FACA_Pontes
  6
CONTINUOUS
 62
     4
420
 65535
 39
0.105833333
 60
     0
100
AcDbLine
 10
42.948627046
 20
45.969203618
 30
0
 11
46.945372196
 21
45.969203618
 31
0
  0
LINE
  5
166
100
AcDbEntity
  8
FACA_Pontes
  6
CONTINUOUS
 62
     4
420
 65535
 39
0.105833333
 60
     0
100
AcDbLine
 10
42.948627046
 20
41.965948768
 30
0
 11
46.281417776
 21
41.965948768
 31
0
  0
LINE
  5
167
100
AcDbEntity
  8
FACA_Pontes
  6
CONTINUOUS
 62
     4
420
 65535
 39
0.105833333
 60
     0
100
AcDbLine
 10
47.615835995
 20
45.969203618
 30
0
 11
47.615835995
 21
39.303621773
 31
0
  0
LINE
  5
168
100
AcDbEntity
  8
FACA_Pontes
  6
CONTINUOUS
 62
     4
420
 65535
 39
0.105833333
 60
     0
100
AcDbLine
 10
47.615835995
 20
39.303621773
 30
0
 11
49.61420857
 21
37.969203618
 31
0
  0
LINE
  5
169
100
AcDbEntity
  8
FACA_Pontes
  6
CONTINUOUS
 62
     4
420
 65535
 39
0.105833333
 60
     0
100
AcDbLine
 10
49.61420857
 20
37.969203618
 30
0
 11
51.612581144
 21
39.303621773
 31
0
  0
LINE
  5
16A
100
AcDbEntity
  8
FACA_Pontes
  6
CONTINUOUS
 62
     4
420
 65535
 39
0.105833333
 60
     0
100
AcDbLine
 10
51.612581144
 20
39.303621773
 30
0
 11
51.612581144
 21
45.969203618
 31
0
  0
LINE
  5
16B
100
AcDbEntity
  8
FACA_Pontes
  6
CONTINUOUS
 62
     4
420
 65535
 39
0.105833333
 60
     0
100
AcDbLine
 10
52.283044943
 20
37.969203618
 30
0
 11
52.283044943
 21
43.300367051
 31
0
  0
LINE
  5
16C
100
AcDbEntity
  8
FACA_Pontes
  6
CONTINUOUS
 62
     4
420
 65535
 39
0.105833333
 60
     0
100
AcDbLine
 10
52.283044943
 20
43.300367051
 30
0
 11
54.281417518
 21
45.969203618
 31
0
  0
LINE
  5
16D
100
AcDbEntity
  8
FACA_Pontes
  6
CONTINUOUS
 62
     4
420
 65535
 39
0.105833333
 60
     0
100
AcDbLine
 10
54.281417518
 20
45.969203618
 30
0
 11
56.279790093
 21
43.300367051
 31
0
  0
LINE
  5
16E
100
AcDbEntity
  8
FACA_Pontes
  6
CONTINUOUS
 62
     4
420
 65535
 39
0.105833333
 60
     0
100
AcDbLine
 10
56.279790093
 20
43.300367051
 30
0
 11
56.279790093
 21
37.969203618
 31
0
  0
LINE
  5
16F
100
AcDbEntity
  8
FACA_Pontes
  6
CONTINUOUS
 62
     4
420
 65535
 39
0.105833333
 60
     0
100
AcDbLine
 10
52.283044943
 20
41.965948768
 30
0
 11
56.279790093
 21
41.965948768
 31
0
  0
LINE
  5
170
100
AcDbEntity
  8
FACA_Pontes
  6
CONTINUOUS
 62
     4
420
 65535
 39
0.105833333
 60
     0
100
AcDbLine
 10
61.617463076
 20
37.969203618
 30
0
 11
61.617463076
 21
45.969203618
 31
0
  0
LINE
  5
171
100
AcDbEntity
  8
FACA_Pontes
  6
CONTINUOUS
 62
     4
420
 65535
 39
0.105833333
 60
     0
100
AcDbLine
 10
61.617463076
 20
45.969203618
 30
0
 11
63.615835651
 21
43.300367051
 31
0
  0
LINE
  5
172
100
AcDbEntity
  8
FACA_Pontes
  6
CONTINUOUS
 62
     4
420
 65535
 39
0.105833333
 60
     0
100
AcDbLine
 10
63.615835651
 20
43.300367051
 30
0
 11
65.614208226
 21
45.969203618
 31
0
  0
LINE
  5
173
100
AcDbEntity
  8
FACA_Pontes
  6
CONTINUOUS
 62
     4
420
 65535
 39
0.105833333
 60
     0
100
AcDbLine
 10
65.614208226
 20
45.969203618
 30
0
 11
65.614208226
 21
37.969203618
 31
0
  0
LINE
  5
174
100
AcDbEntity
  8
FACA_Pontes
  6
CONTINUOUS
 62
     4
420
 65535
 39
0.105833333
 60
     0
100
AcDbLine
 10
66.284672025
 20
45.969203618
 30
0
 11
66.284672025
 21
39.303621773
 31
0
  0
LINE
  5
175
100
AcDbEntity
  8
FACA_Pontes
  6
CONTINUOUS
 62
     4
420
 65535
 39
0.105833333
 60
     0
100
AcDbLine
 10
66.284672025
 20
39.303621773
 30
0
 11
67.619090179
 21
37.969203618
 31
0
  0
LINE
  5
176
100
AcDbEntity
  8
FACA_Pontes
  6
CONTINUOUS
 62
     4
420
 65535
 39
0.105833333
 60
     0
100
AcDbLine
 10
67.619090179
 20
37.969203618
 30
0
 11
68.953508334
 21
37.969203618
 31
0
  0
LINE
  5
177
100
AcDbEntity
  8
FACA_Pontes
  6
CONTINUOUS
 62
     4
420
 65535
 39
0.105833333
 60
     0
100
AcDbLine
 10
68.953508334
 20
37.969203618
 30
0
 11
70.281417175
 21
39.303621773
 31
0
  0
LINE
  5
178
100
AcDbEntity
  8
FACA_Pontes
  6
CONTINUOUS
 62
     4
420
 65535
 39
0.105833333
 60
     0
100
AcDbLine
 10
70.281417175
 20
39.303621773
 30
0
 11
70.281417175
 21
45.969203618
 31
0
  0
LINE
  5
179
100
AcDbEntity
  8
FACA_Pontes
  6
CONTINUOUS
 62
     4
420
 65535
 39
0.105833333
 60
     0
100
AcDbLine
 10
70.951880973
 20
45.969203618
 30
0
 11
70.951880973
 21
37.969203618
 31
0
  0
LINE
  5
17A
100
AcDbEntity
  8
FACA_Pontes
  6
CONTINUOUS
 62
     4
420
 65535
 39
0.105833333
 60
     0
100
AcDbLine
 10
74.948626123
 20
37.969203618
 30
0
 11
74.948626123
 21
45.969203618
 31
0
  0
LINE
  5
17B
100
AcDbEntity
  8
FACA_Pontes
  6
CONTINUOUS
 62
     4
420
 65535
 39
0.105833333
 60
     0
100
AcDbLine
 10
74.948626123
 20
39.303621773
 30
0
 11
70.951880973
 21
44.634785077
 31
0
  0
LINE
  5
17C
100
AcDbEntity
  8
FACA_Pontes
  6
CONTINUOUS
 62
     4
420
 65535
 39
0.105833333
 60
     0
100
AcDbLine
 10
75.619089922
 20
37.969203618
 30
0
 11
75.619089922
 21
45.969203618
 31
0
  0
LINE
  5
17D
100
AcDbEntity
  8
FACA_Pontes
  6
CONTINUOUS
 62
     4
420
 65535
 39
0.105833333
 60
     0
100
AcDbLine
 10
75.619089922
 20
45.969203618
 30
0
 11
78.287926231
 21
45.969203618
 31
0
  0
LINE
  5
17E
100
AcDbEntity
  8
FACA_Pontes
  6
CONTINUOUS
 62
     4
420
 65535
 39
0.105833333
 60
     0
100
AcDbLine
 10
78.287926231
 20
45.969203618
 30
0
 11
79.615835071
 21
44.634785077
 31
0
  0
LINE
  5
17F
100
AcDbEntity
  8
FACA_Pontes
  6
CONTINUOUS
 62
     4
420
 65535
 39
0.105833333
 60
     0
100
AcDbLine
 10
79.615835071
 20
44.634785077
 30
0
 11
79.615835071
 21
39.303621773
 31
0
  0
LINE
  5
180
100
AcDbEntity
  8
FACA_Pontes
  6
CONTINUOUS
 62
     4
420
 65535
 39
0.105833333
 60
     0
100
AcDbLine
 10
79.615835071
 20
39.303621773
 30
0
 11
78.287926231
 21
37.969203618
 31
0
  0
LINE
  5
181
100
AcDbEntity
  8
FACA_Pontes
  6
CONTINUOUS
 62
     4
420
 65535
 39
0.105833333
 60
     0
100
AcDbLine
 10
78.287926231
 20
37.969203618
 30
0
 11
75.619089922
 21
37.969203618
 31
0
  0
LINE
  5
182
100
AcDbEntity
  8
FACA_Pontes
  6
CONTINUOUS
 62
     4
420
 65535
 39
0.105833333
 60
     0
100
AcDbLine
 10
51.192853976
 20
176.913627278
 30
0
 11
50.51136087
 21
176.884854466
 31
0
  0
LINE
  5
183
100
AcDbEntity
  8
FACA_Pontes
  6
CONTINUOUS
 62
     4
420
 65535
 39
0.105833333
 60
     0
100
AcDbLine
 10
50.141338484
 20
176.880830297
 30
0
 11
49.806527582
 21
176.898737851
 31
0
  0
ARC
  5
184
100
AcDbEntity
  8
FACA_Pontes
  6
CONTINUOUS
 62
     4
420
 65535
 39
0.105833333
 60
     0
100
AcDbCircle
 10
50.571952615
 20
172.545197391
 30
0
 40
4.340080056
100
AcDbArc
 50
90.79993088
 51
92.396276037
  0
ARC
  5
185
100
AcDbEntity
  8
FACA_Pontes
  6
CONTINUOUS
 62
     4
420
 65535
 39
0.105833333
 60
     0
100
AcDbCircle
 10
50.257604305
 20
180.056990158
 30
0
 40
3.17828715
100
AcDbArc
 50
267.903579147
 51
272.396276037
  0
ARC
  5
186
100
AcDbEntity
  8
FACA_Pontes
  6
CONTINUOUS
 62
     4
420
 65535
 39
0.105833333
 60
     0
100
AcDbCircle
 10
48.544534402
 20
157.133615726
 30
0
 40
19.805369963
100
AcDbArc
 50
86.346652303
 51
87.414648616
  0
ARC
  5
187
100
AcDbEntity
  8
FACA_Pontes
  6
CONTINUOUS
 62
     4
420
 65535
 39
0.105833333
 60
     0
100
AcDbCircle
 10
49.829458037
 20
185.590377619
 30
0
 40
8.680386585
100
AcDbArc
 50
260.691694181
 51
267.414648616
  0
LINE
  5
188
100
AcDbEntity
  8
FACA_Pontes
  6
CONTINUOUS
 62
     4
420
 65535
 39
0.105833333
 60
     0
100
AcDbLine
 10
83.757620724
 20
192.264526077
 30
0
 11
85.514170712
 21
192.264526077
 31
0
  0
LINE
  5
189
100
AcDbEntity
  8
FACA_Pontes
  6
CONTINUOUS
 62
     4
420
 65535
 39
0.105833333
 60
     0
100
AcDbLine
 10
85.514170712
 20
192.264526077
 30
0
 11
85.514170712
 21
185.268708604
 31
0
  0
LINE
  5
18A
100
AcDbEntity
  8
FACA_Pontes
  6
CONTINUOUS
 62
     4
420
 65535
 39
0.105833333
 60
     0
100
AcDbLine
 10
85.514170712
 20
185.268708604
 30
0
 11
83.757620724
 21
185.268708604
 31
0
  0
LINE
  5
18B
100
AcDbEntity
  8
FACA_Pontes
  6
CONTINUOUS
 62
     4
420
 65535
 39
0.105833333
 60
     0
100
AcDbLine
 10
83.757620724
 20
185.268708604
 30
0
 11
83.757620724
 21
186.038331022
 31
0
  0
LINE
  5
18C
100
AcDbEntity
  8
FACA_Pontes
  6
CONTINUOUS
 62
     4
420
 65535
 39
0.105833333
 60
     0
100
AcDbLine
 10
86.459367644
 20
186.335455577
 30
0
 11
87.541265615
 21
187.496428479
 31
0
  0
ARC
  5
18D
100
AcDbEntity
  8
FACA_Pontes
  6
CONTINUOUS
 62
     4
420
 65535
 39
0.105833333
 60
     0
100
AcDbCircle
 10
81.476631227
 20
188.333815933
 30
0
 40
3.23607232
100
AcDbArc
 50
267.0175287
 51
314.818523328
  0
ARC
  5
18E
100
AcDbEntity
  8
FACA_Pontes
  6
CONTINUOUS
 62
     4
420
 65535
 39
0.105833333
 60
     0
100
AcDbCircle
 10
81.896702771
 20
190.791479541
 30
0
 40
1.595461745
100
AcDbArc
 50
345.737670043
 51
55.195942585
  0
ARC
  5
18F
100
AcDbEntity
  8
FACA_Pontes
  6
CONTINUOUS
 62
     4
420
 65535
 39
0.105833333
 60
     0
100
AcDbCircle
 10
82.632411262
 20
190.658282868
 30
0
 40
0.851214308
100
AcDbArc
 50
331.54012901
 51
342.22459735
  0
ARC
  5
190
100
AcDbEntity
  8
FACA_Pontes
  6
CONTINUOUS
 62
     4
420
 65535
 39
0.105833333
 60
     0
100
AcDbCircle
 10
82.349205142
 20
189.457321994
 30
0
 40
1.302549235
100
AcDbArc
 50
37.632009509
 51
69.266558787
  0
ARC
  5
191
100
AcDbEntity
  8
FACA_Pontes
  6
CONTINUOUS
 62
     4
420
 65535
 39
0.105833333
 60
     0
100
AcDbCircle
 10
80.787261566
 20
188.972134614
 30
0
 40
2.9334926
100
AcDbArc
 50
324.864039058
 51
347.65548986
  0
ARC
  5
192
100
AcDbEntity
  8
FACA_Pontes
  6
CONTINUOUS
 62
     4
420
 65535
 39
0.105833333
 60
     0
100
AcDbCircle
 10
79.206801498
 20
189.318017001
 30
0
 40
4.551358062
100
AcDbArc
 50
347.65548986
 51
0.881657145
  0
ARC
  5
193
100
AcDbEntity
  8
FACA_Pontes
  6
CONTINUOUS
 62
     4
420
 65535
 39
0.105833333
 60
     0
100
AcDbCircle
 10
88.890914137
 20
190.283149082
 30
0
 40
0.551840934
100
AcDbArc
 50
108.488148231
 51
153.72849918
  0
ARC
  5
194
100
AcDbEntity
  8
FACA_Pontes
  6
CONTINUOUS
 62
     4
420
 65535
 39
0.105833333
 60
     0
100
AcDbCircle
 10
88.724190744
 20
190.40253242
 30
0
 40
0.351075515
100
AcDbArc
 50
159.164029466
 51
224.23712946
  0
ARC
  5
195
100
AcDbEntity
  8
FACA_Pontes
  6
CONTINUOUS
 62
     4
420
 65535
 39
0.105833333
 60
     0
100
AcDbCircle
 10
89.429452378
 20
191.147301409
 30
0
 40
1.376567438
100
AcDbArc
 50
225.968246378
 51
239.830708062
  0
ARC
  5
196
100
AcDbEntity
  8
FACA_Pontes
  6
CONTINUOUS
 62
     4
420
 65535
 39
0.105833333
 60
     0
100
AcDbCircle
 10
93.300210978
 20
198.467374484
 30
0
 40
9.656090041
100
AcDbArc
 50
241.802901795
 51
245.03102541
  0
ARC
  5
197
100
AcDbEntity
  8
FACA_Pontes
  6
CONTINUOUS
 62
     4
420
 65535
 39
0.105833333
 60
     0
100
AcDbCircle
 10
84.139667361
 20
178.794720212
 30
0
 40
12.04480592
100
AcDbArc
 50
59.173006387
 51
65.03102541
  0
ARC
  5
198
100
AcDbEntity
  8
FACA_Pontes
  6
CONTINUOUS
 62
     4
420
 65535
 39
0.105833333
 60
     0
100
AcDbCircle
 10
88.696787657
 20
186.73017358
 30
0
 40
2.899251442
100
AcDbArc
 50
32.812935269
 51
56.143633653
  0
ARC
  5
199
100
AcDbEntity
  8
FACA_Pontes
  6
CONTINUOUS
 62
     4
420
 65535
 39
0.105833333
 60
     0
100
AcDbCircle
 10
89.43644351
 20
187.332389762
 30
0
 40
1.954111966
100
AcDbArc
 50
358.880590533
 51
29.723650247
  0
ARC
  5
19A
100
AcDbEntity
  8
FACA_Pontes
  6
CONTINUOUS
 62
     4
420
 65535
 39
0.105833333
 60
     0
100
AcDbCircle
 10
89.137683941
 20
187.420737501
 30
0
 40
2.25604923
100
AcDbArc
 50
287.168209121
 51
356.785056734
  0
ARC
  5
19B
100
AcDbEntity
  8
FACA_Pontes
  6
CONTINUOUS
 62
     4
420
 65535
 39
0.105833333
 60
     0
100
AcDbCircle
 10
88.898168629
 20
188.196008987
 30
0
 40
3.067476036
100
AcDbArc
 50
217.339893309
 51
287.168209121
  0
ARC
  5
19C
100
AcDbEntity
  8
FACA_Pontes
  6
CONTINUOUS
 62
     4
420
 65535
 39
0.105833333
 60
     0
100
AcDbCircle
 10
89.399344715
 20
189.088137155
 30
0
 40
2.446629202
100
AcDbArc
 50
220.584749005
 51
251.08953479
  0
ARC
  5
19D
100
AcDbEntity
  8
FACA_Pontes
  6
CONTINUOUS
 62
     4
420
 65535
 39
0.105833333
 60
     0
100
AcDbCircle
 10
88.991686664
 20
188.14448957
 30
0
 40
1.424035153
100
AcDbArc
 50
254.303093083
 51
283.871629374
  0
ARC
  5
19E
100
AcDbEntity
  8
FACA_Pontes
  6
CONTINUOUS
 62
     4
420
 65535
 39
0.105833333
 60
     0
100
AcDbCircle
 10
89.119529416
 20
187.453929775
 30
0
 40
0.724152364
100
AcDbArc
 50
287.152648384
 51
319.575466843
  0
ARC
  5
19F
100
AcDbEntity
  8
FACA_Pontes
  6
CONTINUOUS
 62
     4
420
 65535
 39
0.105833333
 60
     0
100
AcDbCircle
 10
89.259318968
 20
187.234368191
 30
0
 40
0.481478103
100
AcDbArc
 50
328.717409003
 51
28.928502586
  0
ARC
  5
1A0
100
AcDbEntity
  8
FACA_Pontes
  6
CONTINUOUS
 62
     4
420
 65535
 39
0.105833333
 60
     0
100
AcDbCircle
 10
88.569521032
 20
186.743772276
 30
0
 40
1.325974806
100
AcDbArc
 50
33.067923494
 51
53.984878551
  0
ARC
  5
1A1
100
AcDbEntity
  8
FACA_Pontes
  6
CONTINUOUS
 62
     4
420
 65535
 39
0.105833333
 60
     0
100
AcDbCircle
 10
88.042324373
 20
186.018550903
 30
0
 40
2.222569674
100
AcDbArc
 50
53.984878551
 51
64.475383881
  0
ARC
  5
1A2
100
AcDbEntity
  8
FACA_Pontes
  6
CONTINUOUS
 62
     4
420
 65535
 39
0.105833333
 60
     0
100
AcDbCircle
 10
95.41879008
 20
200.877298471
 30
0
 40
14.366722051
100
AcDbArc
 50
237.473772412
 51
243.462725707
  0
ARC
  5
1A3
100
AcDbEntity
  8
FACA_Pontes
  6
CONTINUOUS
 62
     4
420
 65535
 39
0.105833333
 60
     0
100
AcDbCircle
 10
89.415932362
 20
191.156087526
 30
0
 40
2.947337474
100
AcDbArc
 50
213.148185378
 51
234.251408072
  0
ARC
  5
1A4
100
AcDbEntity
  8
FACA_Pontes
  6
CONTINUOUS
 62
     4
420
 65535
 39
0.105833333
 60
     0
100
AcDbCircle
 10
88.476578711
 20
190.418141426
 30
0
 40
1.760428435
100
AcDbArc
 50
179.226088445
 51
209.754607638
  0
ARC
  5
1A5
100
AcDbEntity
  8
FACA_Pontes
  6
CONTINUOUS
 62
     4
420
 65535
 39
0.105833333
 60
     0
100
AcDbCircle
 10
88.778032262
 20
190.328791752
 30
0
 40
2.064822743
100
AcDbArc
 50
110.36774252
 51
176.859303871
  0
ARC
  5
1A6
100
AcDbEntity
  8
FACA_Pontes
  6
CONTINUOUS
 62
     4
420
 65535
 39
0.105833333
 60
     0
100
AcDbCircle
 10
88.983655506
 20
189.77493328
 30
0
 40
2.655618924
100
AcDbArc
 50
87.053823914
 51
110.36774252
  0
ARC
  5
1A7
100
AcDbEntity
  8
FACA_Pontes
  6
CONTINUOUS
 62
     4
420
 65535
 39
0.105833333
 60
     0
100
AcDbCircle
 10
88.97440881
 20
189.631489554
 30
0
 40
2.799348933
100
AcDbArc
 50
63.453210572
 51
87.015717856
  0
ARC
  5
1A8
100
AcDbEntity
  8
FACA_Pontes
  6
CONTINUOUS
 62
     4
420
 65535
 39
0.105833333
 60
     0
100
AcDbCircle
 10
89.551000829
 20
190.975672079
 30
0
 40
1.341880353
100
AcDbArc
 50
14.716277421
 51
59.82350332
  0
ARC
  5
1A9
100
AcDbEntity
  8
FACA_Pontes
  6
CONTINUOUS
 62
     4
420
 65535
 39
0.105833333
 60
     0
100
AcDbCircle
 10
89.798734964
 20
191.108912913
 30
0
 40
1.070458163
100
AcDbArc
 50
292.052102341
 51
11.184774289
  0
ARC
  5
1AA
100
AcDbEntity
  8
FACA_Pontes
  6
CONTINUOUS
 62
     4
420
 65535
 39
0.105833333
 60
     0
100
AcDbCircle
 10
89.057930795
 20
189.57775008
 30
0
 40
1.263454975
100
AcDbArc
 50
25.25330791
 51
72.169444563
  0
ARC
  5
1AB
100
AcDbEntity
  8
FACA_Pontes
  6
CONTINUOUS
 62
     4
420
 65535
 39
0.105833333
 60
     0
100
AcDbCircle
 10
89.03437537
 20
189.503937294
 30
0
 40
1.340935009
100
AcDbArc
 50
72.177038592
 51
103.738270327
  0
LINE
  5
1AC
100
AcDbEntity
  8
FACA_Pontes
  6
CONTINUOUS
 62
     4
420
 65535
 39
0.105833333
 60
     0
100
AcDbLine
 10
83.757620724
 20
189.388049716
 30
0
 11
83.757620724
 21
192.264526077
 31
0
  0
LINE
  5
1AD
100
AcDbEntity
  8
FACA_Pontes
  6
CONTINUOUS
 62
     4
420
 65535
 39
0.105833333
 60
     0
100
AcDbLine
 10
63.615973035
 20
182.973421766
 30
0
 11
62.919334677
 21
182.276783408
 31
0
  0
LINE
  5
1AE
100
AcDbEntity
  8
FACA_Pontes
  6
CONTINUOUS
 62
     4
420
 65535
 39
0.105833333
 60
     0
100
AcDbLine
 10
62.919334677
 20
182.276783408
 30
0
 11
62.919334677
 21
179.493628211
 31
0
  0
LINE
  5
1AF
100
AcDbEntity
  8
FACA_Pontes
  6
CONTINUOUS
 62
     4
420
 65535
 39
0.105833333
 60
     0
100
AcDbLine
 10
62.919334677
 20
179.493628211
 30
0
 11
63.615973035
 21
178.796989853
 31
0
  0
LINE
  5
1B0
100
AcDbEntity
  8
FACA_Pontes
  6
CONTINUOUS
 62
     4
420
 65535
 39
0.105833333
 60
     0
100
AcDbLine
 10
64.309213172
 20
182.276783408
 30
0
 11
65.00585153
 21
182.973421766
 31
0
  0
LINE
  5
1B1
100
AcDbEntity
  8
FACA_Pontes
  6
CONTINUOUS
 62
     4
420
 65535
 39
0.105833333
 60
     0
100
AcDbLine
 10
65.00585153
 20
182.973421766
 30
0
 11
65.00585153
 21
178.796989853
 31
0
  0
LINE
  5
1B2
100
AcDbEntity
  8
FACA_Pontes
  6
CONTINUOUS
 62
     4
420
 65535
 39
0.105833333
 60
     0
100
AcDbLine
 10
66.049109979
 20
182.276783408
 30
0
 11
66.745748337
 21
182.973421766
 31
0
  0
LINE
  5
1B3
100
AcDbEntity
  8
FACA_Pontes
  6
CONTINUOUS
 62
     4
420
 65535
 39
0.105833333
 60
     0
100
AcDbLine
 10
66.745748337
 20
182.973421766
 30
0
 11
66.745748337
 21
178.796989853
 31
0
  0
LINE
  5
1B4
100
AcDbEntity
  8
FACA_Pontes
  6
CONTINUOUS
 62
     4
420
 65535
 39
0.105833333
 60
     0
100
AcDbLine
 10
67.442386725
 20
178.796989853
 30
0
 11
68.139025083
 21
179.493628211
 31
0
  0
LINE
  5
1B5
100
AcDbEntity
  8
FACA_Pontes
  6
CONTINUOUS
 62
     4
420
 65535
 39
0.105833333
 60
     0
100
AcDbLine
 10
68.139025083
 20
179.493628211
 30
0
 11
68.139025083
 21
182.276783408
 31
0
  0
LINE
  5
1B6
100
AcDbEntity
  8
FACA_Pontes
  6
CONTINUOUS
 62
     4
420
 65535
 39
0.105833333
 60
     0
100
AcDbLine
 10
68.139025083
 20
182.276783408
 30
0
 11
67.442386725
 21
182.973421766
 31
0
  0
LINE
  5
1B7
100
AcDbEntity
  8
FACA_Pontes
  6
CONTINUOUS
 62
     4
420
 65535
 39
0.105833333
 60
     0
100
AcDbLine
 10
70.922180236
 20
182.276783408
 30
0
 11
71.618818594
 21
182.973421766
 31
0
  0
LINE
  5
1B8
100
AcDbEntity
  8
FACA_Pontes
  6
CONTINUOUS
 62
     4
420
 65535
 39
0.105833333
 60
     0
100
AcDbLine
 10
71.618818594
 20
182.973421766
 30
0
 11
72.315456952
 21
182.973421766
 31
0
  0
LINE
  5
1B9
100
AcDbEntity
  8
FACA_Pontes
  6
CONTINUOUS
 62
     4
420
 65535
 39
0.105833333
 60
     0
100
AcDbLine
 10
72.315456952
 20
182.973421766
 30
0
 11
73.008697074
 21
182.276783408
 31
0
  0
LINE
  5
1BA
100
AcDbEntity
  8
FACA_Pontes
  6
CONTINUOUS
 62
     4
420
 65535
 39
0.105833333
 60
     0
100
AcDbLine
 10
73.008697074
 20
182.276783408
 30
0
 11
73.008697074
 21
181.58014505
 31
0
  0
LINE
  5
1BB
100
AcDbEntity
  8
FACA_Pontes
  6
CONTINUOUS
 62
     4
420
 65535
 39
0.105833333
 60
     0
100
AcDbLine
 10
73.008697074
 20
181.58014505
 30
0
 11
72.315456952
 21
180.883506692
 31
0
  0
LINE
  5
1BC
100
AcDbEntity
  8
FACA_Pontes
  6
CONTINUOUS
 62
     4
420
 65535
 39
0.105833333
 60
     0
100
AcDbLine
 10
72.315456952
 20
180.883506692
 30
0
 11
73.008697074
 21
180.190266569
 31
0
  0
LINE
  5
1BD
100
AcDbEntity
  8
FACA_Pontes
  6
CONTINUOUS
 62
     4
420
 65535
 39
0.105833333
 60
     0
100
AcDbLine
 10
73.008697074
 20
180.190266569
 30
0
 11
73.008697074
 21
179.493628211
 31
0
  0
LINE
  5
1BE
100
AcDbEntity
  8
FACA_Pontes
  6
CONTINUOUS
 62
     4
420
 65535
 39
0.105833333
 60
     0
100
AcDbLine
 10
73.008697074
 20
179.493628211
 30
0
 11
72.315456952
 21
178.796989853
 31
0
  0
LINE
  5
1BF
100
AcDbEntity
  8
FACA_Pontes
  6
CONTINUOUS
 62
     4
420
 65535
 39
0.105833333
 60
     0
100
AcDbLine
 10
72.315456952
 20
178.796989853
 30
0
 11
71.618818594
 21
178.796989853
 31
0
  0
LINE
  5
1C0
100
AcDbEntity
  8
FACA_Pontes
  6
CONTINUOUS
 62
     4
420
 65535
 39
0.105833333
 60
     0
100
AcDbLine
 10
71.618818594
 20
178.796989853
 30
0
 11
70.922180236
 21
179.493628211
 31
0
  0
LINE
  5
1C1
100
AcDbEntity
  8
FACA_Pontes
  6
CONTINUOUS
 62
     4
420
 65535
 39
0.105833333
 60
     0
100
AcDbLine
 10
71.618818594
 20
180.883506692
 30
0
 11
72.315456952
 21
180.883506692
 31
0
  0
LINE
  5
1C2
100
AcDbEntity
  8
FACA_Pontes
  6
CONTINUOUS
 62
     4
420
 65535
 39
0.105833333
 60
     0
100
AcDbLine
 10
73.358715304
 20
182.276783408
 30
0
 11
74.055353663
 21
182.973421766
 31
0
  0
LINE
  5
1C3
100
AcDbEntity
  8
FACA_Pontes
  6
CONTINUOUS
 62
     4
420
 65535
 39
0.105833333
 60
     0
100
AcDbLine
 10
74.055353663
 20
182.973421766
 30
0
 11
74.751992021
 21
182.973421766
 31
0
  0
LINE
  5
1C4
100
AcDbEntity
  8
FACA_Pontes
  6
CONTINUOUS
 62
     4
420
 65535
 39
0.105833333
 60
     0
100
AcDbLine
 10
74.751992021
 20
182.973421766
 30
0
 11
75.445232143
 21
182.276783408
 31
0
  0
LINE
  5
1C5
100
AcDbEntity
  8
FACA_Pontes
  6
CONTINUOUS
 62
     4
420
 65535
 39
0.105833333
 60
     0
100
AcDbLine
 10
75.445232143
 20
182.276783408
 30
0
 11
75.445232143
 21
181.58014505
 31
0
  0
LINE
  5
1C6
100
AcDbEntity
  8
FACA_Pontes
  6
CONTINUOUS
 62
     4
420
 65535
 39
0.105833333
 60
     0
100
AcDbLine
 10
75.445232143
 20
181.58014505
 30
0
 11
74.751992021
 21
180.883506692
 31
0
  0
LINE
  5
1C7
100
AcDbEntity
  8
FACA_Pontes
  6
CONTINUOUS
 62
     4
420
 65535
 39
0.105833333
 60
     0
100
AcDbLine
 10
74.751992021
 20
180.883506692
 30
0
 11
74.055353663
 21
180.883506692
 31
0
  0
LINE
  5
1C8
100
AcDbEntity
  8
FACA_Pontes
  6
CONTINUOUS
 62
     4
420
 65535
 39
0.105833333
 60
     0
100
AcDbLine
 10
74.055353663
 20
180.883506692
 30
0
 11
73.358715304
 21
180.190266569
 31
0
  0
LINE
  5
1C9
100
AcDbEntity
  8
FACA_Pontes
  6
CONTINUOUS
 62
     4
420
 65535
 39
0.105833333
 60
     0
100
AcDbLine
 10
73.358715304
 20
180.190266569
 30
0
 11
73.358715304
 21
178.796989853
 31
0
  0
LINE
  5
1CA
100
AcDbEntity
  8
FACA_Pontes
  6
CONTINUOUS
 62
     4
420
 65535
 39
0.105833333
 60
     0
100
AcDbLine
 10
73.358715304
 20
178.796989853
 30
0
 11
75.445232143
 21
178.796989853
 31
0
  0
LINE
  5
1CB
100
AcDbEntity
  8
FACA_Pontes
  6
CONTINUOUS
 62
     4
420
 65535
 39
0.105833333
 60
     0
100
AcDbLine
 10
75.445232143
 20
178.796989853
 30
0
 11
75.445232143
 21
179.143609914
 31
0
  0
LINE
  5
1CC
100
AcDbEntity
  8
FACA_Pontes
  6
CONTINUOUS
 62
     4
420
 65535
 39
0.105833333
 60
     0
100
AcDbLine
 10
77.881767212
 20
182.973421766
 30
0
 11
77.881767212
 21
182.276783408
 31
0
  0
LINE
  5
1CD
100
AcDbEntity
  8
FACA_Pontes
  6
CONTINUOUS
 62
     4
420
 65535
 39
0.105833333
 60
     0
100
AcDbLine
 10
77.881767212
 20
182.276783408
 30
0
 11
76.491888732
 21
180.883506692
 31
0
  0
LINE
  5
1CE
100
AcDbEntity
  8
FACA_Pontes
  6
CONTINUOUS
 62
     4
420
 65535
 39
0.105833333
 60
     0
100
AcDbLine
 10
76.491888732
 20
180.883506692
 30
0
 11
76.491888732
 21
178.796989853
 31
0
  0
LINE
  5
1CF
100
AcDbEntity
  8
FACA_Pontes
  6
CONTINUOUS
 62
     4
420
 65535
 39
0.105833333
 60
     0
100
AcDbLine
 10
77.881767212
 20
182.973421766
 30
0
 11
75.795250373
 21
182.973421766
 31
0
  0
LINE
  5
1D0
100
AcDbEntity
  8
FACA_Pontes
  6
CONTINUOUS
 62
     4
420
 65535
 39
0.105833333
 60
     0
100
AcDbLine
 10
75.795250373
 20
182.973421766
 30
0
 11
75.795250373
 21
182.623403469
 31
0
  0
LINE
  5
1D1
100
AcDbEntity
  8
FACA_Pontes
  6
CONTINUOUS
 62
     4
420
 65535
 39
0.105833333
 60
     0
100
AcDbLine
 10
76.141870435
 20
181.233524989
 30
0
 11
77.535147151
 21
181.233524989
 31
0
  0
LINE
  5
1D2
100
AcDbEntity
  8
FACA_Pontes
  6
CONTINUOUS
 62
     4
420
 65535
 39
0.105833333
 60
     0
100
AcDbLine
 10
78.231785442
 20
182.276783408
 30
0
 11
78.928423801
 21
182.973421766
 31
0
  0
LINE
  5
1D3
100
AcDbEntity
  8
FACA_Pontes
  6
CONTINUOUS
 62
     4
420
 65535
 39
0.105833333
 60
     0
100
AcDbLine
 10
78.928423801
 20
182.973421766
 30
0
 11
79.625062159
 21
182.973421766
 31
0
  0
LINE
  5
1D4
100
AcDbEntity
  8
FACA_Pontes
  6
CONTINUOUS
 62
     4
420
 65535
 39
0.105833333
 60
     0
100
AcDbLine
 10
79.625062159
 20
182.973421766
 30
0
 11
80.318302281
 21
182.276783408
 31
0
  0
LINE
  5
1D5
100
AcDbEntity
  8
FACA_Pontes
  6
CONTINUOUS
 62
     4
420
 65535
 39
0.105833333
 60
     0
100
AcDbLine
 10
80.318302281
 20
182.276783408
 30
0
 11
80.318302281
 21
181.58014505
 31
0
  0
LINE
  5
1D6
100
AcDbEntity
  8
FACA_Pontes
  6
CONTINUOUS
 62
     4
420
 65535
 39
0.105833333
 60
     0
100
AcDbLine
 10
80.318302281
 20
181.58014505
 30
0
 11
79.625062159
 21
180.883506692
 31
0
  0
LINE
  5
1D7
100
AcDbEntity
  8
FACA_Pontes
  6
CONTINUOUS
 62
     4
420
 65535
 39
0.105833333
 60
     0
100
AcDbLine
 10
79.625062159
 20
180.883506692
 30
0
 11
78.928423801
 21
180.883506692
 31
0
  0
LINE
  5
1D8
100
AcDbEntity
  8
FACA_Pontes
  6
CONTINUOUS
 62
     4
420
 65535
 39
0.105833333
 60
     0
100
AcDbLine
 10
78.928423801
 20
180.883506692
 30
0
 11
78.231785442
 21
180.190266569
 31
0
  0
LINE
  5
1D9
100
AcDbEntity
  8
FACA_Pontes
  6
CONTINUOUS
 62
     4
420
 65535
 39
0.105833333
 60
     0
100
AcDbLine
 10
78.231785442
 20
180.190266569
 30
0
 11
78.231785442
 21
178.796989853
 31
0
  0
LINE
  5
1DA
100
AcDbEntity
  8
FACA_Pontes
  6
CONTINUOUS
 62
     4
420
 65535
 39
0.105833333
 60
     0
100
AcDbLine
 10
78.231785442
 20
178.796989853
 30
0
 11
80.318302281
 21
178.796989853
 31
0
  0
LINE
  5
1DB
100
AcDbEntity
  8
FACA_Pontes
  6
CONTINUOUS
 62
     4
420
 65535
 39
0.105833333
 60
     0
100
AcDbLine
 10
80.318302281
 20
178.796989853
 30
0
 11
80.318302281
 21
179.143609914
 31
0
  0
LINE
  5
1DC
100
AcDbEntity
  8
FACA_Pontes
  6
CONTINUOUS
 62
     4
420
 65535
 39
0.105833333
 60
     0
100
AcDbLine
 10
80.668320511
 20
180.883506692
 30
0
 11
82.061597228
 21
180.883506692
 31
0
  0
LINE
  5
1DD
100
AcDbEntity
  8
FACA_Pontes
  6
CONTINUOUS
 62
     4
420
 65535
 39
0.105833333
 60
     0
100
AcDbLine
 10
82.75483738
 20
182.276783408
 30
0
 11
83.451475738
 21
182.973421766
 31
0
  0
LINE
  5
1DE
100
AcDbEntity
  8
FACA_Pontes
  6
CONTINUOUS
 62
     4
420
 65535
 39
0.105833333
 60
     0
100
AcDbLine
 10
83.451475738
 20
182.973421766
 30
0
 11
83.451475738
 21
178.796989853
 31
0
  0
LINE
  5
1DF
100
AcDbEntity
  8
FACA_Pontes
  6
CONTINUOUS
 62
     4
420
 65535
 39
0.105833333
 60
     0
100
AcDbLine
 10
85.888010903
 20
178.796989853
 30
0
 11
85.888010903
 21
182.973421766
 31
0
  0
LINE
  5
1E0
100
AcDbEntity
  8
FACA_Pontes
  6
CONTINUOUS
 62
     4
420
 65535
 39
0.105833333
 60
     0
100
AcDbLine
 10
85.888010903
 20
182.973421766
 30
0
 11
84.148114126
 21
181.233524989
 31
0
  0
LINE
  5
1E1
100
AcDbEntity
  8
FACA_Pontes
  6
CONTINUOUS
 62
     4
420
 65535
 39
0.105833333
 60
     0
100
AcDbLine
 10
84.148114126
 20
181.233524989
 30
0
 11
84.148114126
 21
180.883506692
 31
0
  0
LINE
  5
1E2
100
AcDbEntity
  8
FACA_Pontes
  6
CONTINUOUS
 62
     4
420
 65535
 39
0.105833333
 60
     0
100
AcDbLine
 10
84.148114126
 20
180.883506692
 30
0
 11
86.234630964
 21
180.883506692
 31
0
  0
LINE
  5
1E3
100
AcDbEntity
  8
FACA_Pontes
  6
CONTINUOUS
 62
     4
420
 65535
 39
0.105833333
 60
     0
100
AcDbLine
 10
85.541390842
 20
178.796989853
 30
0
 11
86.234630964
 21
178.796989853
 31
0
  0
LINE
  5
1E4
100
AcDbEntity
  8
FACA_Pontes
  6
CONTINUOUS
 62
     4
420
 65535
 39
0.105833333
 60
     0
100
AcDbLine
 10
86.584649194
 20
182.276783408
 30
0
 11
87.281287553
 21
182.973421766
 31
0
  0
LINE
  5
1E5
100
AcDbEntity
  8
FACA_Pontes
  6
CONTINUOUS
 62
     4
420
 65535
 39
0.105833333
 60
     0
100
AcDbLine
 10
87.281287553
 20
182.973421766
 30
0
 11
87.977925911
 21
182.973421766
 31
0
  0
LINE
  5
1E6
100
AcDbEntity
  8
FACA_Pontes
  6
CONTINUOUS
 62
     4
420
 65535
 39
0.105833333
 60
     0
100
AcDbLine
 10
87.977925911
 20
182.973421766
 30
0
 11
88.671166033
 21
182.276783408
 31
0
  0
LINE
  5
1E7
100
AcDbEntity
  8
FACA_Pontes
  6
CONTINUOUS
 62
     4
420
 65535
 39
0.105833333
 60
     0
100
AcDbLine
 10
88.671166033
 20
182.276783408
 30
0
 11
88.671166033
 21
181.58014505
 31
0
  0
LINE
  5
1E8
100
AcDbEntity
  8
FACA_Pontes
  6
CONTINUOUS
 62
     4
420
 65535
 39
0.105833333
 60
     0
100
AcDbLine
 10
88.671166033
 20
181.58014505
 30
0
 11
87.977925911
 21
180.883506692
 31
0
  0
LINE
  5
1E9
100
AcDbEntity
  8
FACA_Pontes
  6
CONTINUOUS
 62
     4
420
 65535
 39
0.105833333
 60
     0
100
AcDbLine
 10
87.977925911
 20
180.883506692
 30
0
 11
88.671166033
 21
180.190266569
 31
0
  0
LINE
  5
1EA
100
AcDbEntity
  8
FACA_Pontes
  6
CONTINUOUS
 62
     4
420
 65535
 39
0.105833333
 60
     0
100
AcDbLine
 10
88.671166033
 20
180.190266569
 30
0
 11
88.671166033
 21
179.493628211
 31
0
  0
LINE
  5
1EB
100
AcDbEntity
  8
FACA_Pontes
  6
CONTINUOUS
 62
     4
420
 65535
 39
0.105833333
 60
     0
100
AcDbLine
 10
88.671166033
 20
179.493628211
 30
0
 11
87.977925911
 21
178.796989853
 31
0
  0
LINE
  5
1EC
100
AcDbEntity
  8
FACA_Pontes
  6
CONTINUOUS
 62
     4
420
 65535
 39
0.105833333
 60
     0
100
AcDbLine
 10
87.977925911
 20
178.796989853
 30
0
 11
87.281287553
 21
178.796989853
 31
0
  0
LINE
  5
1ED
100
AcDbEntity
  8
FACA_Pontes
  6
CONTINUOUS
 62
     4
420
 65535
 39
0.105833333
 60
     0
100
AcDbLine
 10
87.281287553
 20
178.796989853
 30
0
 11
86.584649194
 21
179.493628211
 31
0
  0
LINE
  5
1EE
100
AcDbEntity
  8
FACA_Pontes
  6
CONTINUOUS
 62
     4
420
 65535
 39
0.105833333
 60
     0
100
AcDbLine
 10
87.281287553
 20
180.883506692
 30
0
 11
87.977925911
 21
180.883506692
 31
0
  0
LINE
  5
1EF
100
AcDbEntity
  8
FACA_Pontes
  6
CONTINUOUS
 62
     4
420
 65535
 39
0.105833333
 60
     0
100
AcDbLine
 10
89.021184263
 20
179.493628211
 30
0
 11
89.021184263
 21
182.276783408
 31
0
  0
LINE
  5
1F0
100
AcDbEntity
  8
FACA_Pontes
  6
CONTINUOUS
 62
     4
420
 65535
 39
0.105833333
 60
     0
100
AcDbLine
 10
89.021184263
 20
182.276783408
 30
0
 11
89.717822622
 21
182.973421766
 31
0
  0
LINE
  5
1F1
100
AcDbEntity
  8
FACA_Pontes
  6
CONTINUOUS
 62
     4
420
 65535
 39
0.105833333
 60
     0
100
AcDbLine
 10
89.717822622
 20
182.973421766
 30
0
 11
90.41446098
 21
182.973421766
 31
0
  0
LINE
  5
1F2
100
AcDbEntity
  8
FACA_Pontes
  6
CONTINUOUS
 62
     4
420
 65535
 39
0.105833333
 60
     0
100
AcDbLine
 10
90.41446098
 20
182.973421766
 30
0
 11
91.107701102
 21
182.276783408
 31
0
  0
LINE
  5
1F3
100
AcDbEntity
  8
FACA_Pontes
  6
CONTINUOUS
 62
     4
420
 65535
 39
0.105833333
 60
     0
100
AcDbLine
 10
91.107701102
 20
182.276783408
 30
0
 11
91.107701102
 21
179.493628211
 31
0
  0
LINE
  5
1F4
100
AcDbEntity
  8
FACA_Pontes
  6
CONTINUOUS
 62
     4
420
 65535
 39
0.105833333
 60
     0
100
AcDbLine
 10
91.107701102
 20
179.493628211
 30
0
 11
90.41446098
 21
178.796989853
 31
0
  0
LINE
  5
1F5
100
AcDbEntity
  8
FACA_Pontes
  6
CONTINUOUS
 62
     4
420
 65535
 39
0.105833333
 60
     0
100
AcDbLine
 10
90.41446098
 20
178.796989853
 30
0
 11
89.717822622
 21
178.796989853
 31
0
  0
LINE
  5
1F6
100
AcDbEntity
  8
FACA_Pontes
  6
CONTINUOUS
 62
     4
420
 65535
 39
0.105833333
 60
     0
100
AcDbLine
 10
89.717822622
 20
178.796989853
 30
0
 11
89.021184263
 21
179.493628211
 31
0
  0
LINE
  5
1F7
100
AcDbEntity
  8
FACA_Pontes
  6
CONTINUOUS
 62
     4
420
 65535
 39
0.105833333
 60
     0
100
AcDbLine
 10
91.107701102
 20
182.276783408
 30
0
 11
90.237752713
 21
180.883506692
 31
0
  0
LINE
  5
1F8
100
AcDbEntity
  8
FACA_Pontes
  6
CONTINUOUS
 62
     4
420
 65535
 39
0.105833333
 60
     0
100
AcDbLine
 10
90.237752713
 20
180.883506692
 30
0
 11
89.891132652
 21
180.883506692
 31
0
  0
LINE
  5
1F9
100
AcDbEntity
  8
FACA_Pontes
  6
CONTINUOUS
 62
     4
420
 65535
 39
0.105833333
 60
     0
100
AcDbLine
 10
89.891132652
 20
180.883506692
 30
0
 11
89.021184263
 21
179.493628211
 31
0
  0
LINE
  5
1FA
100
AcDbEntity
  8
FACA_Pontes
  6
CONTINUOUS
 62
     4
420
 65535
 39
0.105833333
 60
     0
100
AcDbLine
 10
48.828513547
 20
192.953685225
 30
0
 11
45.168128967
 21
192.953685225
 31
0
  0
LINE
  5
1FB
100
AcDbEntity
  8
FACA_Pontes
  6
CONTINUOUS
 62
     4
420
 65535
 39
0.105833333
 60
     0
100
AcDbLine
 10
45.168128967
 20
192.953685225
 30
0
 11
45.168128967
 21
190.859708624
 31
0
  0
LINE
  5
1FC
100
AcDbEntity
  8
FACA_Pontes
  6
CONTINUOUS
 62
     4
420
 65535
 39
0.105833333
 60
     0
100
AcDbLine
 10
45.168128967
 20
190.859708624
 30
0
 11
48.828513547
 21
190.859708624
 31
0
  0
LINE
  5
1FD
100
AcDbEntity
  8
FACA_Pontes
  6
CONTINUOUS
 62
     4
420
 65535
 39
0.105833333
 60
     0
100
AcDbLine
 10
47.328705573
 20
189.131327823
 30
0
 11
45.168128967
 21
189.131327823
 31
0
  0
LINE
  5
1FE
100
AcDbEntity
  8
FACA_Pontes
  6
CONTINUOUS
 62
     4
420
 65535
 39
0.105833333
 60
     0
100
AcDbLine
 10
45.168128967
 20
189.131327823
 30
0
 11
45.168128967
 21
185.268728725
 31
0
  0
LINE
  5
1FF
100
AcDbEntity
  8
FACA_Pontes
  6
CONTINUOUS
 62
     4
420
 65535
 39
0.105833333
 60
     0
100
AcDbLine
 10
45.168128967
 20
185.268728725
 30
0
 11
43.385421877
 21
185.268728725
 31
0
  0
LINE
  5
200
100
AcDbEntity
  8
FACA_Pontes
  6
CONTINUOUS
 62
     4
420
 65535
 39
0.105833333
 60
     0
100
AcDbLine
 10
43.385421877
 20
185.268728725
 30
0
 11
43.385421877
 21
193.129139015
 31
0
  0
LINE
  5
201
100
AcDbEntity
  8
FACA_Pontes
  6
CONTINUOUS
 62
     4
420
 65535
 39
0.105833333
 60
     0
100
AcDbLine
 10
44.8840226
 20
194.723112555
 30
0
 11
48.828513547
 21
194.723112555
 31
0
  0
LINE
  5
202
100
AcDbEntity
  8
FACA_Pontes
  6
CONTINUOUS
 62
     4
420
 65535
 39
0.105833333
 60
     0
100
AcDbLine
 10
48.828513547
 20
194.723112555
 30
0
 11
48.828513547
 21
192.953685225
 31
0
  0
LINE
  5
203
100
AcDbEntity
  8
FACA_Pontes
  6
CONTINUOUS
 62
     4
420
 65535
 39
0.105833333
 60
     0
100
AcDbLine
 10
55.190745652
 20
186.983467592
 30
0
 11
55.190745652
 21
185.268768967
 31
0
  0
LINE
  5
204
100
AcDbEntity
  8
FACA_Pontes
  6
CONTINUOUS
 62
     4
420
 65535
 39
0.105833333
 60
     0
100
AcDbLine
 10
55.190745652
 20
185.268768967
 30
0
 11
50.165563985
 21
185.268768967
 31
0
  0
LINE
  5
205
100
AcDbEntity
  8
FACA_Pontes
  6
CONTINUOUS
 62
     4
420
 65535
 39
0.105833333
 60
     0
100
AcDbLine
 10
50.165563985
 20
185.268768967
 30
0
 11
50.165563985
 21
193.304834256
 31
0
  0
LINE
  5
206
100
AcDbEntity
  8
FACA_Pontes
  6
CONTINUOUS
 62
     4
420
 65535
 39
0.105833333
 60
     0
100
AcDbLine
 10
51.949478325
 20
194.723152797
 30
0
 11
51.949478325
 21
186.983467592
 31
0
  0
LINE
  5
207
100
AcDbEntity
  8
FACA_Pontes
  6
CONTINUOUS
 62
     4
420
 65535
 39
0.105833333
 60
     0
100
AcDbLine
 10
51.949478325
 20
186.983467592
 30
0
 11
55.190745652
 21
186.983467592
 31
0
  0
LINE
  5
208
100
AcDbEntity
  8
FACA_Pontes
  6
CONTINUOUS
 62
     4
420
 65535
 39
0.105833333
 60
     0
100
AcDbLine
 10
61.849277357
 20
192.953685225
 30
0
 11
58.188892777
 21
192.953685225
 31
0
  0
LINE
  5
209
100
AcDbEntity
  8
FACA_Pontes
  6
CONTINUOUS
 62
     4
420
 65535
 39
0.105833333
 60
     0
100
AcDbLine
 10
58.188892777
 20
192.953685225
 30
0
 11
58.188892777
 21
190.859708624
 31
0
  0
LINE
  5
20A
100
AcDbEntity
  8
FACA_Pontes
  6
CONTINUOUS
 62
     4
420
 65535
 39
0.105833333
 60
     0
100
AcDbLine
 10
58.188892777
 20
190.859708624
 30
0
 11
61.849277357
 21
190.859708624
 31
0
  0
LINE
  5
20B
100
AcDbEntity
  8
FACA_Pontes
  6
CONTINUOUS
 62
     4
420
 65535
 39
0.105833333
 60
     0
100
AcDbLine
 10
60.349469383
 20
189.131327823
 30
0
 11
58.188892777
 21
189.131327823
 31
0
  0
LINE
  5
20C
100
AcDbEntity
  8
FACA_Pontes
  6
CONTINUOUS
 62
     4
420
 65535
 39
0.105833333
 60
     0
100
AcDbLine
 10
58.188892777
 20
189.131327823
 30
0
 11
58.188892777
 21
185.268728725
 31
0
  0
LINE
  5
20D
100
AcDbEntity
  8
FACA_Pontes
  6
CONTINUOUS
 62
     4
420
 65535
 39
0.105833333
 60
     0
100
AcDbLine
 10
58.188892777
 20
185.268728725
 30
0
 11
56.406185687
 21
185.268728725
 31
0
  0
LINE
  5
20E
100
AcDbEntity
  8
FACA_Pontes
  6
CONTINUOUS
 62
     4
420
 65535
 39
0.105833333
 60
     0
100
AcDbLine
 10
56.406185687
 20
185.268728725
 30
0
 11
56.406185687
 21
193.129139015
 31
0
  0
LINE
  5
20F
100
AcDbEntity
  8
FACA_Pontes
  6
CONTINUOUS
 62
     4
420
 65535
 39
0.105833333
 60
     0
100
AcDbLine
 10
57.90478641
 20
194.723112555
 30
0
 11
61.849277357
 21
194.723112555
 31
0
  0
LINE
  5
210
100
AcDbEntity
  8
FACA_Pontes
  6
CONTINUOUS
 62
     4
420
 65535
 39
0.105833333
 60
     0
100
AcDbLine
 10
61.849277357
 20
194.723112555
 30
0
 11
61.849277357
 21
192.953685225
 31
0
  0
LINE
  5
211
100
AcDbEntity
  8
FACA_Pontes
  6
CONTINUOUS
 62
     4
420
 65535
 39
0.105833333
 60
     0
100
AcDbLine
 10
68.278330797
 20
192.264526077
 30
0
 11
70.034880785
 21
192.264526077
 31
0
  0
LINE
  5
212
100
AcDbEntity
  8
FACA_Pontes
  6
CONTINUOUS
 62
     4
420
 65535
 39
0.105833333
 60
     0
100
AcDbLine
 10
70.034880785
 20
192.264526077
 30
0
 11
70.034880785
 21
185.268708604
 31
0
  0
LINE
  5
213
100
AcDbEntity
  8
FACA_Pontes
  6
CONTINUOUS
 62
     4
420
 65535
 39
0.105833333
 60
     0
100
AcDbLine
 10
70.034880785
 20
185.268708604
 30
0
 11
68.278330797
 21
185.268708604
 31
0
  0
LINE
  5
214
100
AcDbEntity
  8
FACA_Pontes
  6
CONTINUOUS
 62
     4
420
 65535
 39
0.105833333
 60
     0
100
AcDbLine
 10
68.278330797
 20
185.268708604
 30
0
 11
68.278330797
 21
186.038331022
 31
0
  0
LINE
  5
215
100
AcDbEntity
  8
FACA_Pontes
  6
CONTINUOUS
 62
     4
420
 65535
 39
0.105833333
 60
     0
100
AcDbLine
 10
76.316528896
 20
187.537454887
 30
0
 11
77.599232925
 21
186.605859647
 31
0
  0
LINE
  5
216
100
AcDbEntity
  8
FACA_Pontes
  6
CONTINUOUS
 62
     4
420
 65535
 39
0.105833333
 60
     0
100
AcDbLine
 10
61.682656619
 20
184.466188601
 30
0
 11
61.369978649
 21
183.760751687
 31
0
  0
LINE
  5
217
100
AcDbEntity
  8
FACA_Pontes
  6
CONTINUOUS
 62
     4
420
 65535
 39
0.105833333
 60
     0
100
AcDbLine
 10
37.153130205
 20
190.277894197
 30
0
 11
37.162788212
 21
191.080514805
 31
0
  0
LINE
  5
218
100
AcDbEntity
  8
FACA_Pontes
  6
CONTINUOUS
 62
     4
420
 65535
 39
0.105833333
 60
     0
100
AcDbLine
 10
37.162788212
 20
191.080514805
 30
0
 11
37.165202714
 21
191.481322087
 31
0
  0
LINE
  5
219
100
AcDbEntity
  8
FACA_Pontes
  6
CONTINUOUS
 62
     4
420
 65535
 39
0.105833333
 60
     0
100
AcDbLine
 10
61.454486208
 20
196.412740605
 30
0
 11
61.764548468
 21
195.701066228
 31
0
  0
LINE
  5
21A
100
AcDbEntity
  8
FACA_Pontes
  6
CONTINUOUS
 62
     4
420
 65535
 39
0.105833333
 60
     0
100
AcDbLine
 10
61.764548468
 20
195.701066228
 30
0
 11
61.652676556
 21
195.647142357
 31
0
  0
LINE
  5
21B
100
AcDbEntity
  8
FACA_Pontes
  6
CONTINUOUS
 62
     4
420
 65535
 39
0.105833333
 60
     0
100
AcDbLine
 10
61.652676556
 20
195.647142357
 30
0
 11
61.248247521
 21
196.29724694
 31
0
  0
LINE
  5
21C
100
AcDbEntity
  8
FACA_Pontes
  6
CONTINUOUS
 62
     4
420
 65535
 39
0.105833333
 60
     0
100
AcDbLine
 10
38.159776206
 20
192.567847853
 30
0
 11
38.013698853
 21
191.819352325
 31
0
  0
LINE
  5
21D
100
AcDbEntity
  8
FACA_Pontes
  6
CONTINUOUS
 62
     4
420
 65535
 39
0.105833333
 60
     0
100
AcDbLine
 10
38.013698853
 20
191.819352325
 30
0
 11
37.939855343
 21
191.443092477
 31
0
  0
LINE
  5
21E
100
AcDbEntity
  8
FACA_Pontes
  6
CONTINUOUS
 62
     4
420
 65535
 39
0.105833333
 60
     0
100
AcDbLine
 10
37.939855343
 20
191.443092477
 30
0
 11
37.904442651
 21
191.043492445
 31
0
  0
LINE
  5
21F
100
AcDbEntity
  8
FACA_Pontes
  6
CONTINUOUS
 62
     4
420
 65535
 39
0.105833333
 60
     0
100
AcDbLine
 10
37.904442651
 20
191.043492445
 30
0
 11
37.8320076
 21
190.24449359
 31
0
  0
LINE
  5
220
100
AcDbEntity
  8
FACA_Pontes
  6
CONTINUOUS
 62
     4
420
 65535
 39
0.105833333
 60
     0
100
AcDbLine
 10
49.862664746
 20
178.006994132
 30
0
 11
50.195865981
 21
177.991903496
 31
0
  0
LINE
  5
221
100
AcDbEntity
  8
FACA_Pontes
  6
CONTINUOUS
 62
     4
420
 65535
 39
0.105833333
 60
     0
100
AcDbLine
 10
50.486612228
 20
178.000957878
 30
0
 11
51.113577836
 21
178.019267849
 31
0
  0
LINE
  5
222
100
AcDbEntity
  8
FACA_Pontes
  6
CONTINUOUS
 62
     4
420
 65535
 39
0.105833333
 60
     0
100
AcDbLine
 10
61.152673495
 20
183.880269522
 30
0
 11
61.573400417
 21
184.525545101
 31
0
  0
LINE
  5
223
100
AcDbEntity
  8
FACA_Pontes
  6
CONTINUOUS
 62
     4
420
 65535
 39
0.105833333
 60
     0
100
AcDbLine
 10
61.573400417
 20
184.525545101
 30
0
 11
61.682656619
 21
184.466188601
 31
0
  0
ARC
  5
224
100
AcDbEntity
  8
FACA_Pontes
  6
CONTINUOUS
 62
     4
420
 65535
 39
0.105833333
 60
     0
100
AcDbCircle
 10
46.104926973
 20
190.993365507
 30
0
 40
2.72686413
100
AcDbArc
 50
334.883285002
 51
357.190529283
  0
ARC
  5
225
100
AcDbEntity
  8
FACA_Pontes
  6
CONTINUOUS
 62
     4
420
 65535
 39
0.105833333
 60
     0
100
AcDbCircle
 10
47.389762458
 20
190.476105579
 30
0
 40
1.346163124
100
AcDbArc
 50
267.400387564
 51
331.603540148
  0
ARC
  5
226
100
AcDbEntity
  8
FACA_Pontes
  6
CONTINUOUS
 62
     4
420
 65535
 39
0.105833333
 60
     0
100
AcDbCircle
 10
46.039104496
 20
193.129139015
 30
0
 40
2.653682619
100
AcDbArc
 50
161.825060834
 51
180
  0
ARC
  5
227
100
AcDbEntity
  8
FACA_Pontes
  6
CONTINUOUS
 62
     4
420
 65535
 39
0.105833333
 60
     0
100
AcDbCircle
 10
44.70646029
 20
193.397446353
 30
0
 40
1.31370853
100
AcDbArc
 50
99.128986095
 51
154.796249766
  0
ARC
  5
228
100
AcDbEntity
  8
FACA_Pontes
  6
CONTINUOUS
 62
     4
420
 65535
 39
0.105833333
 60
     0
100
AcDbCircle
 10
44.858096288
 20
192.453808339
 30
0
 40
2.269452313
100
AcDbArc
 50
89.34543653
 51
99.128986095
  0
ARC
  5
229
100
AcDbEntity
  8
FACA_Pontes
  6
CONTINUOUS
 62
     4
420
 65535
 39
0.105833333
 60
     0
100
AcDbCircle
 10
51.642032521
 20
193.216250122
 30
0
 40
1.479123554
100
AcDbArc
 50
104.138810264
 51
176.566523465
  0
ARC
  5
22A
100
AcDbEntity
  8
FACA_Pontes
  6
CONTINUOUS
 62
     4
420
 65535
 39
0.105833333
 60
     0
100
AcDbCircle
 10
51.875179562
 20
192.290706697
 30
0
 40
2.433580559
100
AcDbArc
 50
88.250451509
 51
104.138810264
  0
ARC
  5
22B
100
AcDbEntity
  8
FACA_Pontes
  6
CONTINUOUS
 62
     4
420
 65535
 39
0.105833333
 60
     0
100
AcDbCircle
 10
59.189132182
 20
190.985132837
 30
0
 40
2.663100371
100
AcDbArc
 50
333.169613029
 51
357.300538317
  0
ARC
  5
22C
100
AcDbEntity
  8
FACA_Pontes
  6
CONTINUOUS
 62
     4
420
 65535
 39
0.105833333
 60
     0
100
AcDbCircle
 10
60.41953214
 20
190.460917587
 30
0
 40
1.331434463
100
AcDbArc
 50
266.983587741
 51
329.398894372
  0
ARC
  5
22D
100
AcDbEntity
  8
FACA_Pontes
  6
CONTINUOUS
 62
     4
420
 65535
 39
0.105833333
 60
     0
100
AcDbCircle
 10
59.059868306
 20
193.129139015
 30
0
 40
2.653682619
100
AcDbArc
 50
161.825060834
 51
180
  0
ARC
  5
22E
100
AcDbEntity
  8
FACA_Pontes
  6
CONTINUOUS
 62
     4
420
 65535
 39
0.105833333
 60
     0
100
AcDbCircle
 10
57.7272241
 20
193.397446353
 30
0
 40
1.31370853
100
AcDbArc
 50
99.128986095
 51
154.796249765
  0
ARC
  5
22F
100
AcDbEntity
  8
FACA_Pontes
  6
CONTINUOUS
 62
     4
420
 65535
 39
0.105833333
 60
     0
100
AcDbCircle
 10
57.878860098
 20
192.453808339
 30
0
 40
2.269452313
100
AcDbArc
 50
89.34543653
 51
99.128986095
  0
ARC
  5
230
100
AcDbEntity
  8
FACA_Pontes
  6
CONTINUOUS
 62
     4
420
 65535
 39
0.105833333
 60
     0
100
AcDbCircle
 10
65.997341301
 20
188.333815933
 30
0
 40
3.23607232
100
AcDbArc
 50
267.0175287
 51
314.818523328
  0
ARC
  5
231
100
AcDbEntity
  8
FACA_Pontes
  6
CONTINUOUS
 62
     4
420
 65535
 39
0.105833333
 60
     0
100
AcDbCircle
 10
66.180826614
 20
188.407235322
 30
0
 40
3.323785042
100
AcDbArc
 50
205.071817817
 51
263.923218881
  0
ARC
  5
232
100
AcDbEntity
  8
FACA_Pontes
  6
CONTINUOUS
 62
     4
420
 65535
 39
0.105833333
 60
     0
100
AcDbCircle
 10
66.779895335
 20
188.687500376
 30
0
 40
3.985171339
100
AcDbArc
 50
178.667130337
 51
205.071817817
  0
ARC
  5
233
100
AcDbEntity
  8
FACA_Pontes
  6
CONTINUOUS
 62
     4
420
 65535
 39
0.105833333
 60
     0
100
AcDbCircle
 10
66.706864222
 20
188.780198913
 30
0
 40
3.911061956
100
AcDbArc
 50
133.053184404
 51
180
  0
ARC
  5
234
100
AcDbEntity
  8
FACA_Pontes
  6
CONTINUOUS
 62
     4
420
 65535
 39
0.105833333
 60
     0
100
AcDbCircle
 10
66.164488496
 20
189.221113556
 30
0
 40
3.220020498
100
AcDbArc
 50
89.15599626
 51
131.356801761
  0
ARC
  5
235
100
AcDbEntity
  8
FACA_Pontes
  6
CONTINUOUS
 62
     4
420
 65535
 39
0.105833333
 60
     0
100
AcDbCircle
 10
66.121929933
 20
190.139080698
 30
0
 40
2.303462499
100
AcDbArc
 50
58.424952423
 51
87.761044704
  0
ARC
  5
236
100
AcDbEntity
  8
FACA_Pontes
  6
CONTINUOUS
 62
     4
420
 65535
 39
0.105833333
 60
     0
100
AcDbCircle
 10
66.417412845
 20
190.791479541
 30
0
 40
1.595461745
100
AcDbArc
 50
345.737670043
 51
55.195942585
  0
ARC
  5
237
100
AcDbEntity
  8
FACA_Pontes
  6
CONTINUOUS
 62
     4
420
 65535
 39
0.105833333
 60
     0
100
AcDbCircle
 10
67.153121335
 20
190.658282868
 30
0
 40
0.851214308
100
AcDbArc
 50
331.54012901
 51
342.22459735
  0
ARC
  5
238
100
AcDbEntity
  8
FACA_Pontes
  6
CONTINUOUS
 62
     4
420
 65535
 39
0.105833333
 60
     0
100
AcDbCircle
 10
66.869024219
 20
189.455496518
 30
0
 40
1.304369784
100
AcDbArc
 50
37.671615513
 51
69.281804725
  0
ARC
  5
239
100
AcDbEntity
  8
FACA_Pontes
  6
CONTINUOUS
 62
     4
420
 65535
 39
0.105833333
 60
     0
100
AcDbCircle
 10
66.532900425
 20
188.566824306
 30
0
 40
2.254484253
100
AcDbArc
 50
69.281804725
 51
92.328652708
  0
ARC
  5
23A
100
AcDbEntity
  8
FACA_Pontes
  6
CONTINUOUS
 62
     4
420
 65535
 39
0.105833333
 60
     0
100
AcDbCircle
 10
66.441297419
 20
188.958309694
 30
0
 40
1.861137115
100
AcDbArc
 50
90
 51
143.855175844
  0
ARC
  5
23B
100
AcDbEntity
  8
FACA_Pontes
  6
CONTINUOUS
 62
     4
420
 65535
 39
0.105833333
 60
     0
100
AcDbCircle
 10
66.971858903
 20
188.736179305
 30
0
 40
2.424281597
100
AcDbArc
 50
147.013431988
 51
194.002442368
  0
ARC
  5
23C
100
AcDbEntity
  8
FACA_Pontes
  6
CONTINUOUS
 62
     4
420
 65535
 39
0.105833333
 60
     0
100
AcDbCircle
 10
66.585255271
 20
188.639770689
 30
0
 40
2.025838389
100
AcDbArc
 50
194.002442368
 51
236.543737431
  0
ARC
  5
23D
100
AcDbEntity
  8
FACA_Pontes
  6
CONTINUOUS
 62
     4
420
 65535
 39
0.105833333
 60
     0
100
AcDbCircle
 10
66.385248106
 20
188.497351486
 30
0
 40
1.798924004
100
AcDbArc
 50
239.358871324
 51
271.785461117
  0
ARC
  5
23E
100
AcDbEntity
  8
FACA_Pontes
  6
CONTINUOUS
 62
     4
420
 65535
 39
0.105833333
 60
     0
100
AcDbCircle
 10
66.441297419
 20
188.361650426
 30
0
 40
1.662349564
100
AcDbArc
 50
270
 51
319.582181398
  0
ARC
  5
23F
100
AcDbEntity
  8
FACA_Pontes
  6
CONTINUOUS
 62
     4
420
 65535
 39
0.105833333
 60
     0
100
AcDbCircle
 10
65.30820905
 20
188.972117145
 30
0
 40
2.933252856
100
AcDbArc
 50
324.861160638
 51
347.654814308
  0
ARC
  5
240
100
AcDbEntity
  8
FACA_Pontes
  6
CONTINUOUS
 62
     4
420
 65535
 39
0.105833333
 60
     0
100
AcDbCircle
 10
63.72781692
 20
189.318004189
 30
0
 40
4.551052946
100
AcDbArc
 50
347.654814308
 51
0.88187757
  0
ARC
  5
241
100
AcDbEntity
  8
FACA_Pontes
  6
CONTINUOUS
 62
     4
420
 65535
 39
0.105833333
 60
     0
100
AcDbCircle
 10
74.834129748
 20
188.756519312
 30
0
 40
2.2044668
100
AcDbArc
 50
167.33418483
 51
221.721078323
  0
ARC
  5
242
100
AcDbEntity
  8
FACA_Pontes
  6
CONTINUOUS
 62
     4
420
 65535
 39
0.105833333
 60
     0
100
AcDbCircle
 10
74.510475139
 20
188.596499586
 30
0
 40
1.858877509
100
AcDbArc
 50
224.680027196
 51
273.170940832
  0
ARC
  5
243
100
AcDbEntity
  8
FACA_Pontes
  6
CONTINUOUS
 62
     4
420
 65535
 39
0.105833333
 60
     0
100
AcDbCircle
 10
74.613299153
 20
189.046132112
 30
0
 40
2.305663995
100
AcDbArc
 50
270
 51
306.415900154
  0
ARC
  5
244
100
AcDbEntity
  8
FACA_Pontes
  6
CONTINUOUS
 62
     4
420
 65535
 39
0.105833333
 60
     0
100
AcDbCircle
 10
74.687687245
 20
188.773964921
 30
0
 40
2.045013982
100
AcDbArc
 50
309.266651166
 51
322.79660945
  0
ARC
  5
245
100
AcDbEntity
  8
FACA_Pontes
  6
CONTINUOUS
 62
     4
420
 65535
 39
0.105833333
 60
     0
100
AcDbCircle
 10
74.795876529
 20
188.592255918
 30
0
 40
3.435778984
100
AcDbArc
 50
267.414112294
 51
324.679458262
  0
ARC
  5
246
100
AcDbEntity
  8
FACA_Pontes
  6
CONTINUOUS
 62
     4
420
 65535
 39
0.105833333
 60
     0
100
AcDbCircle
 10
74.640864715
 20
189.243071819
 30
0
 40
4.083096275
100
AcDbArc
 50
240.108962872
 51
270
  0
ARC
  5
247
100
AcDbEntity
  8
FACA_Pontes
  6
CONTINUOUS
 62
     4
420
 65535
 39
0.105833333
 60
     0
100
AcDbCircle
 10
74.634630133
 20
188.738631734
 30
0
 40
3.650948485
100
AcDbArc
 50
185.827778517
 51
236.245718881
  0
ARC
  5
248
100
AcDbEntity
  8
FACA_Pontes
  6
CONTINUOUS
 62
     4
420
 65535
 39
0.105833333
 60
     0
100
AcDbCircle
 10
74.768732255
 20
188.752319021
 30
0
 40
3.785747302
100
AcDbArc
 50
133.306185248
 51
185.827778517
  0
ARC
  5
249
100
AcDbEntity
  8
FACA_Pontes
  6
CONTINUOUS
 62
     4
420
 65535
 39
0.105833333
 60
     0
100
AcDbCircle
 10
74.496433857
 20
188.901370259
 30
0
 40
3.491831907
100
AcDbArc
 50
119.486791257
 51
131.732124892
  0
ARC
  5
24A
100
AcDbEntity
  8
FACA_Pontes
  6
CONTINUOUS
 62
     4
420
 65535
 39
0.105833333
 60
     0
100
AcDbCircle
 10
74.630027039
 20
188.707980403
 30
0
 40
3.725989174
100
AcDbArc
 50
80.871535913
 51
119.811221421
  0
ARC
  5
24B
100
AcDbEntity
  8
FACA_Pontes
  6
CONTINUOUS
 62
     4
420
 65535
 39
0.105833333
 60
     0
100
AcDbCircle
 10
74.76760744
 20
189.258291214
 30
0
 40
3.161193614
100
AcDbArc
 50
56.230086074
 51
81.751198542
  0
ARC
  5
24C
100
AcDbEntity
  8
FACA_Pontes
  6
CONTINUOUS
 62
     4
420
 65535
 39
0.105833333
 60
     0
100
AcDbCircle
 10
75.463153331
 20
190.474142003
 30
0
 40
1.766560901
100
AcDbArc
 50
8.010654863
 51
53.061308927
  0
ARC
  5
24D
100
AcDbEntity
  8
FACA_Pontes
  6
CONTINUOUS
 62
     4
420
 65535
 39
0.105833333
 60
     0
100
AcDbCircle
 10
76.017338529
 20
190.618531127
 30
0
 40
1.199465137
100
AcDbArc
 50
319.763587459
 51
4.868326081
  0
ARC
  5
24E
100
AcDbEntity
  8
FACA_Pontes
  6
CONTINUOUS
 62
     4
420
 65535
 39
0.105833333
 60
     0
100
AcDbCircle
 10
76.326831248
 20
190.433620962
 30
0
 40
0.845804757
100
AcDbArc
 50
295.697850953
 51
315.780121455
  0
ARC
  5
24F
100
AcDbEntity
  8
FACA_Pontes
  6
CONTINUOUS
 62
     4
420
 65535
 39
0.105833333
 60
     0
100
AcDbCircle
 10
75.248579241
 20
189.182671064
 30
0
 40
1.525448382
100
AcDbArc
 50
18.688990342
 51
57.770651491
  0
ARC
  5
250
100
AcDbEntity
  8
FACA_Pontes
  6
CONTINUOUS
 62
     4
420
 65535
 39
0.105833333
 60
     0
100
AcDbCircle
 10
74.789344437
 20
188.267904277
 30
0
 40
2.546122503
100
AcDbArc
 50
60.007537932
 51
97.837535669
  0
ARC
  5
251
100
AcDbEntity
  8
FACA_Pontes
  6
CONTINUOUS
 62
     4
420
 65535
 39
0.105833333
 60
     0
100
AcDbCircle
 10
74.748043555
 20
188.567946064
 30
0
 40
2.243251513
100
AcDbArc
 50
97.837535669
 51
138.93593315
  0
ARC
  5
252
100
AcDbEntity
  8
FACA_Pontes
  6
CONTINUOUS
 62
     4
420
 65535
 39
0.105833333
 60
     0
100
AcDbCircle
 10
74.557637968
 20
188.85468365
 30
0
 40
1.913502266
100
AcDbArc
 50
141.665217535
 51
168.386761421
  0
ARC
  5
253
100
AcDbEntity
  8
FACA_Pontes
  6
CONTINUOUS
 62
     4
420
 65535
 39
0.105833333
 60
     0
100
AcDbCircle
 10
81.66011654
 20
188.407235322
 30
0
 40
3.323785042
100
AcDbArc
 50
205.071817817
 51
263.923218881
  0
ARC
  5
254
100
AcDbEntity
  8
FACA_Pontes
  6
CONTINUOUS
 62
     4
420
 65535
 39
0.105833333
 60
     0
100
AcDbCircle
 10
82.259185261
 20
188.687500376
 30
0
 40
3.985171339
100
AcDbArc
 50
178.667130337
 51
205.071817817
  0
ARC
  5
255
100
AcDbEntity
  8
FACA_Pontes
  6
CONTINUOUS
 62
     4
420
 65535
 39
0.105833333
 60
     0
100
AcDbCircle
 10
82.186154149
 20
188.780198913
 30
0
 40
3.911061956
100
AcDbArc
 50
133.053184404
 51
180
  0
ARC
  5
256
100
AcDbEntity
  8
FACA_Pontes
  6
CONTINUOUS
 62
     4
420
 65535
 39
0.105833333
 60
     0
100
AcDbCircle
 10
81.643778423
 20
189.221113556
 30
0
 40
3.220020498
100
AcDbArc
 50
89.15599626
 51
131.356801761
  0
ARC
  5
257
100
AcDbEntity
  8
FACA_Pontes
  6
CONTINUOUS
 62
     4
420
 65535
 39
0.105833333
 60
     0
100
AcDbCircle
 10
81.60121986
 20
190.139080698
 30
0
 40
2.303462499
100
AcDbArc
 50
58.424952423
 51
87.761044704
  0
ARC
  5
258
100
AcDbEntity
  8
FACA_Pontes
  6
CONTINUOUS
 62
     4
420
 65535
 39
0.105833333
 60
     0
100
AcDbCircle
 10
82.01317367
 20
188.569607805
 30
0
 40
2.251735009
100
AcDbArc
 50
69.266558787
 51
92.351414967
  0
ARC
  5
259
100
AcDbEntity
  8
FACA_Pontes
  6
CONTINUOUS
 62
     4
420
 65535
 39
0.105833333
 60
     0
100
AcDbCircle
 10
81.920788554
 20
188.958072748
 30
0
 40
1.86137406
100
AcDbArc
 50
90
 51
143.851471128
  0
ARC
  5
25A
100
AcDbEntity
  8
FACA_Pontes
  6
CONTINUOUS
 62
     4
420
 65535
 39
0.105833333
 60
     0
100
AcDbCircle
 10
82.451027496
 20
188.736182859
 30
0
 40
2.424110065
100
AcDbArc
 50
147.010900528
 51
194.003539963
  0
ARC
  5
25B
100
AcDbEntity
  8
FACA_Pontes
  6
CONTINUOUS
 62
     4
420
 65535
 39
0.105833333
 60
     0
100
AcDbCircle
 10
82.064550873
 20
188.639798051
 30
0
 40
2.025795853
100
AcDbArc
 50
194.003539962
 51
236.546961968
  0
ARC
  5
25C
100
AcDbEntity
  8
FACA_Pontes
  6
CONTINUOUS
 62
     4
420
 65535
 39
0.105833333
 60
     0
100
AcDbCircle
 10
81.864726017
 20
188.497582002
 30
0
 40
1.79915482
100
AcDbArc
 50
239.360866349
 51
271.785653337
  0
ARC
  5
25D
100
AcDbEntity
  8
FACA_Pontes
  6
CONTINUOUS
 62
     4
420
 65535
 39
0.105833333
 60
     0
100
AcDbCircle
 10
81.920788554
 20
188.361308911
 30
0
 40
1.662008049
100
AcDbArc
 50
270
 51
319.587618997
  0
ARC
  5
25E
100
AcDbEntity
  8
FACA_Pontes
  6
CONTINUOUS
 62
     4
420
 65535
 39
0.105833333
 60
     0
100
AcDbCircle
 10
50.181109291
 20
189.295512396
 30
0
 40
12.482963334
100
AcDbArc
 50
323.531222888
 51
333.679931956
  0
ARC
  5
25F
100
AcDbEntity
  8
FACA_Pontes
  6
CONTINUOUS
 62
     4
420
 65535
 39
0.105833333
 60
     0
100
AcDbCircle
 10
50.878397447
 20
188.691644233
 30
0
 40
11.563506533
100
AcDbArc
 50
306.696465516
 51
323.883823556
  0
ARC
  5
260
100
AcDbEntity
  8
FACA_Pontes
  6
CONTINUOUS
 62
     4
420
 65535
 39
0.105833333
 60
     0
100
AcDbCircle
 10
50.177246465
 20
189.504464441
 30
0
 40
12.634458141
100
AcDbArc
 50
286.445192083
 51
307.043250233
  0
ARC
  5
261
100
AcDbEntity
  8
FACA_Pontes
  6
CONTINUOUS
 62
     4
420
 65535
 39
0.105833333
 60
     0
100
AcDbCircle
 10
50.280751846
 20
189.01708313
 30
0
 40
12.137774667
100
AcDbArc
 50
274.309596557
 51
286.627900365
  0
ARC
  5
262
100
AcDbEntity
  8
FACA_Pontes
  6
CONTINUOUS
 62
     4
420
 65535
 39
0.105833333
 60
     0
100
AcDbCircle
 10
50.570874075
 20
189.859307591
 30
0
 40
13.013091326
100
AcDbArc
 50
237.482410504
 51
260.510437495
  0
ARC
  5
263
100
AcDbEntity
  8
FACA_Pontes
  6
CONTINUOUS
 62
     4
420
 65535
 39
0.105833333
 60
     0
100
AcDbCircle
 10
51.278459522
 20
190.969242176
 30
0
 40
14.329386106
100
AcDbArc
 50
234.402344307
 51
237.482410504
  0
ARC
  5
264
100
AcDbEntity
  8
FACA_Pontes
  6
CONTINUOUS
 62
     4
420
 65535
 39
0.105833333
 60
     0
100
AcDbCircle
 10
51.943399682
 20
191.26326253
 30
0
 40
14.960080765
100
AcDbArc
 50
208.87064976
 51
232.98692193
  0
ARC
  5
265
100
AcDbEntity
  8
FACA_Pontes
  6
CONTINUOUS
 62
     4
420
 65535
 39
0.105833333
 60
     0
100
AcDbCircle
 10
52.438249961
 20
191.117235562
 30
0
 40
15.327310109
100
AcDbArc
 50
186.253769527
 51
207.499335504
  0
ARC
  5
266
100
AcDbEntity
  8
FACA_Pontes
  6
CONTINUOUS
 62
     4
420
 65535
 39
0.105833333
 60
     0
100
AcDbCircle
 10
49.994528192
 20
190.619439917
 30
0
 40
12.84593927
100
AcDbArc
 50
181.523550297
 51
185.233960256
  0
ARC
  5
267
100
AcDbEntity
  8
FACA_Pontes
  6
CONTINUOUS
 62
     4
420
 65535
 39
0.105833333
 60
     0
100
AcDbCircle
 10
48.587966957
 20
190.745550329
 30
0
 40
11.455644722
100
AcDbArc
 50
167.313106157
 51
170.008949277
  0
LINE
  5
268
100
AcDbEntity
  8
FACA_Pontes
  6
CONTINUOUS
 62
     4
420
 65535
 39
0.105833333
 60
     0
100
AcDbLine
 10
37.412014008
 20
193.261473955
 30
0
 11
37.474258931
 21
193.545117417
 31
0
  0
ARC
  5
269
100
AcDbEntity
  8
FACA_Pontes
  6
CONTINUOUS
 62
     4
420
 65535
 39
0.105833333
 60
     0
100
AcDbCircle
 10
49.063747789
 20
190.984516592
 30
0
 40
11.868990208
100
AcDbArc
 50
151.575992168
 51
167.541129676
  0
ARC
  5
26A
100
AcDbEntity
  8
FACA_Pontes
  6
CONTINUOUS
 62
     4
420
 65535
 39
0.105833333
 60
     0
100
AcDbCircle
 10
50.622732286
 20
190.068498265
 30
0
 40
13.676203507
100
AcDbArc
 50
124.216846974
 51
151.309851069
  0
ARC
  5
26B
100
AcDbEntity
  8
FACA_Pontes
  6
CONTINUOUS
 62
     4
420
 65535
 39
0.105833333
 60
     0
100
AcDbCircle
 10
50.051912846
 20
190.650044409
 30
0
 40
12.875143726
100
AcDbArc
 50
96.534055986
 51
123.571565566
  0
ARC
  5
26C
100
AcDbEntity
  8
FACA_Pontes
  6
CONTINUOUS
 62
     4
420
 65535
 39
0.105833333
 60
     0
100
AcDbCircle
 10
50.072854654
 20
188.730254844
 30
0
 40
14.786167273
100
AcDbArc
 50
84.960423354
 51
95.768131036
  0
ARC
  5
26D
100
AcDbEntity
  8
FACA_Pontes
  6
CONTINUOUS
 62
     4
420
 65535
 39
0.105833333
 60
     0
100
AcDbCircle
 10
50.072885696
 20
190.699234645
 30
0
 40
12.825962181
100
AcDbArc
 50
72.415324648
 51
84.187883769
  0
ARC
  5
26E
100
AcDbEntity
  8
FACA_Pontes
  6
CONTINUOUS
 62
     4
420
 65535
 39
0.105833333
 60
     0
100
AcDbCircle
 10
49.933190684
 20
190.595605477
 30
0
 40
12.967352926
100
AcDbArc
 50
51.882869411
 51
71.965258146
  0
ARC
  5
26F
100
AcDbEntity
  8
FACA_Pontes
  6
CONTINUOUS
 62
     4
420
 65535
 39
0.105833333
 60
     0
100
AcDbCircle
 10
49.969149464
 20
190.753296737
 30
0
 40
12.821278857
100
AcDbArc
 50
36.097626572
 51
51.574307409
  0
ARC
  5
270
100
AcDbEntity
  8
FACA_Pontes
  6
CONTINUOUS
 62
     4
420
 65535
 39
0.105833333
 60
     0
100
AcDbCircle
 10
49.917001561
 20
190.839218168
 30
0
 40
12.813184785
100
AcDbArc
 50
25.78423638
 51
35.649791492
  0
ARC
  5
271
100
AcDbEntity
  8
FACA_Pontes
  6
CONTINUOUS
 62
     4
420
 65535
 39
0.105833333
 60
     0
100
AcDbCircle
 10
49.048540599
 20
188.282151632
 30
0
 40
14.597075111
100
AcDbArc
 50
33.304546062
 51
41.720418825
  0
ARC
  5
272
100
AcDbEntity
  8
FACA_Pontes
  6
CONTINUOUS
 62
     4
420
 65535
 39
0.105833333
 60
     0
100
AcDbCircle
 10
49.646163918
 20
188.634675332
 30
0
 40
13.917056015
100
AcDbArc
 50
42.274535988
 51
55.818839479
  0
ARC
  5
273
100
AcDbEntity
  8
FACA_Pontes
  6
CONTINUOUS
 62
     4
420
 65535
 39
0.105833333
 60
     0
100
AcDbCircle
 10
50.016037038
 20
188.643210524
 30
0
 40
13.705506021
100
AcDbArc
 50
57.078055532
 51
74.682748711
  0
ARC
  5
274
100
AcDbEntity
  8
FACA_Pontes
  6
CONTINUOUS
 62
     4
420
 65535
 39
0.105833333
 60
     0
100
AcDbCircle
 10
50.25383627
 20
188.400722916
 30
0
 40
13.879663692
100
AcDbArc
 50
75.89404028
 51
85.668560901
  0
ARC
  5
275
100
AcDbEntity
  8
FACA_Pontes
  6
CONTINUOUS
 62
     4
420
 65535
 39
0.105833333
 60
     0
100
AcDbCircle
 10
50.462635323
 20
188.918371766
 30
0
 40
13.348794789
100
AcDbArc
 50
86.394421577
 51
97.398376554
  0
ARC
  5
276
100
AcDbEntity
  8
FACA_Pontes
  6
CONTINUOUS
 62
     4
420
 65535
 39
0.105833333
 60
     0
100
AcDbCircle
 10
50.538618436
 20
189.258196885
 30
0
 40
13.022127668
100
AcDbArc
 50
97.922448856
 51
122.019124426
  0
ARC
  5
277
100
AcDbEntity
  8
FACA_Pontes
  6
CONTINUOUS
 62
     4
420
 65535
 39
0.105833333
 60
     0
100
AcDbCircle
 10
50.443402669
 20
189.680207461
 30
0
 40
12.614644232
100
AcDbArc
 50
122.668737171
 51
144.634819514
  0
ARC
  5
278
100
AcDbEntity
  8
FACA_Pontes
  6
CONTINUOUS
 62
     4
420
 65535
 39
0.105833333
 60
     0
100
AcDbCircle
 10
51.394830169
 20
189.004932966
 30
0
 40
13.781353249
100
AcDbArc
 50
144.634819514
 51
149.014516635
  0
ARC
  5
279
100
AcDbEntity
  8
FACA_Pontes
  6
CONTINUOUS
 62
     4
420
 65535
 39
0.105833333
 60
     0
100
AcDbCircle
 10
52.044535661
 20
189.060063499
 30
0
 40
14.315052947
100
AcDbArc
 50
150.542627245
 51
162.740707686
  0
ARC
  5
27A
100
AcDbEntity
  8
FACA_Pontes
  6
CONTINUOUS
 62
     4
420
 65535
 39
0.105833333
 60
     0
100
AcDbCircle
 10
23.433837949
 20
197.650933709
 30
0
 40
15.558842531
100
AcDbArc
 50
342.79660519
 51
343.789009103
  0
ARC
  5
27B
100
AcDbEntity
  8
FACA_Pontes
  6
CONTINUOUS
 62
     4
420
 65535
 39
0.105833333
 60
     0
100
AcDbCircle
 10
48.547734091
 20
189.875253598
 30
0
 40
10.731250292
100
AcDbArc
 50
162.79660519
 51
165.468542581
  0
ARC
  5
27C
100
AcDbEntity
  8
FACA_Pontes
  6
CONTINUOUS
 62
     4
420
 65535
 39
0.105833333
 60
     0
100
AcDbCircle
 10
49.644222865
 20
189.717369429
 30
0
 40
11.823970963
100
AcDbArc
 50
177.444851397
 51
207.707565871
  0
ARC
  5
27D
100
AcDbEntity
  8
FACA_Pontes
  6
CONTINUOUS
 62
     4
420
 65535
 39
0.105833333
 60
     0
100
AcDbCircle
 10
49.355117988
 20
189.761291842
 30
0
 40
11.589735073
100
AcDbArc
 50
208.564373834
 51
238.562671817
  0
ARC
  5
27E
100
AcDbEntity
  8
FACA_Pontes
  6
CONTINUOUS
 62
     4
420
 65535
 39
0.105833333
 60
     0
100
AcDbCircle
 10
49.893220315
 20
190.73977957
 30
0
 40
12.705350694
100
AcDbArc
 50
238.793700992
 51
263.881937463
  0
ARC
  5
27F
100
AcDbEntity
  8
FACA_Pontes
  6
CONTINUOUS
 62
     4
420
 65535
 39
0.105833333
 60
     0
100
AcDbCircle
 10
50.003568692
 20
189.448477025
 30
0
 40
11.435838747
100
AcDbArc
 50
262.642600636
 51
267.613192184
  0
LINE
  5
280
100
AcDbEntity
  8
FACA_Pontes
  6
CONTINUOUS
 62
     4
420
 65535
 39
0.105833333
 60
     0
100
AcDbLine
 10
49.52731624
 20
178.022559494
 30
0
 11
49.862664746
 21
178.006994132
 31
0
  0
ARC
  5
281
100
AcDbEntity
  8
FACA_Pontes
  6
CONTINUOUS
 62
     4
420
 65535
 39
0.105833333
 60
     0
100
AcDbCircle
 10
50.178180415
 20
182.110595697
 30
0
 40
4.118730172
100
AcDbArc
 50
270.246025198
 51
272.650434256
  0
LINE
  5
282
100
AcDbEntity
  8
FACA_Pontes
  6
CONTINUOUS
 62
     4
420
 65535
 39
0.105833333
 60
     0
100
AcDbLine
 10
50.368640005
 20
177.996271528
 30
0
 11
50.486612228
 21
178.000957878
 31
0
  0
ARC
  5
283
100
AcDbEntity
  8
FACA_Pontes
  6
CONTINUOUS
 62
     4
420
 65535
 39
0.105833333
 60
     0
100
AcDbCircle
 10
49.80115589
 20
193.467855133
 30
0
 40
15.50423492
100
AcDbArc
 50
274.855856013
 51
283.697702018
  0
ARC
  5
284
100
AcDbEntity
  8
FACA_Pontes
  6
CONTINUOUS
 62
     4
420
 65535
 39
0.105833333
 60
     0
100
AcDbCircle
 10
50.549109211
 20
190.247287469
 30
0
 40
12.198202884
100
AcDbArc
 50
283.866549081
 51
303.66946607
  0
ARC
  5
285
100
AcDbEntity
  8
FACA_Pontes
  6
CONTINUOUS
 62
     4
420
 65535
 39
0.105833333
 60
     0
100
AcDbCircle
 10
49.972282999
 20
191.343277304
 30
0
 40
13.430738824
100
AcDbArc
 50
303.12530843
 51
317.145030083
  0
ARC
  5
286
100
AcDbEntity
  8
FACA_Pontes
  6
CONTINUOUS
 62
     4
420
 65535
 39
0.105833333
 60
     0
100
AcDbCircle
 10
50.922824098
 20
190.678039813
 30
0
 40
12.282487518
100
AcDbArc
 50
316.404070489
 51
326.395824699
  0
LINE
  5
287
100
AcDbEntity
  8
FACA_Pontes
  6
CONTINUOUS
 62
     4
420
 65535
 39
0.105833333
 60
     0
100
AcDbLine
 10
68.278330797
 20
189.388049716
 30
0
 11
68.278330797
 21
192.264526077
 31
0
  0
LINE
  5
288
100
AcDbEntity
  8
FACA_Pontes
  6
CONTINUOUS
 62
     4
420
 65535
 39
0.105833333
 60
     0
100
AcDbLine
 10
37.165202714
 20
191.481322087
 30
0
 11
37.306048646
 21
192.733040011
 31
0
  0
LINE
  5
289
100
AcDbEntity
  8
FACA_Pontes
  6
CONTINUOUS
 62
     4
420
 65535
 39
0.105833333
 60
     0
100
AcDbLine
 10
46.945372196
 20
26.586537335
 30
0
 11
42.948627046
 21
26.586537335
 31
0
  0
LINE
  5
28A
100
AcDbEntity
  8
FACA_Pontes
  6
CONTINUOUS
 62
     4
420
 65535
 39
0.105833333
 60
     0
100
AcDbLine
 10
42.948627046
 20
34.586537335
 30
0
 11
46.945372196
 21
34.586537335
 31
0
  0
LINE
  5
28B
100
AcDbEntity
  8
FACA_Pontes
  6
CONTINUOUS
 62
     4
420
 65535
 39
0.105833333
 60
     0
100
AcDbLine
 10
42.948627046
 20
30.583282485
 30
0
 11
46.281417776
 21
30.583282485
 31
0
  0
LINE
  5
28C
100
AcDbEntity
  8
FACA_Pontes
  6
CONTINUOUS
 62
     4
420
 65535
 39
0.105833333
 60
     0
100
AcDbLine
 10
47.615835995
 20
34.586537335
 30
0
 11
47.615835995
 21
27.920955489
 31
0
  0
LINE
  5
28D
100
AcDbEntity
  8
FACA_Pontes
  6
CONTINUOUS
 62
     4
420
 65535
 39
0.105833333
 60
     0
100
AcDbLine
 10
47.615835995
 20
27.920955489
 30
0
 11
49.61420857
 21
26.586537335
 31
0
  0
LINE
  5
28E
100
AcDbEntity
  8
FACA_Pontes
  6
CONTINUOUS
 62
     4
420
 65535
 39
0.105833333
 60
     0
100
AcDbLine
 10
49.61420857
 20
26.586537335
 30
0
 11
51.612581144
 21
27.920955489
 31
0
  0
LINE
  5
28F
100
AcDbEntity
  8
FACA_Pontes
  6
CONTINUOUS
 62
     4
420
 65535
 39
0.105833333
 60
     0
100
AcDbLine
 10
51.612581144
 20
27.920955489
 30
0
 11
51.612581144
 21
34.586537335
 31
0
  0
LINE
  5
290
100
AcDbEntity
  8
FACA_Pontes
  6
CONTINUOUS
 62
     4
420
 65535
 39
0.105833333
 60
     0
100
AcDbLine
 10
52.816812276
 20
26.586537335
 30
0
 11
52.816812276
 21
31.917700768
 31
0
  0
LINE
  5
291
100
AcDbEntity
  8
FACA_Pontes
  6
CONTINUOUS
 62
     4
420
 65535
 39
0.105833333
 60
     0
100
AcDbLine
 10
52.816812276
 20
31.917700768
 30
0
 11
54.815184851
 21
34.586537335
 31
0
  0
LINE
  5
292
100
AcDbEntity
  8
FACA_Pontes
  6
CONTINUOUS
 62
     4
420
 65535
 39
0.105833333
 60
     0
100
AcDbLine
 10
54.815184851
 20
34.586537335
 30
0
 11
56.813557426
 21
31.917700768
 31
0
  0
LINE
  5
293
100
AcDbEntity
  8
FACA_Pontes
  6
CONTINUOUS
 62
     4
420
 65535
 39
0.105833333
 60
     0
100
AcDbLine
 10
56.813557426
 20
31.917700768
 30
0
 11
56.813557426
 21
26.586537335
 31
0
  0
LINE
  5
294
100
AcDbEntity
  8
FACA_Pontes
  6
CONTINUOUS
 62
     4
420
 65535
 39
0.105833333
 60
     0
100
AcDbLine
 10
52.816812276
 20
30.583282485
 30
0
 11
56.813557426
 21
30.583282485
 31
0
  0
LINE
  5
295
100
AcDbEntity
  8
FACA_Pontes
  6
CONTINUOUS
 62
     4
420
 65535
 39
0.105833333
 60
     0
100
AcDbLine
 10
66.681742891
 20
28.98849009
 30
0
 11
66.681742891
 21
28.187839172
 31
0
  0
LINE
  5
296
100
AcDbEntity
  8
FACA_Pontes
  6
CONTINUOUS
 62
     4
420
 65535
 39
0.105833333
 60
     0
100
AcDbLine
 10
66.681742891
 20
28.187839172
 30
0
 11
65.353834051
 21
26.586537335
 31
0
  0
LINE
  5
297
100
AcDbEntity
  8
FACA_Pontes
  6
CONTINUOUS
 62
     4
420
 65535
 39
0.105833333
 60
     0
100
AcDbLine
 10
65.353834051
 20
26.586537335
 30
0
 11
62.684997742
 21
26.586537335
 31
0
  0
LINE
  5
298
100
AcDbEntity
  8
FACA_Pontes
  6
CONTINUOUS
 62
     4
420
 65535
 39
0.105833333
 60
     0
100
AcDbLine
 10
62.684997742
 20
26.586537335
 30
0
 11
62.684997742
 21
34.586537335
 31
0
  0
LINE
  5
299
100
AcDbEntity
  8
FACA_Pontes
  6
CONTINUOUS
 62
     4
420
 65535
 39
0.105833333
 60
     0
100
AcDbLine
 10
62.684997742
 20
34.586537335
 30
0
 11
65.353834051
 21
34.586537335
 31
0
  0
LINE
  5
29A
100
AcDbEntity
  8
FACA_Pontes
  6
CONTINUOUS
 62
     4
420
 65535
 39
0.105833333
 60
     0
100
AcDbLine
 10
65.353834051
 20
34.586537335
 30
0
 11
66.681742891
 21
32.985235498
 31
0
  0
LINE
  5
29B
100
AcDbEntity
  8
FACA_Pontes
  6
CONTINUOUS
 62
     4
420
 65535
 39
0.105833333
 60
     0
100
AcDbLine
 10
66.681742891
 20
32.985235498
 30
0
 11
66.681742891
 21
32.184584579
 31
0
  0
LINE
  5
29C
100
AcDbEntity
  8
FACA_Pontes
  6
CONTINUOUS
 62
     4
420
 65535
 39
0.105833333
 60
     0
100
AcDbLine
 10
66.681742891
 20
32.184584579
 30
0
 11
65.353834051
 21
30.583282485
 31
0
  0
LINE
  5
29D
100
AcDbEntity
  8
FACA_Pontes
  6
CONTINUOUS
 62
     4
420
 65535
 39
0.105833333
 60
     0
100
AcDbLine
 10
65.353834051
 20
30.583282485
 30
0
 11
62.684997742
 21
30.583282485
 31
0
  0
LINE
  5
29E
100
AcDbEntity
  8
FACA_Pontes
  6
CONTINUOUS
 62
     4
420
 65535
 39
0.105833333
 60
     0
100
AcDbLine
 10
65.353834051
 20
30.583282485
 30
0
 11
66.681742891
 21
28.98849009
 31
0
  0
LINE
  5
29F
100
AcDbEntity
  8
FACA_Pontes
  6
CONTINUOUS
 62
     4
420
 65535
 39
0.105833333
 60
     0
100
AcDbLine
 10
67.885974023
 20
27.920955489
 30
0
 11
67.885974023
 21
33.252118794
 31
0
  0
LINE
  5
2A0
100
AcDbEntity
  8
FACA_Pontes
  6
CONTINUOUS
 62
     4
420
 65535
 39
0.105833333
 60
     0
100
AcDbLine
 10
67.885974023
 20
33.252118794
 30
0
 11
69.220392178
 21
34.586537335
 31
0
  0
LINE
  5
2A1
100
AcDbEntity
  8
FACA_Pontes
  6
CONTINUOUS
 62
     4
420
 65535
 39
0.105833333
 60
     0
100
AcDbLine
 10
69.220392178
 20
34.586537335
 30
0
 11
70.554810332
 21
34.586537335
 31
0
  0
LINE
  5
2A2
100
AcDbEntity
  8
FACA_Pontes
  6
CONTINUOUS
 62
     4
420
 65535
 39
0.105833333
 60
     0
100
AcDbLine
 10
70.554810332
 20
34.586537335
 30
0
 11
71.882719173
 21
33.252118794
 31
0
  0
LINE
  5
2A3
100
AcDbEntity
  8
FACA_Pontes
  6
CONTINUOUS
 62
     4
420
 65535
 39
0.105833333
 60
     0
100
AcDbLine
 10
71.882719173
 20
33.252118794
 30
0
 11
71.882719173
 21
27.920955489
 31
0
  0
LINE
  5
2A4
100
AcDbEntity
  8
FACA_Pontes
  6
CONTINUOUS
 62
     4
420
 65535
 39
0.105833333
 60
     0
100
AcDbLine
 10
71.882719173
 20
27.920955489
 30
0
 11
70.554810332
 21
26.586537335
 31
0
  0
LINE
  5
2A5
100
AcDbEntity
  8
FACA_Pontes
  6
CONTINUOUS
 62
     4
420
 65535
 39
0.105833333
 60
     0
100
AcDbLine
 10
70.554810332
 20
26.586537335
 30
0
 11
69.220392178
 21
26.586537335
 31
0
  0
LINE
  5
2A6
100
AcDbEntity
  8
FACA_Pontes
  6
CONTINUOUS
 62
     4
420
 65535
 39
0.105833333
 60
     0
100
AcDbLine
 10
69.220392178
 20
26.586537335
 30
0
 11
67.885974023
 21
27.920955489
 31
0
  0
LINE
  5
2A7
100
AcDbEntity
  8
FACA_Pontes
  6
CONTINUOUS
 62
     4
420
 65535
 39
0.105833333
 60
     0
100
AcDbLine
 10
72.553182971
 20
34.586537335
 30
0
 11
72.553182971
 21
26.586537335
 31
0
  0
LINE
  5
2A8
100
AcDbEntity
  8
FACA_Pontes
  6
CONTINUOUS
 62
     4
420
 65535
 39
0.105833333
 60
     0
100
AcDbLine
 10
72.553182971
 20
26.586537335
 30
0
 11
76.549928121
 21
26.586537335
 31
0
  0
LINE
  5
2A9
100
AcDbEntity
  8
FACA_Pontes
  6
CONTINUOUS
 62
     4
420
 65535
 39
0.105833333
 60
     0
100
AcDbLine
 10
76.549928121
 20
26.586537335
 30
0
 11
76.549928121
 21
27.920955489
 31
0
  0
LINE
  5
2AA
100
AcDbEntity
  8
FACA_Pontes
  6
CONTINUOUS
 62
     4
420
 65535
 39
0.105833333
 60
     0
100
AcDbLine
 10
79.218764495
 20
26.586537335
 30
0
 11
79.218764495
 21
34.586537335
 31
0
  0
LINE
  5
2AB
100
AcDbEntity
  8
FACA_Pontes
  6
CONTINUOUS
 62
     4
420
 65535
 39
0.105833333
 60
     0
100
AcDbLine
 10
78.554810074
 20
26.586537335
 30
0
 11
79.889228229
 21
26.586537335
 31
0
  0
LINE
  5
2AC
100
AcDbEntity
  8
FACA_Pontes
  6
CONTINUOUS
 62
     4
420
 65535
 39
0.105833333
 60
     0
100
AcDbLine
 10
78.554810074
 20
34.586537335
 30
0
 11
79.889228229
 21
34.586537335
 31
0
  0
LINE
  5
2AD
100
AcDbEntity
  8
FACA_Pontes
  6
CONTINUOUS
 62
     4
420
 65535
 39
0.105833333
 60
     0
100
AcDbLine
 10
81.217137166
 20
34.586537335
 30
0
 11
81.217137166
 21
26.586537335
 31
0
  0
LINE
  5
2AE
100
AcDbEntity
  8
FACA_Pontes
  6
CONTINUOUS
 62
     4
420
 65535
 39
0.105833333
 60
     0
100
AcDbLine
 10
85.213882316
 20
26.586537335
 30
0
 11
85.213882316
 21
34.586537335
 31
0
  0
LINE
  5
2AF
100
AcDbEntity
  8
FACA_Pontes
  6
CONTINUOUS
 62
     4
420
 65535
 39
0.105833333
 60
     0
100
AcDbLine
 10
85.213882316
 20
27.920955489
 30
0
 11
81.217137166
 21
33.252118794
 31
0
  0
LINE
  5
2B0
100
AcDbEntity
  8
FACA_Pontes
  6
CONTINUOUS
 62
     4
420
 65535
 39
0.105833333
 60
     0
100
AcDbLine
 10
86.418113447
 20
26.586537335
 30
0
 11
86.418113447
 21
34.586537335
 31
0
  0
LINE
  5
2B1
100
AcDbEntity
  8
FACA_Pontes
  6
CONTINUOUS
 62
     4
420
 65535
 39
0.105833333
 60
     0
100
AcDbLine
 10
90.414858597
 20
26.586537335
 30
0
 11
90.414858597
 21
34.586537335
 31
0
  0
LINE
  5
2B2
100
AcDbEntity
  8
FACA_Pontes
  6
CONTINUOUS
 62
     4
420
 65535
 39
0.105833333
 60
     0
100
AcDbLine
 10
86.418113447
 20
30.583282485
 30
0
 11
90.414858597
 21
30.583282485
 31
0
  0
LINE
  5
2B3
100
AcDbEntity
  8
FACA_Pontes
  6
CONTINUOUS
 62
     4
420
 65535
 39
0.105833333
 60
     0
100
AcDbLine
 10
91.619089728
 20
26.586537335
 30
0
 11
91.619089728
 21
31.917700768
 31
0
  0
LINE
  5
2B4
100
AcDbEntity
  8
FACA_Pontes
  6
CONTINUOUS
 62
     4
420
 65535
 39
0.105833333
 60
     0
100
AcDbLine
 10
91.619089728
 20
31.917700768
 30
0
 11
93.617462303
 21
34.586537335
 31
0
  0
LINE
  5
2B5
100
AcDbEntity
  8
FACA_Pontes
  6
CONTINUOUS
 62
     4
420
 65535
 39
0.105833333
 60
     0
100
AcDbLine
 10
93.617462303
 20
34.586537335
 30
0
 11
95.615834878
 21
31.917700768
 31
0
  0
LINE
  5
2B6
100
AcDbEntity
  8
FACA_Pontes
  6
CONTINUOUS
 62
     4
420
 65535
 39
0.105833333
 60
     0
100
AcDbLine
 10
95.615834878
 20
31.917700768
 30
0
 11
95.615834878
 21
26.586537335
 31
0
  0
LINE
  5
2B7
100
AcDbEntity
  8
FACA_Pontes
  6
CONTINUOUS
 62
     4
420
 65535
 39
0.105833333
 60
     0
100
AcDbLine
 10
91.619089728
 20
30.583282485
 30
0
 11
95.615834878
 21
30.583282485
 31
0
  0
LINE
  5
2B8
100
AcDbEntity
  8
FACA_Pontes
  6
CONTINUOUS
 62
     4
420
 65535
 39
0.105833333
 60
     0
100
AcDbLine
 10
96.82006601
 20
28.58490991
 30
0
 11
96.82006601
 21
27.920955489
 31
0
  0
LINE
  5
2B9
100
AcDbEntity
  8
FACA_Pontes
  6
CONTINUOUS
 62
     4
420
 65535
 39
0.105833333
 60
     0
100
AcDbLine
 10
96.82006601
 20
27.920955489
 30
0
 11
98.154484164
 21
26.586537335
 31
0
  0
LINE
  5
2BA
100
AcDbEntity
  8
FACA_Pontes
  6
CONTINUOUS
 62
     4
420
 65535
 39
0.105833333
 60
     0
100
AcDbLine
 10
98.154484164
 20
26.586537335
 30
0
 11
99.488902319
 21
26.586537335
 31
0
  0
LINE
  5
2BB
100
AcDbEntity
  8
FACA_Pontes
  6
CONTINUOUS
 62
     4
420
 65535
 39
0.105833333
 60
     0
100
AcDbLine
 10
99.488902319
 20
26.586537335
 30
0
 11
100.816811159
 21
27.920955489
 31
0
  0
LINE
  5
2BC
100
AcDbEntity
  8
FACA_Pontes
  6
CONTINUOUS
 62
     4
420
 65535
 39
0.105833333
 60
     0
100
AcDbLine
 10
100.816811159
 20
27.920955489
 30
0
 11
100.816811159
 21
29.255373644
 31
0
  0
LINE
  5
2BD
100
AcDbEntity
  8
FACA_Pontes
  6
CONTINUOUS
 62
     4
420
 65535
 39
0.105833333
 60
     0
100
AcDbLine
 10
100.816811159
 20
29.255373644
 30
0
 11
99.488902319
 21
30.583282485
 31
0
  0
LINE
  5
2BE
100
AcDbEntity
  8
FACA_Pontes
  6
CONTINUOUS
 62
     4
420
 65535
 39
0.105833333
 60
     0
100
AcDbLine
 10
99.488902319
 20
30.583282485
 30
0
 11
98.154484164
 21
30.583282485
 31
0
  0
LINE
  5
2BF
100
AcDbEntity
  8
FACA_Pontes
  6
CONTINUOUS
 62
     4
420
 65535
 39
0.105833333
 60
     0
100
AcDbLine
 10
98.154484164
 20
30.583282485
 30
0
 11
96.82006601
 21
31.917700768
 31
0
  0
LINE
  5
2C0
100
AcDbEntity
  8
FACA_Pontes
  6
CONTINUOUS
 62
     4
420
 65535
 39
0.105833333
 60
     0
100
AcDbLine
 10
96.82006601
 20
31.917700768
 30
0
 11
96.82006601
 21
33.252118794
 31
0
  0
LINE
  5
2C1
100
AcDbEntity
  8
FACA_Pontes
  6
CONTINUOUS
 62
     4
420
 65535
 39
0.105833333
 60
     0
100
AcDbLine
 10
96.82006601
 20
33.252118794
 30
0
 11
98.154484164
 21
34.586537335
 31
0
  0
LINE
  5
2C2
100
AcDbEntity
  8
FACA_Pontes
  6
CONTINUOUS
 62
     4
420
 65535
 39
0.105833333
 60
     0
100
AcDbLine
 10
98.154484164
 20
34.586537335
 30
0
 11
99.488902319
 21
34.586537335
 31
0
  0
LINE
  5
2C3
100
AcDbEntity
  8
FACA_Pontes
  6
CONTINUOUS
 62
     4
420
 65535
 39
0.105833333
 60
     0
100
AcDbLine
 10
99.488902319
 20
34.586537335
 30
0
 11
100.816811159
 21
33.252118794
 31
0
  0
LINE
  5
2C4
100
AcDbEntity
  8
FACA_Pontes
  6
CONTINUOUS
 62
     4
420
 65535
 39
0.105833333
 60
     0
100
AcDbLine
 10
100.816811159
 20
33.252118794
 30
0
 11
100.816811159
 21
32.588164373
 31
0
  0
LINE
  5
2C5
100
AcDbEntity
  8
FACA_Pontes
  6
CONTINUOUS
 62
     4
420
 65535
 39
0.105833333
 60
     0
100
AcDbLine
 10
101.487274958
 20
26.586537335
 30
0
 11
104.156111267
 21
26.586537335
 31
0
  0
LINE
  5
2C6
100
AcDbEntity
  8
FACA_Pontes
  6
CONTINUOUS
 62
     4
420
 65535
 39
0.105833333
 60
     0
100
AcDbLine
 10
106.818438343
 20
26.586537335
 30
0
 11
106.818438343
 21
34.586537335
 31
0
  0
LINE
  5
2C7
100
AcDbEntity
  8
FACA_Pontes
  6
CONTINUOUS
 62
     4
420
 65535
 39
0.105833333
 60
     0
100
AcDbLine
 10
104.820065768
 20
34.586537335
 30
0
 11
108.816810918
 21
34.586537335
 31
0
  0
LINE
  5
2C8
100
AcDbEntity
  8
FACA_Pontes
  6
CONTINUOUS
 62
     4
420
 65535
 39
0.105833333
 60
     0
100
AcDbLine
 10
113.484019866
 20
26.586537335
 30
0
 11
109.487274716
 21
26.586537335
 31
0
  0
LINE
  5
2C9
100
AcDbEntity
  8
FACA_Pontes
  6
CONTINUOUS
 62
     4
420
 65535
 39
0.105833333
 60
     0
100
AcDbLine
 10
109.487274716
 20
34.586537335
 30
0
 11
113.484019866
 21
34.586537335
 31
0
  0
LINE
  5
2CA
100
AcDbEntity
  8
FACA_Pontes
  6
CONTINUOUS
 62
     4
420
 65535
 39
0.105833333
 60
     0
100
AcDbLine
 10
109.487274716
 20
30.583282485
 30
0
 11
112.820065446
 21
30.583282485
 31
0
  0
LINE
  5
2CB
100
AcDbEntity
  8
FACA_Pontes
  6
CONTINUOUS
 62
     4
420
 65535
 39
0.105833333
 60
     0
100
AcDbLine
 10
114.154483665
 20
34.586537335
 30
0
 11
114.154483665
 21
26.586537335
 31
0
  0
LINE
  5
2CC
100
AcDbEntity
  8
FACA_Pontes
  6
CONTINUOUS
 62
     4
420
 65535
 39
0.105833333
 60
     0
100
AcDbLine
 10
118.151228815
 20
26.586537335
 30
0
 11
118.151228815
 21
34.586537335
 31
0
  0
LINE
  5
2CD
100
AcDbEntity
  8
FACA_Pontes
  6
CONTINUOUS
 62
     4
420
 65535
 39
0.105833333
 60
     0
100
AcDbLine
 10
118.151228815
 20
27.920955489
 30
0
 11
114.154483665
 21
33.252118794
 31
0
  0
LINE
  5
2CE
100
AcDbEntity
  8
FACA_Pontes
  6
CONTINUOUS
 62
     4
420
 65535
 39
0.105833333
 60
     0
100
AcDbLine
 10
119.355459946
 20
34.586537335
 30
0
 11
119.355459946
 21
26.586537335
 31
0
  0
LINE
  5
2CF
100
AcDbEntity
  8
FACA_Pontes
  6
CONTINUOUS
 62
     4
420
 65535
 39
0.105833333
 60
     0
100
AcDbLine
 10
123.352205096
 20
26.586537335
 30
0
 11
123.352205096
 21
34.586537335
 31
0
  0
LINE
  5
2D0
100
AcDbEntity
  8
FACA_Pontes
  6
CONTINUOUS
 62
     4
420
 65535
 39
0.105833333
 60
     0
100
AcDbLine
 10
123.352205096
 20
27.920955489
 30
0
 11
119.355459946
 21
33.252118794
 31
0
  0
LINE
  5
2D1
100
AcDbEntity
  8
FACA_Pontes
  6
CONTINUOUS
 62
     4
420
 65535
 39
0.105833333
 60
     0
100
AcDbLine
 10
126.554808802
 20
26.586537335
 30
0
 11
126.554808802
 21
34.586537335
 31
0
  0
LINE
  5
2D2
100
AcDbEntity
  8
FACA_Pontes
  6
CONTINUOUS
 62
     4
420
 65535
 39
0.105833333
 60
     0
100
AcDbLine
 10
125.890854382
 20
26.586537335
 30
0
 11
127.225272536
 21
26.586537335
 31
0
  0
LINE
  5
2D3
100
AcDbEntity
  8
FACA_Pontes
  6
CONTINUOUS
 62
     4
420
 65535
 39
0.105833333
 60
     0
100
AcDbLine
 10
125.890854382
 20
34.586537335
 30
0
 11
127.225272536
 21
34.586537335
 31
0
  0
LINE
  5
2D4
100
AcDbEntity
  8
FACA_Pontes
  6
CONTINUOUS
 62
     4
420
 65535
 39
0.105833333
 60
     0
100
AcDbLine
 10
128.553181473
 20
28.58490991
 30
0
 11
128.553181473
 21
27.920955489
 31
0
  0
LINE
  5
2D5
100
AcDbEntity
  8
FACA_Pontes
  6
CONTINUOUS
 62
     4
420
 65535
 39
0.105833333
 60
     0
100
AcDbLine
 10
128.553181473
 20
27.920955489
 30
0
 11
129.887599628
 21
26.586537335
 31
0
  0
LINE
  5
2D6
100
AcDbEntity
  8
FACA_Pontes
  6
CONTINUOUS
 62
     4
420
 65535
 39
0.105833333
 60
     0
100
AcDbLine
 10
129.887599628
 20
26.586537335
 30
0
 11
131.222017783
 21
26.586537335
 31
0
  0
LINE
  5
2D7
100
AcDbEntity
  8
FACA_Pontes
  6
CONTINUOUS
 62
     4
420
 65535
 39
0.105833333
 60
     0
100
AcDbLine
 10
131.222017783
 20
26.586537335
 30
0
 11
132.549926623
 21
27.920955489
 31
0
  0
LINE
  5
2D8
100
AcDbEntity
  8
FACA_Pontes
  6
CONTINUOUS
 62
     4
420
 65535
 39
0.105833333
 60
     0
100
AcDbLine
 10
132.549926623
 20
27.920955489
 30
0
 11
132.549926623
 21
29.255373644
 31
0
  0
LINE
  5
2D9
100
AcDbEntity
  8
FACA_Pontes
  6
CONTINUOUS
 62
     4
420
 65535
 39
0.105833333
 60
     0
100
AcDbLine
 10
132.549926623
 20
29.255373644
 30
0
 11
131.222017783
 21
30.583282485
 31
0
  0
LINE
  5
2DA
100
AcDbEntity
  8
FACA_Pontes
  6
CONTINUOUS
 62
     4
420
 65535
 39
0.105833333
 60
     0
100
AcDbLine
 10
131.222017783
 20
30.583282485
 30
0
 11
129.887599628
 21
30.583282485
 31
0
  0
LINE
  5
2DB
100
AcDbEntity
  8
FACA_Pontes
  6
CONTINUOUS
 62
     4
420
 65535
 39
0.105833333
 60
     0
100
AcDbLine
 10
129.887599628
 20
30.583282485
 30
0
 11
128.553181473
 21
31.917700768
 31
0
  0
LINE
  5
2DC
100
AcDbEntity
  8
FACA_Pontes
  6
CONTINUOUS
 62
     4
420
 65535
 39
0.105833333
 60
     0
100
AcDbLine
 10
128.553181473
 20
31.917700768
 30
0
 11
128.553181473
 21
33.252118794
 31
0
  0
LINE
  5
2DD
100
AcDbEntity
  8
FACA_Pontes
  6
CONTINUOUS
 62
     4
420
 65535
 39
0.105833333
 60
     0
100
AcDbLine
 10
128.553181473
 20
33.252118794
 30
0
 11
129.887599628
 21
34.586537335
 31
0
  0
LINE
  5
2DE
100
AcDbEntity
  8
FACA_Pontes
  6
CONTINUOUS
 62
     4
420
 65535
 39
0.105833333
 60
     0
100
AcDbLine
 10
129.887599628
 20
34.586537335
 30
0
 11
131.222017783
 21
34.586537335
 31
0
  0
LINE
  5
2DF
100
AcDbEntity
  8
FACA_Pontes
  6
CONTINUOUS
 62
     4
420
 65535
 39
0.105833333
 60
     0
100
AcDbLine
 10
131.222017783
 20
34.586537335
 30
0
 11
132.549926623
 21
33.252118794
 31
0
  0
LINE
  5
2E0
100
AcDbEntity
  8
FACA_Pontes
  6
CONTINUOUS
 62
     4
420
 65535
 39
0.105833333
 60
     0
100
AcDbLine
 10
132.549926623
 20
33.252118794
 30
0
 11
132.549926623
 21
32.588164373
 31
0
  0
LINE
  5
2E1
100
AcDbEntity
  8
FACA_Pontes
  6
CONTINUOUS
 62
     4
420
 65535
 39
0.105833333
 60
     0
100
AcDbLine
 10
141.884344756
 20
29.255373644
 30
0
 11
141.884344756
 21
27.920955489
 31
0
  0
LINE
  5
2E2
100
AcDbEntity
  8
FACA_Pontes
  6
CONTINUOUS
 62
     4
420
 65535
 39
0.105833333
 60
     0
100
AcDbLine
 10
141.884344756
 20
27.920955489
 30
0
 11
140.953506782
 21
26.586537335
 31
0
  0
LINE
  5
2E3
100
AcDbEntity
  8
FACA_Pontes
  6
CONTINUOUS
 62
     4
420
 65535
 39
0.105833333
 60
     0
100
AcDbLine
 10
140.953506782
 20
26.586537335
 30
0
 11
139.222017761
 21
26.586537335
 31
0
  0
LINE
  5
2E4
100
AcDbEntity
  8
FACA_Pontes
  6
CONTINUOUS
 62
     4
420
 65535
 39
0.105833333
 60
     0
100
AcDbLine
 10
139.222017761
 20
26.586537335
 30
0
 11
137.887599607
 21
27.920955489
 31
0
  0
LINE
  5
2E5
100
AcDbEntity
  8
FACA_Pontes
  6
CONTINUOUS
 62
     4
420
 65535
 39
0.105833333
 60
     0
100
AcDbLine
 10
137.887599607
 20
27.920955489
 30
0
 11
137.887599607
 21
33.252118794
 31
0
  0
LINE
  5
2E6
100
AcDbEntity
  8
FACA_Pontes
  6
CONTINUOUS
 62
     4
420
 65535
 39
0.105833333
 60
     0
100
AcDbLine
 10
137.887599607
 20
33.252118794
 30
0
 11
139.222017761
 21
34.586537335
 31
0
  0
LINE
  5
2E7
100
AcDbEntity
  8
FACA_Pontes
  6
CONTINUOUS
 62
     4
420
 65535
 39
0.105833333
 60
     0
100
AcDbLine
 10
139.222017761
 20
34.586537335
 30
0
 11
140.953506782
 21
34.586537335
 31
0
  0
LINE
  5
2E8
100
AcDbEntity
  8
FACA_Pontes
  6
CONTINUOUS
 62
     4
420
 65535
 39
0.105833333
 60
     0
100
AcDbLine
 10
140.953506782
 20
34.586537335
 30
0
 11
141.884344756
 21
33.252118794
 31
0
  0
LINE
  5
2E9
100
AcDbEntity
  8
FACA_Pontes
  6
CONTINUOUS
 62
     4
420
 65535
 39
0.105833333
 60
     0
100
AcDbLine
 10
141.884344756
 20
33.252118794
 30
0
 11
141.884344756
 21
31.930719654
 31
0
  0
LINE
  5
2EA
100
AcDbEntity
  8
FACA_Pontes
  6
CONTINUOUS
 62
     4
420
 65535
 39
0.105833333
 60
     0
100
AcDbLine
 10
142.554808555
 20
34.586537335
 30
0
 11
142.554808555
 21
26.586537335
 31
0
  0
LINE
  5
2EB
100
AcDbEntity
  8
FACA_Pontes
  6
CONTINUOUS
 62
     4
420
 65535
 39
0.105833333
 60
     0
100
AcDbLine
 10
142.554808555
 20
26.586537335
 30
0
 11
146.551553705
 21
26.586537335
 31
0
  0
LINE
  5
2EC
100
AcDbEntity
  8
FACA_Pontes
  6
CONTINUOUS
 62
     4
420
 65535
 39
0.105833333
 60
     0
100
AcDbLine
 10
146.551553705
 20
26.586537335
 30
0
 11
146.551553705
 21
27.920955489
 31
0
  0
LINE
  5
2ED
100
AcDbEntity
  8
FACA_Pontes
  6
CONTINUOUS
 62
     4
420
 65535
 39
0.105833333
 60
     0
100
AcDbLine
 10
147.222017504
 20
34.586537335
 30
0
 11
147.222017504
 21
27.920955489
 31
0
  0
LINE
  5
2EE
100
AcDbEntity
  8
FACA_Pontes
  6
CONTINUOUS
 62
     4
420
 65535
 39
0.105833333
 60
     0
100
AcDbLine
 10
147.222017504
 20
27.920955489
 30
0
 11
148.556435658
 21
26.586537335
 31
0
  0
LINE
  5
2EF
100
AcDbEntity
  8
FACA_Pontes
  6
CONTINUOUS
 62
     4
420
 65535
 39
0.105833333
 60
     0
100
AcDbLine
 10
148.556435658
 20
26.586537335
 30
0
 11
149.890853813
 21
26.586537335
 31
0
  0
LINE
  5
2F0
100
AcDbEntity
  8
FACA_Pontes
  6
CONTINUOUS
 62
     4
420
 65535
 39
0.105833333
 60
     0
100
AcDbLine
 10
149.890853813
 20
26.586537335
 30
0
 11
151.218762653
 21
27.920955489
 31
0
  0
LINE
  5
2F1
100
AcDbEntity
  8
FACA_Pontes
  6
CONTINUOUS
 62
     4
420
 65535
 39
0.105833333
 60
     0
100
AcDbLine
 10
151.218762653
 20
27.920955489
 30
0
 11
151.218762653
 21
34.586537335
 31
0
  0
LINE
  5
2F2
100
AcDbEntity
  8
FACA_Pontes
  6
CONTINUOUS
 62
     4
420
 65535
 39
0.105833333
 60
     0
100
AcDbLine
 10
155.885971602
 20
28.98849009
 30
0
 11
155.885971602
 21
28.187839172
 31
0
  0
LINE
  5
2F3
100
AcDbEntity
  8
FACA_Pontes
  6
CONTINUOUS
 62
     4
420
 65535
 39
0.105833333
 60
     0
100
AcDbLine
 10
155.885971602
 20
28.187839172
 30
0
 11
154.558062761
 21
26.586537335
 31
0
  0
LINE
  5
2F4
100
AcDbEntity
  8
FACA_Pontes
  6
CONTINUOUS
 62
     4
420
 65535
 39
0.105833333
 60
     0
100
AcDbLine
 10
154.558062761
 20
26.586537335
 30
0
 11
151.889226452
 21
26.586537335
 31
0
  0
LINE
  5
2F5
100
AcDbEntity
  8
FACA_Pontes
  6
CONTINUOUS
 62
     4
420
 65535
 39
0.105833333
 60
     0
100
AcDbLine
 10
151.889226452
 20
26.586537335
 30
0
 11
151.889226452
 21
34.586537335
 31
0
  0
LINE
  5
2F6
100
AcDbEntity
  8
FACA_Pontes
  6
CONTINUOUS
 62
     4
420
 65535
 39
0.105833333
 60
     0
100
AcDbLine
 10
151.889226452
 20
34.586537335
 30
0
 11
154.558062761
 21
34.586537335
 31
0
  0
LINE
  5
2F7
100
AcDbEntity
  8
FACA_Pontes
  6
CONTINUOUS
 62
     4
420
 65535
 39
0.105833333
 60
     0
100
AcDbLine
 10
154.558062761
 20
34.586537335
 30
0
 11
155.885971602
 21
32.985235498
 31
0
  0
LINE
  5
2F8
100
AcDbEntity
  8
FACA_Pontes
  6
CONTINUOUS
 62
     4
420
 65535
 39
0.105833333
 60
     0
100
AcDbLine
 10
155.885971602
 20
32.985235498
 30
0
 11
155.885971602
 21
32.184584579
 31
0
  0
LINE
  5
2F9
100
AcDbEntity
  8
FACA_Pontes
  6
CONTINUOUS
 62
     4
420
 65535
 39
0.105833333
 60
     0
100
AcDbLine
 10
155.885971602
 20
32.184584579
 30
0
 11
154.558062761
 21
30.583282485
 31
0
  0
LINE
  5
2FA
100
AcDbEntity
  8
FACA_Pontes
  6
CONTINUOUS
 62
     4
420
 65535
 39
0.105833333
 60
     0
100
AcDbLine
 10
154.558062761
 20
30.583282485
 30
0
 11
151.889226452
 21
30.583282485
 31
0
  0
LINE
  5
2FB
100
AcDbEntity
  8
FACA_Pontes
  6
CONTINUOUS
 62
     4
420
 65535
 39
0.105833333
 60
     0
100
AcDbLine
 10
154.558062761
 20
30.583282485
 30
0
 11
155.885971602
 21
28.98849009
 31
0
  0
LINE
  5
2FC
100
AcDbEntity
  8
FACA_Pontes
  6
CONTINUOUS
 62
   254
420
16777215
 39
0.705555556
 60
     0
100
AcDbLine
 10
180.43678106
 20
188.986882195
 30
0
 11
180.43678106
 21
196.986882195
 31
0
  0
LINE
  5
2FD
100
AcDbEntity
  8
FACA_Pontes
  6
CONTINUOUS
 62
   254
420
16777215
 39
0.705555556
 60
     0
100
AcDbLine
 10
185.103990593
 20
166.816576833
 30
0
 11
185.103990593
 21
174.816576833
 31
0
  0
LINE
  5
2FE
100
AcDbEntity
  8
FACA_Pontes
  6
CONTINUOUS
 62
   254
420
16777215
 39
0.705555556
 60
     0
100
AcDbLine
 10
208.973805492
 20
166.816576833
 30
0
 11
208.973805492
 21
174.816576833
 31
0
  0
LINE
  5
2FF
100
AcDbEntity
  8
FACA_Pontes
  6
CONTINUOUS
 62
   254
420
16777215
 39
0.705555556
 60
     0
100
AcDbLine
 10
213.641015025
 20
166.816576833
 30
0
 11
213.641015025
 21
174.816576833
 31
0
  0
LINE
  5
300
100
AcDbEntity
  8
FACA_Pontes
  6
CONTINUOUS
 62
   254
420
16777215
 39
0.705555556
 60
     0
100
AcDbLine
 10
200.44003731
 20
188.986882195
 30
0
 11
201.774455548
 21
188.986882195
 31
0
  0
LINE
  5
301
100
AcDbEntity
  8
FACA_Pontes
  6
CONTINUOUS
 62
     4
420
 65535
 39
0.105833333
 60
     0
100
AcDbLine
 10
111.286136331
 20
182.552121564
 30
0
 11
111.286136331
 21
192.552121564
 31
0
  0
LINE
  5
302
100
AcDbEntity
  8
FACA_Pontes
  6
CONTINUOUS
 62
     4
420
 65535
 39
0.105833333
 60
     0
100
AcDbLine
 10
130.456194728
 20
182.552121564
 30
0
 11
132.124217525
 21
182.552121564
 31
0
  0
LINE
  5
303
100
AcDbEntity
  8
FACA_Pontes
  6
CONTINUOUS
 62
     4
420
 65535
 39
0.105833333
 60
     0
100
AcDbLine
 10
140.456195246
 20
182.552121564
 30
0
 11
142.124218043
 21
182.552121564
 31
0
  0
LINE
  5
304
100
AcDbEntity
  8
FACA_Pontes
  6
CONTINUOUS
 62
     4
420
 65535
 39
0.105833333
 60
     0
100
AcDbLine
 10
42.948627046
 20
37.969203618
 30
0
 11
42.948627046
 21
45.969203618
 31
0
  0
LINE
  5
305
100
AcDbEntity
  8
FACA_Pontes
  6
CONTINUOUS
 62
     4
420
 65535
 39
0.105833333
 60
     0
100
AcDbLine
 10
42.948627046
 20
26.586537335
 30
0
 11
42.948627046
 21
34.586537335
 31
0
  0
LINE
  5
306
100
AcDbEntity
  8
FACA_Pontes
  6
CONTINUOUS
 62
     4
420
 65535
 39
0.105833333
 60
     0
100
AcDbLine
 10
64.659231469
 20
178.796989853
 30
0
 11
65.355869827
 21
178.796989853
 31
0
  0
LINE
  5
307
100
AcDbEntity
  8
FACA_Pontes
  6
CONTINUOUS
 62
     4
420
 65535
 39
0.105833333
 60
     0
100
AcDbLine
 10
66.399128276
 20
178.796989853
 30
0
 11
67.095766634
 21
178.796989853
 31
0
  0
LINE
  5
308
100
AcDbEntity
  8
FACA_Pontes
  6
CONTINUOUS
 62
     4
420
 65535
 39
0.105833333
 60
     0
100
AcDbLine
 10
83.104855677
 20
178.796989853
 30
0
 11
83.801494035
 21
178.796989853
 31
0
  0
LINE
  5
309
100
AcDbEntity
  8
FACA_Pontes
  6
CONTINUOUS
 62
     4
420
 65535
 39
0.105833333
 60
     0
100
AcDbLine
 10
109.487274716
 20
26.586537335
 30
0
 11
109.487274716
 21
34.586537335
 31
0
  0
CIRCLE
  5
30A
100
AcDbEntity
  8
FACA_Pontes
  6
CONTINUOUS
 62
   254
420
16777215
 39
0.705555556
 60
     0
100
AcDbCircle
 10
105.500346391
 20
110.000168054
 30
0
 40
19.000081944
  0
CIRCLE
  5
30B
100
AcDbEntity
  8
FACA_Pontes
  6
CONTINUOUS
 62
   254
420
16777215
 39
0.705555556
 60
     0
100
AcDbCircle
 10
153.500349168
 20
110.000168054
 30
0
 40
19.000081944
  0
CIRCLE
  5
30C
100
AcDbEntity
  8
FACA_Pontes
  6
CONTINUOUS
 62
   254
420
16777215
 39
0.705555556
 60
     0
100
AcDbCircle
 10
201.500351946
 20
110.000168054
 30
0
 40
19.000081944
  0
ENDSEC
  0
SECTION
  2
OBJECTS
  0
DICTIONARY
  5
30D
100
AcDbDictionary
281
     1
  3
ACAD_GROUP
350
30E
  3
ACAD_MLINESTYLE
350
30F
  0
DICTIONARY
  5
30E
102
{ACAD_REACTORS
330
1
102
}
100
AcDbDictionary
  0
DICTIONARY
  5
30F
102
{ACAD_REACTORS
330
1
102
}
100
AcDbDictionary
  3
STANDARD
350
310
  0
MLINESTYLE
  5
310
102
{ACAD_REACTORS
330
30F
102
}
100
AcDbMlineStyle
  2
STANDARD
 70
     0
  3

 62
     0
 51
90
 52
90
 71
     2
 49
0.5
 62
   256
  6
BYLAYER
 49
-0.5
 62
   256
  6
BYLAYER
  0
ENDSEC
  0
EOF
